<svg xmlns="http://www.w3.org/2000/svg" xmlns:xlink="http://www.w3.org/1999/xlink" width="38" height="40" viewBox="0 0 38 40">
    <defs>
        <path id="a" d="M.211 1.004h1.87V.362H.21v.642z"/>
        <path id="c" d="M0 .345v1.891h.602V.346H0z"/>
    </defs>
    <g fill="none" fill-rule="evenodd">
        <path fill="#ee7822" d="M15.789 4.053V2.706l-1.644.127-.012.06c.54.38 1.08.757 1.656 1.16zM3.262 24.077L1.56 22.88l-.064.055.536 1.718 1.23-.576zM15.81 6.097c0-.437-.008-.812.004-1.186.006-.18-.052-.285-.194-.383-.696-.48-1.385-.975-2.08-1.458-.066-.046-.164-.082-.237-.067-.463.096-.922.207-1.45.328 1.343.94 2.624 1.834 3.957 2.766zM1.102 20.56l-.075.033c.095.488.188.975.289 1.461.01.053.06.108.105.14.74.528 1.483 1.054 2.228 1.575.052.037.138.072.189.052.388-.157.77-.327 1.208-.516L1.102 20.56zm10.27-17.063l-1.385.528 5.823 4.073c0-.414-.013-.764.005-1.112.012-.23-.06-.365-.245-.493a457.144 457.144 0 0 1-3.794-2.644c-.134-.094-.249-.216-.403-.352zM.92 18.447c.021.502.032.926.065 1.349.006.08.083.18.154.228 1.407.986 2.82 1.966 4.232 2.944.06.042.153.096.207.075.39-.15.775-.317 1.204-.497l-5.862-4.1zm24.597 3.51h4.85c0-.465-.007-.908.002-1.351.004-.196-.07-.262-.248-.258-.394.006-.788.002-1.183.001h-3.156c-.133 0-.27-.022-.266.198.007.462.001.924.001 1.41zM8.361 4.903l7.45 5.223c0-.443-.008-.82.003-1.198.004-.167-.045-.272-.182-.362-.313-.203-.616-.425-.922-.639L9.506 4.282l-1.145.62zM1.068 16.516c-.04.45-.084.836-.1 1.222-.004.085.068.207.14.256 1.998 1.403 4.002 2.799 6.006 4.195.056.038.138.1.182.082.4-.165.794-.346 1.233-.542l-7.461-5.213zm.323-1.794c-.071.386-.123.72-.198 1.049-.034.151-.002.23.12.316 2.53 1.776 5.055 3.557 7.584 5.334.059.041.155.084.21.061.387-.161.767-.34 1.195-.533l-8.91-6.227zm14.42-2.58c0-.327-.03-.59.006-.842.064-.456-.124-.703-.48-.948-2.389-1.648-4.76-3.324-7.14-4.985-.083-.058-.227-.117-.294-.08-.328.184-.639.4-1.003.636l8.91 6.22zM1.514 14.224l1.478 1.035c2.527 1.766 5.053 3.533 7.582 5.295.086.06.221.125.302.095.383-.146.756-.323 1.17-.506L1.9 13.044c-.13.395-.251.77-.385 1.18zm14.295-.081c0-.414-.012-.756.005-1.097.012-.246-.06-.398-.264-.54-2.393-1.659-4.778-3.33-7.165-4.999-.59-.413-1.182-.824-1.792-1.249l-.944.806 10.16 7.079zM2.763 11.062c.087.063.15.11.214.154 3.793 2.54 7.669 4.947 11.253 7.821.055.045.154.089.208.066.37-.152.732-.321 1.132-.503L3.348 10.042l-.585 1.02zM15.81 16.17c0-.425-.013-.777.005-1.127.012-.23-.061-.363-.246-.492-3.302-2.293-6.598-4.596-9.895-6.896-.108-.076-.217-.15-.341-.238l-.774.871 11.251 7.882zM3.586 9.64l12.224 8.532c0-.431-.013-.79.005-1.148.012-.223-.068-.347-.24-.467-2.458-1.708-4.912-3.423-7.366-5.137L4.264 8.665c-.227.324-.446.642-.678.975zm10.293 9.716c-3.623-2.9-7.51-5.291-11.336-7.839l-.463 1.08c.105.076.184.133.264.189l3.478 2.441c2.18 1.53 4.36 3.06 6.543 4.587.078.054.202.116.273.087.406-.161.802-.349 1.242-.545zm17.522-7.531l-13.4 6 7.055 2.993c.01-.092.017-.129.019-.165.025-.69.154-.823.802-.823h4.208c.535 0 .732.206.734.766v1.313c.041.022.056.036.072.036.289.003.579-.006.867.01.18.01.252-.044.302-.24.581-2.264.653-4.546.223-6.846a16.34 16.34 0 0 0-.882-3.044zm-3.454 10.627h-6.705c-.547 0-.76.224-.76.808v8.61c0 .621.202.835.79.835h13.357c.565 0 .775-.225.776-.821V23.3c0-.63-.209-.849-.806-.849h-6.652zm-4.836-.473l.002-.068c-.038-.021-.076-.044-.115-.061-2.265-.964-4.529-1.93-6.797-2.883-.103-.043-.256-.019-.364.029-3.854 1.717-7.705 3.441-11.557 5.164l-2.05.917c1.112 2.608 2.688 4.786 4.887 6.431 2.177 1.63 4.587 2.647 7.247 2.947 2.645.298 6.657-.383 7.657-1.277-.299 0-.588.003-.877-.001-.67-.01-1.099-.465-1.099-1.173v-8.89c0-.65.436-1.122 1.054-1.133.579-.01 1.158-.002 1.736-.002h.276zm9.375 0h.886c.456 0 .912-.003 1.368 0 .654.006 1.096.452 1.098 1.146.006 2.983.006 5.965 0 8.948-.002.688-.47 1.118-1.132 1.08-.06-.004-.122-.003-.184-.003-3.691 0-7.382-.001-11.074.006-.167 0-.35.045-.499.123-2.475 1.291-5.094 1.879-7.842 1.678-4.402-.323-8.111-2.22-10.986-5.77-1.846-2.28-2.991-4.956-3.43-7.93-.71-4.818.413-9.149 3.285-12.951 1.89-2.503 4.335-4.202 7.196-5.237 1.539-.557 3.128-.802 4.752-.818.256-.003.336.127.334.376-.004.945-.002 1.89-.002 2.835 0 4.232.002 8.465-.005 12.698 0 .24.06.35.275.442 2.556 1.09 5.106 2.198 7.664 3.286.257.109.553.118.884.185 0-.245.024-.422-.01-.585-.017-.078-.136-.153-.222-.19-2.303-.99-4.607-1.975-6.91-2.96-.17-.074-.348-.133-.508-.226-.096-.056-.227-.164-.229-.25 0-.085.127-.209.224-.254 1.076-.492 2.157-.973 3.237-1.457l10.637-4.764c.315-.14.364-.12.492.204.976 2.49 1.402 5.075 1.142 7.763-.076.78-.252 1.548-.382 2.32-.015.09-.034.177-.06.305z"/>
        <path fill="#ee7822" d="M14.234 2.89l1.495 1.046V2.774l-1.495.115zm1.614 1.28l-1.78-1.247.028-.149.044-.003c.54-.042 1.08-.083 1.644-.128l.064-.005V4.17zm-3.846-.81l3.749 2.62-.001-.258c-.002-.283-.004-.55.005-.814.005-.153-.039-.239-.167-.328-.39-.268-.777-.54-1.163-.814-.305-.215-.61-.43-.917-.643-.063-.044-.144-.072-.194-.058-.348.072-.699.153-1.07.24l-.242.055zm3.868 2.854l-4.163-2.91.133-.034.378-.088c.372-.086.724-.168 1.073-.24a.417.417 0 0 1 .282.076c.307.213.612.428.918.644.386.272.773.545 1.162.813.163.113.227.24.22.438-.008.261-.007.527-.005.808l.002.377v.116zm-5.752-2.172l5.633 3.939c0-.085-.002-.168-.003-.25-.002-.26-.005-.505.008-.748.01-.205-.047-.319-.219-.437a464.921 464.921 0 0 1-3.794-2.644c-.093-.065-.177-.145-.266-.228a8.295 8.295 0 0 0-.116-.106l-1.243.474zm5.752 4.173l-1.762-1.232-4.252-2.975 1.528-.583.027.023c.052.046.1.09.144.132.09.084.168.157.254.217 1.35.948 2.568 1.802 3.793 2.644.207.141.286.3.273.549-.013.238-.01.482-.008.74.001.118.003.24.003.368v.117zM8.479 4.909l7.272 5.1-.001-.263c-.002-.285-.003-.553.004-.82.004-.148-.037-.23-.153-.306-.229-.15-.457-.31-.676-.466-.083-.058-.165-.117-.248-.174L9.502 4.355l-1.023.554zm7.39 5.335L8.246 4.896 9.51 4.21l.029.02 5.203 3.645.25.175c.218.155.444.315.671.463.152.099.215.224.21.417-.007.264-.006.532-.005.815l.002.382v.117zM7.01 5.924l8.74 6.1a19.092 19.092 0 0 0-.005-.182 3.183 3.183 0 0 1 .013-.552c.061-.436-.128-.662-.453-.886a782.641 782.641 0 0 1-4.693-3.271C9.796 6.56 8.98 5.989 8.163 5.419c-.087-.061-.2-.092-.233-.076-.237.133-.47.285-.715.447l-.205.134zm8.86 6.335L6.79 5.92l.079-.051.283-.185c.248-.163.482-.317.723-.452.107-.06.292.04.353.082.818.57 1.634 1.142 2.45 1.714a798.005 798.005 0 0 0 4.692 3.271c.354.244.576.51.505 1.01a3.15 3.15 0 0 0-.01.53c.002.095.005.196.005.303v.117zm-10.12-5.2l10 6.967-.001-.25c-.003-.255-.006-.497.006-.733.012-.225-.052-.356-.237-.484a1731.956 1731.956 0 0 1-5.477-3.82L8.353 7.56 7.107 6.69l-.51-.355-.847.724zm10.12 7.2L5.55 7.07l1.04-.888.583.405c.42.292.833.58 1.245.869l1.689 1.18c1.793 1.254 3.648 2.551 5.476 3.819.22.153.305.325.291.596-.012.232-.009.471-.007.725.001.117.003.24.003.368v.116zM4.65 8.278l11.1 7.776c0-.089 0-.174-.002-.258-.002-.263-.005-.511.008-.755.01-.203-.047-.316-.22-.437-2.676-1.859-5.348-3.724-8.021-5.588L5.342 7.5l-.692.778zm11.22 8.01l-.092-.065L4.468 8.3l.856-.964.383.268L7.58 8.91c2.672 1.865 5.345 3.73 8.02 5.588.208.144.286.303.274.549-.013.24-.01.485-.008.747.001.12.003.244.003.376v.117zM3.67 9.624l12.08 8.431c0-.09 0-.177-.002-.263-.002-.268-.005-.522.008-.771.01-.187-.047-.295-.214-.412-2.044-1.42-4.084-2.845-6.124-4.27l-1.241-.867-3.9-2.722-.606.874zm12.2 8.664L3.5 9.656 4.25 8.58l.047.032 3.946 2.755 1.241.867c2.04 1.425 4.08 2.85 6.124 4.27.202.14.28.292.268.524-.013.245-.01.497-.008.763.001.121.003.248.003.38v.117zM2.843 11.044l.035.025c.047.035.088.066.131.094.845.566 1.708 1.135 2.542 1.685 2.914 1.919 5.927 3.903 8.714 6.14.052.041.128.067.151.057.28-.115.557-.241.849-.374l.181-.082-12.08-8.46-.523.915zm11.56 8.128a.38.38 0 0 1-.21-.085C11.41 16.855 8.4 14.872 5.49 12.954c-.835-.55-1.698-1.119-2.543-1.685a3.32 3.32 0 0 1-.137-.097l-.126-.092.646-1.127.051.036 12.315 8.623-.383.174c-.293.133-.57.26-.852.376a.151.151 0 0 1-.057.01zM2.155 12.576l.066.047.155.11 4.15 2.913c1.957 1.373 3.913 2.746 5.872 4.115.087.061.182.097.22.081.298-.118.592-.252.902-.392l.242-.11c-2.788-2.222-5.781-4.18-8.677-6.075-.825-.54-1.678-1.099-2.517-1.656l-.413.967zm10.442 7.395c-.105 0-.225-.077-.265-.105-1.958-1.37-3.915-2.743-5.872-4.116l-4.15-2.912c-.05-.035-.1-.07-.155-.111l-.15-.106.512-1.195.058.039c.855.57 1.729 1.14 2.573 1.693 2.927 1.915 5.952 3.895 8.768 6.148l.081.065-.094.043c-.115.05-.226.101-.336.15-.312.143-.607.276-.908.396a.171.171 0 0 1-.062.01zm-11.01-5.773l2.628 1.84c2.13 1.489 4.26 2.978 6.393 4.463.097.068.204.107.25.088.278-.106.552-.229.842-.358.073-.034.147-.067.223-.1L1.93 13.14l-.345 1.057zm9.243 6.521c-.114 0-.245-.083-.287-.113a4779.89 4779.89 0 0 1-6.393-4.464L1.444 14.25l.425-1.302 10.305 7.209-.103.045-.324.145c-.292.13-.567.255-.85.362a.187.187 0 0 1-.067.011zm-9.397-5.893l-.044.242c-.044.25-.086.486-.138.717-.028.124-.008.177.095.25 1.4.982 2.796 1.966 4.194 2.95l3.39 2.384c.06.043.132.064.155.055.286-.12.57-.249.87-.386l.223-.101-8.745-6.111zM9.07 21.55a.43.43 0 0 1-.207-.078l-3.39-2.385c-1.398-.983-2.795-1.967-4.194-2.948-.144-.102-.185-.21-.145-.384.052-.229.094-.463.138-.71l.06-.336.017-.092.074.052 9.003 6.29-.425.193c-.302.138-.586.268-.873.388a.14.14 0 0 1-.058.01zm22.236.332c.15 0 .303 0 .454.01.151.011.2-.03.242-.194.574-2.24.649-4.534.222-6.818a16.179 16.179 0 0 0-.855-2.973l-13.213 5.916 6.85 2.906v-.005c.005-.033.008-.054.008-.075.027-.726.18-.882.862-.882h4.208c.569 0 .791.233.793.828V21.87l.008.005c.006.004.01.007.014.008.125 0 .266-.002.407-.001zm.49.136h-.042a8.45 8.45 0 0 0-.586-.01h-.279c-.025 0-.043-.012-.063-.024a.33.33 0 0 0-.034-.02l-.033-.017v-.418-.934c-.002-.525-.172-.702-.675-.703h-4.208c-.615 0-.72.107-.743.762 0 .025-.004.05-.009.087l-.02.164-7.26-3.08 13.588-6.083.023.058a16.3 16.3 0 0 1 .885 3.056 15.78 15.78 0 0 1-.224 6.875c-.053.209-.139.287-.32.287zm-6.22-.125h4.73l-.001-.338c-.001-.327-.003-.637.004-.951.002-.078-.01-.129-.036-.156-.026-.028-.074-.04-.151-.039-.29.005-.58.004-.87.003l-3.505-.002c-.062 0-.122-.001-.148.026-.017.019-.025.055-.025.11.005.325.004.651.003.986v.361zm4.849.126h-4.968l.001-.487c.001-.334.002-.66-.003-.985-.001-.09.019-.155.06-.2.061-.064.155-.06.233-.062h.033l3.472.001c.289.002.577.002.866-.002.116.003.187.022.238.075.05.054.073.132.07.248-.006.313-.005.621-.004.947l.002.402v.063zM1.118 16.626l-.024.252c-.029.3-.055.584-.067.864-.003.056.056.16.113.2 1.995 1.4 3.98 2.783 6.007 4.194l.015.01c.028.02.093.066.116.066.301-.125.603-.26.923-.404l.203-.091-7.286-5.091zm6.16 5.711c-.059 0-.123-.045-.181-.085l-.016-.011a2216.176 2216.176 0 0 1-6.007-4.194c-.084-.06-.171-.199-.166-.311.013-.283.04-.568.068-.87l.033-.356.009-.104 7.636 5.335-.407.183c-.32.144-.623.279-.93.405a.098.098 0 0 1-.039.008zm-6.294-3.77l.01.258c.014.337.026.655.05.966.004.053.062.136.127.181 1.217.853 2.523 1.76 4.232 2.944.086.06.14.072.155.068a30.1 30.1 0 0 0 .884-.362l.212-.09-5.67-3.965zm4.567 4.543c-.056 0-.128-.03-.213-.09a948.949 948.949 0 0 1-4.232-2.943c-.083-.058-.172-.172-.18-.276-.024-.313-.037-.633-.05-.97l-.016-.382-.005-.123L6.91 22.56l-.424.177c-.306.13-.595.252-.887.363a.123.123 0 0 1-.048.01zm-4.456-2.479l.056.29c.073.374.145.747.223 1.12.006.03.04.073.08.101.83.592 1.56 1.107 2.228 1.575.05.035.113.053.134.045.297-.12.593-.248.907-.385l.196-.085-3.824-2.66zm2.708 3.258a.373.373 0 0 1-.187-.067 346.99 346.99 0 0 1-2.228-1.576.323.323 0 0 1-.13-.178c-.078-.373-.15-.748-.223-1.122l-.075-.391.148-.065.026.018 4.038 2.81-.403.176c-.315.136-.613.265-.91.385a.146.146 0 0 1-.056.01zm-2.237-.93l.502 1.609 1.071-.502-1.573-1.106zm.43 1.78l-.57-1.825.132-.111 1.827 1.286-1.389.65zm25.951-2.225h-6.705c-.516 0-.7.196-.7.747v8.61c0 .584.178.77.73.771h13.357c.529 0 .716-.199.716-.758V23.3c0-.595-.181-.786-.745-.786h-6.653zm-1.135 10.254h-5.54c-.618 0-.848-.244-.848-.897v-8.61c0-.62.237-.872.818-.872H34.6c.63 0 .864.247.864.912v8.583c0 .636-.235.883-.835.883l-7.817.001zM2.31 25.11c1.162 2.701 2.746 4.778 4.842 6.347 2.216 1.658 4.645 2.645 7.22 2.936 2.514.282 6.278-.312 7.471-1.152h-.093c-.204.001-.405.001-.606-.002-.702-.01-1.157-.495-1.157-1.235-.002-2.963-.002-5.926 0-8.89 0-.682.468-1.184 1.113-1.196.4-.007.808-.006 1.202-.003l.534.001h.158a.34.34 0 0 0-.018-.009l-1.172-.498c-1.843-.784-3.747-1.595-5.624-2.384-.085-.035-.225-.013-.32.029a6727 6727 0 0 0-10.64 4.754l-2.91 1.302zm13.439 9.479c-.488 0-.957-.023-1.39-.072-2.595-.293-5.043-1.288-7.275-2.958-2.13-1.593-3.735-3.705-4.907-6.456l-.025-.059 3.021-1.351c3.547-1.587 7.093-3.174 10.642-4.755.116-.052.287-.081.41-.03 1.876.79 3.78 1.6 5.623 2.385l1.173.499c.03.013.058.029.086.044l.067.037-.005.169h-.333l-.534-.002c-.394-.002-.801-.004-1.2.004-.587.01-.997.45-.997 1.07v8.89c0 .676.4 1.101 1.041 1.11.2.004.4.003.604.002l.434-.001-.123.11c-.856.766-3.818 1.364-6.312 1.364zm.184-32.275h-.008c-1.72.017-3.268.284-4.732.814-2.947 1.066-5.36 2.821-7.17 5.217C1.15 12.148.048 16.489.75 21.248c.44 2.986 1.59 5.643 3.416 7.899 2.826 3.488 6.509 5.422 10.946 5.747 2.68.197 5.31-.365 7.81-1.671.159-.082.35-.13.526-.13 3.138-.006 6.277-.006 9.413-.005h1.703c.048 0 .097-.001.146.002.315.02.595-.077.787-.268.183-.183.28-.442.281-.75.007-3.003.007-6.013 0-8.947-.001-.653-.409-1.077-1.039-1.083-.311-.002-.623-.001-.935 0h-1.391l.039-.197c.013-.067.025-.124.034-.18.041-.242.086-.484.131-.724.098-.52.2-1.06.25-1.593.25-2.57-.133-5.172-1.137-7.732-.054-.138-.094-.222-.142-.242-.047-.021-.136.01-.273.071l-11.292 5.058c-.847.379-1.722.77-2.58 1.162-.092.043-.19.151-.188.196 0 .038.082.13.197.196.11.064.233.113.352.16l.15.062 1.185.507c1.909.817 3.817 1.634 5.725 2.454.038.016.23.104.257.234.026.12.021.245.017.39-.002.064-.005.133-.005.209v.076l-.07-.015a5.91 5.91 0 0 0-.314-.052c-.207-.031-.402-.06-.581-.136a1191.31 1191.31 0 0 1-4.093-1.754c-1.19-.511-2.38-1.023-3.572-1.531-.23-.099-.312-.23-.312-.5.007-3.501.007-7.06.006-10.501V4.678c-.001-.684-.002-1.368.002-2.051 0-.125-.02-.204-.064-.25-.04-.043-.107-.063-.203-.063zm.219 32.744c-.349 0-.697-.013-1.047-.038-4.47-.328-8.18-2.277-11.028-5.792-1.842-2.273-3-4.952-3.444-7.96-.707-4.795.403-9.17 3.298-13.001 1.824-2.415 4.255-4.184 7.223-5.258 1.477-.535 3.038-.803 4.77-.82h.009c.13 0 .223.031.286.099.069.071.1.18.1.34-.004.683-.004 1.366-.003 2.05V7.66c.001 3.441.001 7-.005 10.5 0 .222.05.304.238.384 1.191.508 2.381 1.02 3.572 1.532 1.363.587 2.726 1.173 4.092 1.753.166.07.354.099.554.129.08.012.164.024.249.04 0-.049.002-.095.004-.138.005-.142.008-.254-.014-.358-.008-.04-.092-.105-.186-.145-1.907-.82-3.816-1.638-5.724-2.454l-1.186-.507a5.406 5.406 0 0 0-.147-.061 2.654 2.654 0 0 1-.367-.168c-.042-.025-.256-.156-.259-.304-.002-.124.152-.263.26-.312.858-.393 1.734-.785 2.581-1.164L31.27 11.33c.177-.08.277-.11.365-.072.086.037.136.133.205.31 1.012 2.58 1.398 5.201 1.147 7.792-.052.54-.154 1.081-.252 1.605-.045.24-.09.48-.13.72-.01.06-.022.117-.036.186l-.01.045h1.246c.312-.002.624-.002.936.001.69.006 1.156.491 1.157 1.208.007 2.934.006 5.944 0 8.948 0 .343-.11.634-.319.84-.216.216-.53.32-.875.302-.046-.003-.092-.002-.138-.002h-1.704c-3.139 0-6.275 0-9.413.005-.158 0-.33.044-.473.118-2.194 1.144-4.485 1.722-6.824 1.722z"/>
        <path fill="#ee7822" d="M17.57 16.085c.124-.046.205-.072.283-.107l4.884-2.185c2.716-1.216 5.43-2.434 8.148-3.643.209-.093.24-.19.136-.39-.244-.47-.465-.954-.715-1.42-1.154-2.148-2.716-3.9-4.667-5.253-2.344-1.625-4.952-2.38-7.735-2.52-.348-.017-.35-.012-.35.356V15.73c0 .1.01.2.016.355m-.449-7.687V.622c0-.523.034-.572.516-.557 2.484.077 4.858.624 7.068 1.862 2.275 1.275 4.138 3.034 5.523 5.33.497.823.906 1.707 1.346 2.568.19.37.15.465-.218.63l-8.17 3.654c-1.86.832-3.722 1.662-5.583 2.494-.352.158-.482.067-.482-.345v-7.86"/>
        <path fill="#ee7822" d="M17.756.625c-.059 0-.1.005-.116.02-.026.027-.026.132-.026.278V15.73c0 .063.003.126.008.204l.003.065.041-.015c.063-.023.115-.042.164-.064l4.884-2.185 1.62-.725c2.175-.975 4.35-1.95 6.528-2.918.09-.04.139-.078.153-.12.013-.039-.002-.096-.046-.182a31.46 31.46 0 0 1-.313-.625 23.822 23.822 0 0 0-.402-.794 14.828 14.828 0 0 0-4.647-5.232C23.386 1.6 20.865.78 17.9.63a2.82 2.82 0 0 0-.145-.005zm-.242 15.548l-.004-.085a6.728 6.728 0 0 0-.007-.147 3.964 3.964 0 0 1-.008-.21V.922c0-.203 0-.305.063-.368.064-.064.165-.059.35-.05 2.984.15 5.524.977 7.764 2.53 1.958 1.357 3.534 3.131 4.686 5.275.14.262.274.534.404.797.102.208.204.417.311.623.062.12.079.208.054.284-.026.078-.093.138-.22.194-2.177.968-4.352 1.943-6.527 2.917l-1.62.725c-1.627.73-3.255 1.458-4.883 2.186a2.7 2.7 0 0 1-.173.067 3.851 3.851 0 0 0-.114.042l-.076.028zm0-16.047c-.143 0-.228.013-.27.056-.054.056-.063.185-.063.44v15.636c0 .186.027.296.083.335.056.038.159.023.315-.047l6.192-2.767c2.52-1.127 5.042-2.254 7.561-3.382.185-.083.266-.14.287-.205.021-.064-.007-.161-.097-.337a81.19 81.19 0 0 1-.34-.676c-.314-.63-.638-1.281-1.004-1.889a14.764 14.764 0 0 0-5.5-5.307C22.594.817 20.291.21 17.634.128a3.623 3.623 0 0 0-.12-.002zm-.174 16.613a.239.239 0 0 1-.142-.041c-.094-.067-.136-.202-.136-.44V.621c0-.266.007-.434.1-.529.084-.086.214-.099.477-.09 2.675.084 4.995.695 7.094 1.87 2.322 1.3 4.188 3.101 5.545 5.35.369.612.695 1.266 1.01 1.899.112.225.224.45.338.674.094.183.144.32.105.438-.04.12-.16.193-.352.28l-7.562 3.382-6.191 2.766a.733.733 0 0 1-.286.078zM2.163 32.104c-.003-.37-.268-.648-.616-.648s-.616.282-.618.648c-.003.385.27.67.63.66.352-.009.607-.287.604-.66m-.629 1.13c-.594-.006-1.06-.512-1.05-1.14.008-.613.481-1.108 1.06-1.109.592 0 1.066.504 1.061 1.132-.004.635-.47 1.122-1.07 1.116"/>
        <path fill="#ee7822" d="M1.547 31.518c-.316 0-.556.253-.558.587a.611.611 0 0 0 .162.434.56.56 0 0 0 .407.162c.318-.008.548-.259.545-.597-.002-.334-.241-.586-.556-.586zm-.006 1.309a.648.648 0 0 1-.473-.198.742.742 0 0 1-.198-.525c.003-.405.293-.71.677-.711.382 0 .672.305.675.71.003.41-.275.714-.662.724h-.019zm.006-1.779h-.003c-.544.001-.993.47-1.001 1.046-.004.288.096.559.284.761a.969.969 0 0 0 .708.316h.01c.27 0 .52-.106.706-.3a1.09 1.09 0 0 0 .295-.755 1.088 1.088 0 0 0-.292-.758.964.964 0 0 0-.707-.31zm-.003 2.248h-.01a1.083 1.083 0 0 1-.792-.353 1.218 1.218 0 0 1-.318-.85c.01-.645.512-1.17 1.12-1.17h.003c.3 0 .582.123.791.346.213.226.329.527.327.848a1.22 1.22 0 0 1-.33.844 1.086 1.086 0 0 1-.79.335zM32.94.823h1.84c.156 0 .314.006.316.23 0 .223-.15.272-.322.273-1.235.002-2.47.003-3.704.002-.17 0-.336-.044-.335-.261.002-.223.169-.246.34-.245.622.003 1.243.001 1.865.001"/>
        <path fill="#ee7822" d="M31.066.885c-.204 0-.27.045-.271.182 0 .059.013.102.041.133.042.044.118.065.234.065 1.234 0 2.47 0 3.704-.002.107 0 .178-.021.218-.063.03-.032.044-.08.044-.146 0-.153-.079-.168-.257-.168h-2.347c-.452.002-.905 0-1.357 0h-.009zm.641.506h-.637c-.15 0-.253-.034-.318-.103a.31.31 0 0 1-.076-.222c.002-.309.285-.305.4-.306.451.001.903.002 1.355 0H34.78c.139 0 .373 0 .375.293 0 .1-.026.179-.079.236-.063.067-.16.099-.302.1l-3.067.002zM10.225 39.338c.623 0 1.244.002 1.867-.002.166-.001.312.025.31.238-.001.198-.14.268-.305.268-1.252.002-2.505.002-3.758-.002-.16 0-.306-.056-.298-.266.008-.213.156-.238.318-.237.622.002 1.244 0 1.866 0"/>
        <path fill="#ee7822" d="M8.355 39.4c-.188 0-.25.043-.255.176-.002.062.01.108.04.14.036.04.104.06.2.061 1.252.004 2.505.004 3.758.002.244 0 .245-.155.245-.205 0-.058-.011-.099-.036-.124-.043-.046-.132-.053-.215-.051-.458.003-.917.002-1.376.002H9.76l-1.4-.001h-.004zm2.186.506c-.734 0-1.468 0-2.202-.003-.13 0-.225-.034-.285-.101a.313.313 0 0 1-.072-.23c.011-.288.25-.298.365-.298h.012c.467.002.933.001 1.4.001h.958c.457 0 .916.001 1.374-.002h.01c.109 0 .218.012.29.088.048.05.071.122.07.214 0 .209-.134.33-.363.33l-1.557.001zM32.95 35.177c.605 0 1.21.003 1.814-.002.181 0 .366.017.36.252-.004.2-.174.252-.347.252h-3.681c-.172 0-.332-.033-.327-.261.005-.23.174-.242.34-.241h1.841"/>
        <path fill="#ee7822" d="M32.323 35.616h2.454c.284 0 .287-.144.288-.19.002-.059-.01-.1-.036-.128-.05-.054-.154-.059-.264-.06-.432.003-.864.002-1.296.002H31.104c-.192 0-.272.025-.276.18-.001.062.011.106.039.136.049.053.148.06.229.06h1.227zm2.454.126h-3.681c-.104 0-.234-.011-.315-.098a.312.312 0 0 1-.071-.227c.007-.304.258-.306.4-.303h2.359c.432.001.863.002 1.295-.002.122.002.265.007.35.098a.299.299 0 0 1 .07.218c-.003.117-.06.314-.407.314zM36.975 16.803v-1.805c-.002-.182.025-.355.238-.35.208.005.236.18.236.36v3.581c0 .182-.04.354-.246.352-.213-.003-.23-.181-.23-.361.003-.592.002-1.184.002-1.777"/>
        <path fill="#ee7822" d="M37.204 14.71c-.052 0-.09.013-.115.04-.05.052-.056.16-.055.248v3.583c-.002.226.038.296.17.297h.003c.054 0 .095-.015.123-.044.04-.043.06-.123.06-.245v-3.581c0-.216-.047-.294-.178-.297h-.008zm.003 4.293h-.004c-.29-.003-.29-.287-.289-.424.002-.426.002-.852.002-1.278v-1.013l-.001-1.29c0-.12.01-.254.09-.338.05-.052.115-.072.21-.075.293.007.293.309.293.423l.001 3.581c0 .1-.01.244-.096.335a.273.273 0 0 1-.206.08zM.1 5.832c0-.592.002-1.184 0-1.776-.002-.185.026-.354.239-.347.204.006.239.173.239.358C.575 5.242.576 6.417.576 7.59c0 .028.003.056 0 .083-.013.163-.07.298-.248.292-.175-.006-.23-.128-.23-.303.005-.61.002-1.22.002-1.831"/>
        <path fill="#ee7822" d="M.326 3.771c-.05 0-.088.012-.113.038-.05.052-.055.159-.055.246.003.426.002.852.002 1.277v1.016c0 .439.001.877-.002 1.316-.001.205.082.236.172.24.094-.002.17-.024.187-.235a.358.358 0 0 0 0-.045V6.71l.001-2.643c0-.211-.049-.291-.181-.296h-.01zM.34 8.03H.326C.194 8.025.038 7.958.04 7.663c.002-.438.002-.876.001-1.315V5.332L.04 4.056c0-.12.01-.253.09-.336.05-.053.122-.074.21-.074.298.01.297.308.297.42C.635 4.949.635 5.83.635 6.71v.909a.51.51 0 0 1 0 .06c-.023.287-.17.35-.296.35zM7.073 37.898c.429 0 .857.003 1.285-.001.169-.002.312.048.313.246.002.196-.142.258-.309.258h-2.57c-.167-.001-.305-.076-.3-.27.005-.178.134-.236.296-.234.429.004.857.001 1.285.001"/>
        <path fill="#ee7822" d="M5.78 37.96c-.224 0-.227.125-.228.174-.002.059.012.103.043.137.04.043.11.066.198.067h2.57c.066 0 .156-.011.207-.064.028-.031.042-.074.041-.13 0-.092-.037-.127-.065-.145a.346.346 0 0 0-.187-.04c-.31.004-.62.002-.929.002h-.724c-.307 0-.613.001-.918-.002H5.78zm1.297.505c-.428 0-.856 0-1.285-.002-.122 0-.22-.036-.283-.105a.31.31 0 0 1-.076-.228c.005-.191.133-.298.356-.296.306.004.611.002.917.002h.724c.31 0 .618.001.928-.002h.007c.104 0 .184.02.244.058.055.036.12.108.121.25a.304.304 0 0 1-.076.22c-.064.068-.162.102-.292.102H7.077zM36.069 37.077c-.42 0-.84-.002-1.259.001-.165.002-.31-.033-.314-.24-.004-.207.138-.26.302-.26.856-.003 1.713-.005 2.57-.002.16 0 .307.055.301.263-.006.208-.15.241-.315.24-.428-.004-.857-.002-1.285-.002"/>
        <path fill="#ee7822" d="M36.803 37.014c.183 0 .367 0 .552.002h.009c.178 0 .242-.048.246-.18.002-.06-.011-.104-.04-.134-.037-.042-.106-.063-.202-.063-.857-.003-1.713 0-2.57.001-.097 0-.166.021-.203.062-.028.03-.04.073-.04.134.003.132.068.18.245.18h.01c.3-.003.6-.002.9-.002h1.093zm.57.127h-.02c-.305-.002-.61 0-.917-.001h-.727c-.3 0-.599-.001-.898.001-.101-.002-.368.004-.374-.302a.308.308 0 0 1 .073-.225c.062-.066.155-.099.288-.099.857-.003 1.714-.004 2.57-.002.13.001.226.035.288.101.05.056.075.132.073.227-.009.286-.245.3-.356.3zM36.092 2.261h1.262c.158 0 .317.023.315.238-.002.202-.153.258-.31.26-.86.004-1.719.004-2.577.001-.153 0-.287-.057-.286-.249.001-.209.142-.25.308-.25h1.288"/>
        <path fill="#ee7822" d="M34.802 2.323c-.204 0-.246.073-.247.188 0 .057.013.098.04.128.046.048.127.059.187.059.94.003 1.781.002 2.576-.002.25-.002.25-.144.251-.197 0-.056-.01-.095-.035-.122-.045-.047-.136-.053-.22-.053H34.802zm1.105.502c-.36 0-.734 0-1.125-.002-.12 0-.21-.033-.27-.096a.303.303 0 0 1-.075-.217c.001-.313.284-.312.367-.312h2.55c.114 0 .23.01.304.092.047.05.071.12.07.21-.002.203-.136.32-.37.321-.464.003-.944.004-1.45.004zM36.805 1.323c-.192 0-.385.002-.577-.001-.156-.003-.284-.07-.285-.251-.002-.183.121-.248.283-.248.392.002.785.001 1.178 0 .147 0 .264.044.268.226.005.187-.109.264-.265.271-.2.01-.402.002-.602.003"/>
        <path fill="#ee7822" d="M36.824 1.26l.345.002a5.2 5.2 0 0 0 .235-.005c.192-.008.211-.122.209-.206-.002-.102-.039-.165-.209-.165-.393.002-.786.002-1.179 0-.06 0-.138.01-.183.057-.027.03-.04.071-.04.127 0 .046 0 .185.227.189.136.002.27.002.406.001h.189zm.345.128c-.116 0-.23-.003-.345-.003h-.189c-.135 0-.271.002-.408 0-.217-.004-.343-.118-.344-.314a.3.3 0 0 1 .076-.216c.058-.063.148-.094.265-.094h1.18c.213 0 .323.096.328.286.005.203-.112.326-.323.336-.08.003-.16.005-.24.005zM36.836 35.64c-.2 0-.404.02-.6-.01-.094-.015-.175-.128-.262-.196.074-.096.144-.268.223-.273a10.47 10.47 0 0 1 1.28-.003c.08.005.153.157.229.242-.08.08-.153.21-.244.226-.203.034-.417.01-.626.01v.003z"/>
        <path fill="#ee7822" d="M36.055 35.423l.04.037c.05.05.103.1.15.108.134.022.276.016.414.012.04 0 .079-.002.118-.003v-.003h.06c.06 0 .122.002.183.004.145.005.294.01.433-.014.04-.006.088-.065.134-.12.013-.016.025-.032.039-.047a1.335 1.335 0 0 1-.039-.053c-.034-.049-.087-.122-.114-.124a10.53 10.53 0 0 0-1.272.003c-.025.001-.081.094-.108.139l-.038.06m.43.287a1.71 1.71 0 0 1-.258-.017c-.083-.013-.149-.077-.213-.14a.874.874 0 0 0-.076-.068l-.05-.04.04-.05c.022-.029.044-.065.065-.1.06-.098.116-.191.2-.196.411-.026.844-.027 1.287-.003.083.005.143.09.202.174.023.031.044.063.067.088l.042.046-.045.043a.85.85 0 0 0-.069.08c-.06.073-.122.148-.206.162-.15.025-.305.02-.455.016a5.632 5.632 0 0 0-.13-.004l-.05.002-.174.003a5.162 5.162 0 0 1-.177.004M6.378 39.338c.192 0 .39-.027.575.011.1.02.177.153.264.235-.086.084-.168.236-.259.242a9.3 9.3 0 0 1-1.206-.001c-.093-.006-.24-.145-.254-.241-.025-.171.112-.25.276-.247.202.004.403.001.604.001"/>
        <g transform="translate(5.225 38.904)">
            <mask id="b" fill="#fff">
                <use xlink:href="#a"/>
            </mask>
            <path fill="#ee7822" d="M.542.496C.458.496.39.519.356.56.333.59.326.624.332.67c.01.066.134.184.199.188.395.027.798.026 1.198.001.037-.002.093-.072.137-.127.014-.017.028-.035.043-.05a1.177 1.177 0 0 1-.04-.046c-.05-.058-.103-.119-.152-.13-.124-.025-.255-.019-.392-.014-.057.002-.115.005-.172.005H.976C.833.497.691.498.55.496H.542zm.594.508c-.206 0-.41-.007-.613-.02C.403.975.233.813.215.69A.26.26 0 0 1 .266.479C.324.409.422.37.542.37H.55c.142.003.284.002.426.002h.177c.056 0 .111-.003.167-.005.138-.007.282-.012.42.017.087.018.153.094.217.167.024.03.05.058.075.081L2.08.68l-.048.047c-.025.025-.05.056-.075.088-.066.08-.133.164-.22.17-.2.013-.4.02-.601.02z" mask="url(#b)"/>
        </g>
        <path fill="#ee7822" d="M.534 9.572c0 .203.024.412-.01.61-.017.097-.138.174-.213.26-.081-.08-.228-.156-.233-.242a9.97 9.97 0 0 1 0-1.221c.005-.087.15-.166.23-.248.075.086.198.162.216.26.035.187.01.386.01.581"/>
        <g transform="translate(0 8.296)">
            <mask id="d" fill="#fff">
                <use xlink:href="#c"/>
            </mask>
            <path fill="#ee7822" d="M.306.52a1.435 1.435 0 0 1-.05.042C.208.599.138.656.135.687A10.03 10.03 0 0 0 .138 1.9c.002.03.073.084.12.12l.05.041.044-.04c.052-.05.107-.101.115-.147.022-.134.018-.272.013-.419a4.508 4.508 0 0 1 0-.353C.484.963.489.832.466.707.457.66.402.61.348.56A1.66 1.66 0 0 1 .306.52zm.01 1.716L.27 2.192a1.014 1.014 0 0 0-.085-.071c-.08-.062-.162-.126-.167-.213a10.102 10.102 0 0 1 0-1.23C.024.592.105.526.183.463.213.438.243.415.267.39L.31.345l.042.047C.373.418.4.442.426.466c.07.063.14.128.156.216.026.14.02.285.016.425a4.017 4.017 0 0 0 0 .344c.004.146.01.298-.016.445-.014.089-.085.154-.152.218-.027.025-.053.05-.075.075l-.04.047z" mask="url(#d)"/>
        </g>
        <path fill="#ee7822" d="M37.466 20.559c0 .202.021.41-.01.607-.012.09-.136.232-.195.225-.093-.012-.243-.126-.248-.205-.025-.413-.025-.83-.001-1.244.005-.082.149-.202.24-.214.061-.009.19.133.204.222.03.199.009.405.009.609h.001z"/>
        <path fill="#ee7822" d="M37.257 19.79c-.073.01-.183.116-.186.156-.024.41-.023.826.001 1.236.003.037.12.137.195.146.03-.006.122-.11.131-.171.021-.135.017-.273.012-.42l-.002-.116h-.002v-.063c0-.06.002-.119.003-.179.005-.146.009-.284-.012-.418-.01-.061-.107-.166-.14-.171m.008 1.663h-.011c-.108-.014-.292-.142-.3-.263a10.593 10.593 0 0 1-.001-1.252c.007-.125.187-.258.292-.273.107-.011.252.169.269.275.023.147.019.298.014.443l-.003.128v.047c0 .058.002.117.004.176.004.145.01.296-.014.442-.015.103-.147.277-.25.277M33.072 37.074c-.14 0-.287.028-.418-.009-.09-.024-.228-.145-.221-.206.012-.099.12-.254.198-.262.303-.03.612-.032.916-.002.081.008.15.164.223.253-.084.075-.158.193-.254.218-.14.039-.296.01-.444.01v-.002z"/>
        <path fill="#ee7822" d="M33.13 37.015c.027 0 .053.002.08.004a.914.914 0 0 0 .29-.013c.05-.014.1-.067.151-.123l.039-.042c-.013-.017-.025-.036-.037-.054-.033-.05-.083-.127-.111-.13-.3-.03-.604-.029-.905.002-.043.005-.136.128-.145.208.007.027.107.119.177.138.082.023.175.017.272.012.044-.003.087-.005.13-.005l.06.003zm.21.134a2.51 2.51 0 0 1-.137-.005 2.306 2.306 0 0 0-.131-.005h-.06l-.064.003a.983.983 0 0 1-.31-.015c-.096-.027-.278-.165-.264-.276.014-.113.134-.304.251-.316.31-.032.621-.033.928-.002.082.008.141.096.198.182.02.033.042.065.064.091l.04.048-.046.041a1.038 1.038 0 0 0-.072.075c-.061.066-.124.136-.207.158a.732.732 0 0 1-.19.021zM33.095 2.265c.148 0 .302-.026.442.01.089.022.2.126.219.214.013.064-.101.227-.166.231a7.154 7.154 0 0 1-1.01.003c-.06-.004-.157-.162-.15-.24.009-.079.117-.188.197-.206.15-.033.311-.01.468-.01v-.002z"/>
        <path fill="#ee7822" d="M32.818 2.322a.88.88 0 0 0-.18.016c-.06.014-.144.105-.148.15-.005.046.065.161.097.174.332.021.67.02 1-.005.032-.008.111-.118.11-.157-.013-.06-.104-.147-.174-.165-.09-.023-.188-.017-.293-.012l-.076.004v.003h-.059c-.047 0-.094-.002-.14-.004-.047-.002-.092-.004-.137-.004m.248.48c-.162 0-.327-.006-.49-.016-.038-.003-.076-.029-.114-.077-.05-.06-.098-.16-.09-.233.01-.112.144-.238.242-.26.114-.025.232-.02.345-.015l.09.003.046-.002c.043 0 .086-.002.13-.004.107-.006.22-.012.326.016.103.026.237.143.262.26.015.068-.033.148-.063.19-.023.034-.087.114-.156.119-.174.012-.35.019-.528.019M10.083 37.902c.149 0 .304-.027.444.01.084.023.198.148.199.227 0 .084-.114.234-.187.24-.312.028-.63.028-.941 0-.073-.006-.199-.171-.186-.238.018-.093.134-.205.227-.231.139-.04.295-.01.444-.01v.002z"/>
        <path fill="#ee7822" d="M9.814 37.952a.59.59 0 0 0-.16.018c-.074.021-.17.118-.183.184 0 .039.094.158.131.163.308.027.622.027.933 0 .037-.003.132-.122.131-.177 0-.044-.09-.15-.154-.166-.09-.025-.188-.02-.293-.014-.046.002-.091.005-.136.005l-.06-.004a4.256 4.256 0 0 1-.077-.004c-.046-.003-.09-.005-.132-.005m.256.51c-.16 0-.32-.006-.477-.02-.081-.007-.157-.105-.179-.136-.034-.048-.072-.118-.06-.177.024-.124.163-.25.27-.28a.985.985 0 0 1 .328-.017c.044.002.088.005.13.005h.06c.024 0 .047 0 .07-.002.11-.005.223-.012.33.017.105.028.242.173.243.287 0 .11-.13.294-.241.304a5.73 5.73 0 0 1-.474.02M3.561.297c.08.042.143.06.185.101.165.166.34.325.476.516.053.075.009.226.01.342-.102-.007-.23.025-.3-.03a3.477 3.477 0 0 1-.496-.492.359.359 0 0 1-.055-.272c.016-.067.117-.11.18-.165"/>
        <path fill="#ee7822" d="M3.568.37l-.04.028c-.036.024-.084.057-.09.08a.293.293 0 0 0 .043.215c.168.2.327.358.487.483.03.025.1.021.161.019l.046-.002.006-.06c.007-.07.016-.15-.006-.182A3.197 3.197 0 0 0 3.8.538L3.705.443c-.02-.02-.052-.034-.092-.052L3.568.37zm.723.952l-.063-.003c-.03-.003-.062 0-.094.001-.084.003-.172.008-.237-.043a3.477 3.477 0 0 1-.505-.501.424.424 0 0 1-.068-.33c.016-.07.08-.112.139-.153a.798.798 0 0 0 .06-.044l.03-.026.035.018c.026.014.05.025.072.035.049.022.091.041.126.077l.095.092a3.3 3.3 0 0 1 .389.43c.05.072.04.174.029.272-.004.037-.009.075-.009.11v.065zM35.969 8.412c-.001.2-.193.32-.332.201a4.535 4.535 0 0 1-.565-.568c-.047-.057-.035-.22.01-.293.036-.056.204-.096.245-.06.216.196.411.418.611.633.022.024.025.068.03.087"/>
        <path fill="#ee7822" d="M35.274 7.738c-.039 0-.125.026-.142.05-.035.055-.04.186-.015.216.162.197.35.386.557.56a.127.127 0 0 0 .14.02.187.187 0 0 0 .095-.165l-.003-.014a.145.145 0 0 0-.01-.036l-.105-.114c-.161-.174-.327-.355-.503-.515a.05.05 0 0 0-.014-.002m.485.985a.244.244 0 0 1-.159-.06 4.638 4.638 0 0 1-.573-.577c-.067-.081-.053-.274.006-.368.035-.057.125-.089.192-.098.064-.01.111-.001.14.025.18.163.349.346.511.522l.105.114c.028.031.036.071.041.097l.006.034a.312.312 0 0 1-.162.285.237.237 0 0 1-.107.026M5.737 3.018c-.067-.028-.116-.034-.145-.063-.186-.179-.382-.35-.542-.554-.05-.065-.033-.247.02-.327.03-.048.222-.045.287.009.183.152.347.334.498.523.048.061.058.187.039.272-.014.059-.106.098-.157.14"/>
        <path fill="#ee7822" d="M5.189 2.103c-.034 0-.064.004-.075.012-.039.06-.046.21-.017.247.121.156.27.296.413.431l.122.116a.17.17 0 0 0 .059.025l.037.014a.35.35 0 0 1 .032-.021c.023-.016.072-.047.076-.064.017-.076.004-.178-.027-.217a3.494 3.494 0 0 0-.489-.514c-.024-.02-.082-.03-.131-.03zm.558.986l-.032-.013c-.022-.01-.042-.016-.06-.022-.04-.013-.074-.024-.103-.053l-.121-.114c-.147-.139-.299-.282-.427-.446-.07-.09-.05-.301.017-.403.019-.03.054-.048.107-.056.081-.013.204 0 .266.052.164.137.33.31.506.531.064.08.074.226.051.328-.015.066-.075.105-.13.14-.016.012-.033.022-.047.034l-.027.022zM3.577 3.008c-.042-.03-.132-.062-.157-.123-.028-.071-.032-.198.009-.249.171-.207.356-.404.555-.58.05-.046.199-.037.254.01.056.048.1.218.066.258-.192.234-.408.446-.618.663-.015.015-.05.01-.109.021"/>
        <path fill="#ee7822" d="M4.092 2.089c-.031 0-.059.005-.07.014a5.272 5.272 0 0 0-.548.574c-.02.025-.024.122.001.183.01.024.053.048.085.066l.03.017.038-.004.027-.004.106-.112c.169-.172.343-.35.498-.54.005-.021-.025-.14-.059-.167-.02-.018-.067-.027-.108-.027zm-.529.986l-.02-.015a.39.39 0 0 0-.038-.023c-.05-.028-.113-.063-.14-.128-.032-.081-.044-.236.02-.314a5.34 5.34 0 0 1 .56-.588c.078-.068.258-.052.33.01.056.047.093.156.099.234.005.05-.004.089-.025.115-.159.193-.335.373-.506.547l-.115.119c-.025.025-.056.029-.09.031a.77.77 0 0 0-.05.007l-.025.005zM33.663 5.953c.076.044.146.068.193.115.159.158.328.311.455.494.052.073.007.22.006.335-.108-.004-.248.037-.318-.019a3.067 3.067 0 0 1-.48-.506c-.05-.062-.056-.19-.034-.276.016-.058.112-.093.178-.143"/>
        <path fill="#ee7822" d="M33.667 6.025c-.014.01-.028.018-.043.026-.027.016-.077.047-.081.062-.02.075-.01.18.021.219.167.214.316.372.47.496.03.024.105.017.17.012l.057-.005.007-.059c.008-.069.017-.146-.005-.176a2.963 2.963 0 0 0-.367-.407l-.08-.08c-.025-.024-.062-.043-.106-.065l-.043-.023m.448.946a.236.236 0 0 1-.151-.043 3.083 3.083 0 0 1-.492-.516c-.063-.082-.07-.232-.044-.332.017-.065.079-.102.138-.138.021-.013.044-.026.063-.04l.03-.023.033.019c.024.013.047.026.07.037.05.025.097.049.135.087l.08.079c.134.131.272.267.382.424.05.07.038.17.026.266-.004.037-.008.073-.008.106v.064l-.061-.002a1.03 1.03 0 0 0-.102.006 1.098 1.098 0 0 1-.1.006M23.934 38.897c-.034.053-.065.15-.123.174-.068.028-.185.024-.236-.023a4.358 4.358 0 0 1-.514-.55c-.047-.062-.047-.23 0-.288.05-.06.225-.1.27-.059.204.196.383.423.569.64.016.02.017.053.034.106"/>
        <path fill="#ee7822" d="M23.27 38.195c-.046 0-.14.026-.164.056-.026.031-.03.167.002.207.134.176.3.353.506.542.03.028.122.034.175.013.021-.01.046-.057.064-.092a.494.494 0 0 1 .016-.032l-.006-.027a.187.187 0 0 0-.009-.03l-.123-.146c-.14-.166-.284-.338-.441-.488a.051.051 0 0 0-.02-.003m.442.956a.267.267 0 0 1-.176-.055 4.427 4.427 0 0 1-.521-.558c-.065-.085-.065-.29 0-.37.047-.056.152-.09.23-.096.054-.004.098.008.124.032.162.155.309.33.451.5l.124.146c.02.024.027.052.034.081l.013.047.01.03-.018.025a.545.545 0 0 0-.026.047c-.028.055-.063.123-.124.149a.318.318 0 0 1-.121.022M5.225 1.315c-.188-.005-.318-.187-.218-.323.174-.236.386-.444.6-.642.044-.04.193-.003.253.05.047.04.074.198.04.239-.187.227-.394.435-.597.646-.022.023-.064.025-.078.03"/>
        <path fill="#ee7822" d="M5.667.396A.052.052 0 0 0 5.644.4c-.19.174-.41.387-.59.63a.105.105 0 0 0-.012.112.203.203 0 0 0 .177.11l.011-.002c.008-.002.026-.005.032-.01l.09-.094c.17-.175.346-.357.503-.548.01-.025-.01-.13-.032-.15a.294.294 0 0 0-.156-.052zm-.443.982a.323.323 0 0 1-.29-.182.236.236 0 0 1 .026-.243c.187-.252.412-.47.609-.65.077-.07.262-.01.329.048.048.042.07.13.076.194.004.06-.006.107-.03.135-.16.195-.337.378-.509.556l-.09.094c-.03.031-.07.038-.094.043l-.027.005zM21.588 36.396c.071.045.139.072.186.12.149.156.29.32.434.48.105.118.138.268.008.356-.071.049-.24.023-.314-.037a2.858 2.858 0 0 1-.46-.49c-.048-.062-.054-.19-.033-.273.017-.062.11-.1.179-.156"/>
        <path fill="#ee7822" d="M21.591 36.47l-.04.028c-.034.022-.079.052-.084.071-.02.074-.01.177.021.216.156.204.303.361.45.48.057.047.199.066.246.035.034-.024.053-.051.057-.086.005-.05-.023-.115-.076-.175l-.11-.124c-.107-.12-.212-.239-.323-.354a.45.45 0 0 0-.104-.07l-.037-.02m.517.97a.408.408 0 0 1-.243-.077 2.915 2.915 0 0 1-.469-.5c-.063-.081-.07-.23-.044-.328.018-.066.078-.106.135-.144.022-.015.044-.03.064-.046l.032-.026.035.022a.995.995 0 0 0 .065.037c.048.028.094.054.132.093.112.116.219.237.326.358l.11.123c.08.089.118.187.107.277a.241.241 0 0 1-.11.175.247.247 0 0 1-.14.036M22.32 38.349c-.045.075-.072.145-.119.196-.143.16-.281.331-.447.462-.074.058-.209.03-.316.04.001-.116-.04-.268.013-.342.143-.194.32-.364.499-.525.053-.047.17-.057.237-.03.057.023.086.125.133.199"/>
        <path fill="#ee7822" d="M21.507 38.982h.073c.057 0 .11-.003.139-.025.128-.102.243-.233.355-.36l.085-.096a.555.555 0 0 0 .069-.11l.022-.042a1.936 1.936 0 0 1-.023-.046c-.018-.036-.043-.087-.061-.094-.051-.02-.144-.01-.178.02a3.511 3.511 0 0 0-.49.514c-.022.032-.015.112-.008.182l.005.057h.012zm-.13.135l.001-.07a.988.988 0 0 0-.007-.11c-.009-.098-.018-.2.033-.27.152-.207.342-.386.508-.534.072-.065.214-.073.296-.042.06.025.093.09.124.155.012.023.024.047.037.069l.021.033-.02.035a1.563 1.563 0 0 0-.039.07c-.026.048-.05.095-.086.135l-.084.094a2.901 2.901 0 0 1-.372.375c-.066.053-.157.052-.246.05-.034 0-.068 0-.1.003l-.066.007zM23.706 36.42c.168 0 .283.225.172.366a4.666 4.666 0 0 1-.551.585c-.049.042-.193.023-.255-.023-.049-.036-.08-.198-.047-.238.193-.234.407-.449.615-.668.016-.017.048-.017.066-.023"/>
        <path fill="#ee7822" d="M23.712 36.482l-.013.003a.095.095 0 0 0-.02.005l-.11.115c-.168.176-.342.357-.5.546-.006.024.016.127.038.146.047.036.16.044.181.026.208-.188.392-.382.544-.577a.154.154 0 0 0 .014-.161.164.164 0 0 0-.134-.103m-.475.975a.364.364 0 0 1-.2-.058c-.049-.036-.075-.125-.082-.19-.007-.063.001-.11.025-.14.16-.194.336-.376.505-.553l.113-.118c.025-.026.058-.032.08-.036l.028-.005a.28.28 0 0 1 .248.175c.045.1.033.213-.03.294-.158.201-.345.4-.559.592a.193.193 0 0 1-.128.039M35.232 6.975c-.042-.032-.127-.066-.155-.128-.027-.062-.028-.18.01-.226.172-.207.354-.41.552-.589.049-.044.193-.024.257.023.047.034.076.198.042.24-.187.228-.395.437-.598.65-.016.017-.05.015-.108.03"/>
        <path fill="#ee7822" d="M35.726 6.07c-.023 0-.041.003-.049.01a5.485 5.485 0 0 0-.545.583c-.018.022-.022.11-.001.157.012.027.053.053.087.073a.39.39 0 0 1 .025.015l.035-.007a.713.713 0 0 0 .027-.005l.105-.113c.164-.17.332-.345.483-.53.01-.024-.01-.127-.032-.147a.251.251 0 0 0-.135-.036zm-.506.973l-.022-.017-.039-.025c-.048-.028-.108-.064-.136-.127-.032-.073-.04-.22.02-.294.203-.246.38-.435.557-.595.078-.071.254-.038.33.018.06.045.077.16.08.183.005.047.005.11-.027.15a9.33 9.33 0 0 1-.49.537l-.11.117c-.024.024-.054.03-.085.035l-.05.011-.028.007zM34.385 7.927c-.038.075-.055.14-.095.185-.15.168-.295.345-.467.486-.069.057-.2.03-.302.041-.001-.117-.048-.27.005-.343.141-.197.318-.37.497-.531.052-.048.169-.056.237-.03.056.023.084.123.125.192"/>
        <path fill="#ee7822" d="M33.6 8.573h.048c.057 0 .111-.002.139-.025.137-.113.262-.255.382-.39l.078-.09a.369.369 0 0 0 .051-.095c.006-.014.012-.029.02-.044a.734.734 0 0 1-.022-.044c-.016-.033-.04-.084-.056-.09-.053-.021-.146-.012-.178.017-.17.154-.347.324-.489.522-.022.03-.011.113-.003.18l.007.06h.022zm-.137.136l-.001-.069c0-.034-.005-.072-.01-.11-.012-.099-.024-.2.027-.272.148-.207.33-.383.506-.541.072-.065.211-.073.296-.04.06.024.091.089.121.152.01.022.021.044.033.064l.018.03-.015.033a.792.792 0 0 0-.032.069c-.02.048-.04.093-.073.13l-.077.088c-.124.14-.25.285-.396.404-.064.052-.153.052-.237.052-.034 0-.065-.001-.096.002l-.064.008zM28.016 25.573c-1.727 0-3.454 0-5.181-.002-.094 0-.208.005-.275-.047a.312.312 0 0 1-.096-.255c.015-.075.115-.169.19-.182.162-.029.331-.014.497-.014h9.704c.158 0 .324-.033.47.009.102.028.235.148.251.247.029.177-.11.245-.274.245-.78-.002-1.56 0-2.34 0h-2.946z"/>
        <path fill="#ee7822" d="M32.366 25.51l.936.001h.002c.09 0 .16-.023.193-.064.021-.027.028-.062.02-.108-.01-.068-.121-.173-.207-.197a.904.904 0 0 0-.304-.013c-.05.003-.101.007-.15.007H23.15l-.13-.002c-.124-.003-.243-.006-.357.014-.052.01-.132.086-.142.134-.01.052.03.157.073.192.046.035.14.034.22.035h.02c1.48.002 2.96.002 4.44.002h5.091zm.938.127h-.002l-1.639-.001h-4.387c-1.48 0-2.96 0-4.44-.002h-.021c-.102-.002-.212 0-.29-.06a.375.375 0 0 1-.12-.319.344.344 0 0 1 .239-.23c.126-.023.256-.02.38-.017l.127.002h9.704c.047 0 .096-.003.144-.006.113-.007.231-.015.342.016.118.035.273.171.293.297a.257.257 0 0 1-.046.211c-.072.09-.194.109-.284.109zM28.002 27.855H22.9c-.088 0-.186.02-.26-.016-.075-.036-.174-.128-.175-.197-.001-.086.073-.193.143-.253.052-.046.15-.043.227-.043 3.428.001 6.856.005 10.284.01.195 0 .458-.053.457.263-.002.308-.265.233-.445.234-1.71.004-3.419.002-5.129.002"/>
        <path fill="#ee7822" d="M22.822 27.408c-.07 0-.145.002-.176.03-.07.059-.122.148-.121.203 0 .028.066.105.14.141.041.02.099.017.16.013l.075-.003H29.1c1.344 0 2.687.002 4.03-.002.031.005.062.002.095.004.097.004.2.011.25-.038.027-.026.04-.072.04-.138.001-.07-.014-.12-.043-.15-.055-.058-.167-.053-.278-.05l-.076.001c-3.428-.005-6.856-.009-10.284-.01h-.013zm-.066.515a.318.318 0 0 1-.14-.027c-.084-.04-.21-.149-.21-.254-.002-.109.081-.23.165-.302.066-.057.17-.057.253-.057 3.44.002 6.867.006 10.295.01h.073c.126-.005.272-.01.363.084.054.056.08.137.08.242 0 .1-.027.177-.078.229-.087.086-.22.078-.338.071l-.087-.003c-1.344.003-2.687.002-4.03.002H22.9a1.04 1.04 0 0 0-.068.003l-.076.002zM28.017 29.615h5.102c.08 0 .176-.027.233.011.092.062.198.158.22.257.012.057-.124.2-.21.219-.168.036-.348.013-.524.013l-9.915.005c-.104 0-.223.011-.308-.036-.074-.042-.157-.165-.15-.244.007-.079.11-.169.19-.214.061-.036.155-.011.233-.011h5.129"/>
        <path fill="#ee7822" d="M32.838 30.052c.05 0 .1.002.15.004.128.005.248.008.362-.015.058-.013.156-.116.163-.152-.013-.056-.086-.138-.193-.21-.024-.015-.077-.01-.124-.006-.026.002-.052.005-.077.005H22.888a.789.789 0 0 1-.075-.005c-.05-.004-.101-.008-.13.008-.083.047-.155.122-.159.164-.004.046.057.148.12.183.057.033.143.032.228.03h.05l7.438-.004 2.478-.002zm.296.133c-.05 0-.1-.002-.15-.004-.048-.001-.097-.003-.146-.003l-2.478.001-7.437.004h-.05c-.093.004-.201.004-.286-.044-.091-.052-.19-.196-.181-.305.012-.141.2-.252.22-.264.06-.033.132-.026.196-.022.022.002.045.004.066.004H33.12a.624.624 0 0 0 .067-.004c.065-.006.14-.013.197.025.08.054.218.163.246.297.007.032-.002.068-.028.11-.045.075-.146.166-.228.184-.078.016-.159.021-.24.021z"/>
    </g>
</svg>
