<svg xmlns="http://www.w3.org/2000/svg" xmlns:xlink="http://www.w3.org/1999/xlink" width="43" height="43" viewBox="0 0 43 43">
    <defs>
        <path id="a" d="M6.338 1.086H.026V.377h6.312z"/>
        <path id="c" d="M0 1.15V.454h4.573v.696H0z"/>
        <path id="e" d="M.897 2.84V.308H.225V2.84h.672z"/>
    </defs>
    <g fill="none" fill-rule="evenodd">
        <path fill="#ee7822" d="M10.659 30.428c.001-.583-.429-1.043-.979-1.045-.527-.003-.98.458-.987 1.008-.009.569.434 1.058.967 1.066.539.01.997-.462.999-1.029zm22.257-1.045c-.553.005-.997.472-.988 1.04.009.56.483 1.045 1.007 1.034.51-.01.977-.505.978-1.038 0-.567-.455-1.04-.997-1.036zm-1.501 1.292h-4.008c-.06 2.322 1.875 5.353 5.167 5.545 3.383.196 5.976-2.653 5.923-5.853-.061-3.653-3.072-6.16-6.318-5.73-2.555.34-5.136 3.291-4.743 5.51h3.978c.32-.941.974-1.415 1.742-1.274.737.134 1.244.774 1.244 1.567 0 .72-.504 1.366-1.168 1.506-.676.142-1.479-.132-1.817-1.27zM15.206 30.1c-.106-3.006-2.519-5.684-5.764-5.569-3.133.11-5.555 2.991-5.308 6.293.248 3.33 2.995 5.715 6.063 5.377 3.382-.373 5.028-3.479 4.992-5.6h-4.021c-.14.563-.44.977-.948 1.195-.748.322-1.621-.073-1.923-.863-.308-.802.054-1.724.797-2.032.82-.339 1.69.057 1.984.931.074.222.17.274.373.272 1.117-.01 2.234-.004 3.35-.004h.405zm.486.027h11.156c.138-2.065.99-3.716 2.58-4.915 1.272-.959 2.708-1.327 4.256-1.12 2.943.391 5.37 3.02 5.275 6.555-.088 3.23-2.464 5.847-5.54 6.118-3.393.299-6.338-2.331-6.57-6.048H15.704c-.152 2.077-1.015 3.746-2.638 4.94-1.217.897-2.592 1.273-4.064 1.099-3.252-.385-5.534-3.275-5.41-6.65.107-2.933 2.246-5.615 5.284-6.013 1.735-.228 3.303.246 4.65 1.437 1.348 1.189 2.035 2.74 2.167 4.597z"/>
        <path fill="#ee7822" d="M32.916 29.451a.91.91 0 0 0-.667.298.962.962 0 0 0-.256.674c.004.25.11.5.294.686.176.179.405.28.63.28h.017c.478-.01.914-.472.914-.97a.98.98 0 0 0-.273-.68.897.897 0 0 0-.653-.288h-.006zm.002 2.074c-.259 0-.52-.115-.72-.318a1.153 1.153 0 0 1-.334-.782 1.1 1.1 0 0 1 .293-.771c.2-.216.47-.336.758-.338h.007c.279 0 .542.115.744.326.2.21.311.487.31.778 0 .567-.495 1.094-1.04 1.105h-.018zM9.676 29.45c-.491 0-.911.43-.92.94-.007.533.407.99.904.998h.015a.887.887 0 0 0 .642-.28.976.976 0 0 0 .277-.68c.002-.547-.4-.976-.914-.978h-.004zm-.001 2.074h-.017c-.567-.01-1.039-.529-1.03-1.135.009-.584.488-1.075 1.048-1.075h.005c.586.003 1.044.492 1.042 1.113 0 .292-.113.568-.316.777-.2.207-.46.32-.732.32zm17.795-.782c-.016 2.112 1.768 5.215 5.108 5.41a5.37 5.37 0 0 0 4.187-1.62 5.83 5.83 0 0 0 1.668-4.166c-.029-1.684-.693-3.205-1.872-4.281a5.423 5.423 0 0 0-4.374-1.38c-1.39.184-2.908 1.196-3.865 2.578-.667.962-.961 1.952-.832 2.795h3.879c.336-.943 1.005-1.417 1.798-1.273.764.138 1.297.81 1.298 1.634 0 .75-.525 1.426-1.22 1.573-.672.14-1.515-.12-1.877-1.27H27.47zm5.434 5.554a6.26 6.26 0 0 1-.334-.01c-1.512-.087-2.892-.796-3.885-1.996-.872-1.052-1.374-2.405-1.343-3.618l.002-.066h4.118l.014.048c.413 1.39 1.439 1.29 1.743 1.225.637-.134 1.118-.754 1.117-1.44 0-.756-.49-1.373-1.191-1.5-.737-.135-1.362.325-1.67 1.23l-.016.044h-4.077l-.01-.055c-.157-.892.143-1.94.846-2.955.977-1.41 2.529-2.444 3.953-2.633a5.54 5.54 0 0 1 4.474 1.411c1.207 1.103 1.888 2.66 1.917 4.384a5.974 5.974 0 0 1-1.707 4.264 5.49 5.49 0 0 1-3.95 1.667zM9.634 24.596c-.063 0-.126 0-.19.003-1.49.052-2.861.731-3.863 1.912a5.928 5.928 0 0 0-1.383 4.308c.119 1.591.816 3.021 1.962 4.026a5.202 5.202 0 0 0 4.03 1.289c3.386-.374 4.935-3.455 4.935-5.464h-3.908c-.157.58-.484.98-.972 1.19-.376.16-.793.157-1.174-.014a1.579 1.579 0 0 1-.834-.887 1.722 1.722 0 0 1 .014-1.274c.16-.394.452-.695.82-.847a1.526 1.526 0 0 1 1.257.02c.378.182.666.52.81.952.066.195.139.223.313.226.83-.007 1.673-.007 2.49-.005h1.198c-.143-3.042-2.58-5.435-5.505-5.435zM9.613 36.3c-1.292 0-2.529-.47-3.535-1.352-1.174-1.028-1.887-2.491-2.008-4.12a6.068 6.068 0 0 1 1.415-4.409c1.026-1.208 2.43-1.904 3.955-1.957l.194-.003c3.016 0 5.526 2.488 5.637 5.637l.002.07H13.94a224.24 224.24 0 0 0-2.488.005h-.012c-.201 0-.335-.054-.423-.317a1.468 1.468 0 0 0-.743-.873 1.4 1.4 0 0 0-1.156-.017 1.385 1.385 0 0 0-.749.773c-.153.376-.158.79-.013 1.17.141.367.413.656.766.814.348.154.73.16 1.074.011.47-.201.767-.576.91-1.148l.012-.05h4.134l.001.066c.035 2.057-1.546 5.281-5.05 5.667a5.418 5.418 0 0 1-.59.033zm.092-12.196c-.27 0-.543.02-.822.055-2.87.377-5.117 2.934-5.228 5.949-.123 3.376 2.178 6.204 5.353 6.58 1.455.172 2.808-.194 4.02-1.088 1.58-1.163 2.458-2.807 2.611-4.889l.005-.062H26.91l.003.063c.11 1.776.852 3.371 2.088 4.493a5.754 5.754 0 0 0 4.412 1.491c3.038-.268 5.394-2.87 5.48-6.052.09-3.29-2.154-6.078-5.218-6.486-1.546-.207-2.962.166-4.21 1.108-1.558 1.175-2.417 2.812-2.554 4.865l-.004.063H15.633l-.005-.062c-.135-1.883-.856-3.414-2.143-4.552-1.112-.98-2.38-1.476-3.78-1.476zM9.7 36.865c-.233 0-.469-.014-.707-.042-3.242-.383-5.593-3.272-5.466-6.72.112-3.08 2.408-5.692 5.34-6.077 1.767-.233 3.347.257 4.7 1.452 1.301 1.149 2.036 2.69 2.185 4.582h11.036c.153-2.067 1.03-3.717 2.603-4.903 1.275-.962 2.722-1.344 4.301-1.133 3.13.417 5.422 3.265 5.331 6.626-.088 3.25-2.495 5.909-5.598 6.183a5.885 5.885 0 0 1-4.507-1.524c-1.248-1.132-2.002-2.737-2.128-4.524H15.763c-.17 2.094-1.064 3.752-2.66 4.928-1.041.766-2.183 1.152-3.403 1.152zM15.763 9.28c.007 3.234 2.488 5.874 5.606 5.837 3.06-.036 5.522-2.647 5.492-5.897-.029-3.118-2.364-5.81-5.56-5.8-3.232.01-5.559 2.794-5.538 5.86m5.54-6.371c3.22 0 6.028 2.616 6.058 6.47.027 3.432-2.77 6.306-6.095 6.272-3.481-.035-6.093-3.017-6-6.611.079-3.12 2.525-6.114 6.037-6.131"/>
        <path fill="#ee7822" d="M21.319 3.488H21.3a5.303 5.303 0 0 0-3.88 1.696 5.974 5.974 0 0 0-1.592 4.096c.003 1.562.583 3.022 1.633 4.114 1.028 1.07 2.391 1.656 3.844 1.656h.064c3.022-.037 5.456-2.651 5.428-5.83-.03-3.218-2.435-5.732-5.478-5.732zm-.015 11.698c-1.486 0-2.88-.601-3.934-1.695-1.075-1.118-1.668-2.613-1.671-4.21a6.116 6.116 0 0 1 1.63-4.192 5.43 5.43 0 0 1 3.97-1.737h.02c3.115 0 5.576 2.573 5.606 5.868.03 3.252-2.462 5.928-5.555 5.965h-.066zm0-12.21c-2.799.014-5.879 2.336-5.975 6.065-.044 1.755.553 3.402 1.684 4.636a5.789 5.789 0 0 0 4.253 1.906h.055c1.576 0 3.123-.679 4.254-1.869a6.199 6.199 0 0 0 1.722-4.335c-.03-3.65-2.606-6.402-5.993-6.402zm.017 12.743h-.056a5.92 5.92 0 0 1-4.346-1.948c-1.153-1.26-1.764-2.942-1.718-4.733a6.61 6.61 0 0 1 1.75-4.274 5.929 5.929 0 0 1 4.352-1.923c3.461 0 6.093 2.81 6.123 6.537a6.337 6.337 0 0 1-1.76 4.433c-1.155 1.215-2.736 1.908-4.345 1.908zM29.319 22.756c.109-.684.211-1.314.31-1.944.029-.191.088-.362.308-.314.185.04.224.195.193.387-.135.854-.26 1.71-.393 2.563-.054.34-.185.423-.492.3-.75-.3-1.496-.608-2.244-.91-.17-.07-.321-.176-.243-.385.077-.206.251-.176.424-.108.557.22 1.117.432 1.747.673-.077-.151-.12-.245-.17-.336-1.15-2.096-2.304-4.19-3.452-6.288-.096-.175-.295-.39-.028-.557.272-.17.348.119.444.295 1.133 2.094 2.264 4.192 3.395 6.287.055.102.119.2.2.337"/>
        <path fill="#ee7822" d="M26.968 22.362c-.085 0-.124.046-.15.117-.02.053-.022.098-.006.136.025.06.094.112.212.159l.856.348c.463.189.925.378 1.388.562.135.054.228.063.285.03.057-.035.097-.125.12-.277.062-.393.121-.787.181-1.18.07-.461.14-.923.213-1.383.037-.239-.057-.29-.143-.31-.059-.011-.103-.007-.135.017-.06.042-.084.152-.097.242-.07.447-.142.895-.217 1.361l-.121.758-.167-.277c-.047-.077-.088-.143-.125-.212l-1.009-1.87-2.386-4.418a1.637 1.637 0 0 1-.044-.087c-.047-.098-.095-.199-.165-.22-.039-.014-.087 0-.145.037-.059.036-.091.074-.1.116-.017.075.041.17.099.263.018.03.035.058.05.086.828 1.512 1.659 3.022 2.488 4.532l.965 1.756c.032.059.061.118.098.193l.15.301-.649-.248c-.437-.167-.847-.324-1.254-.485a.546.546 0 0 0-.192-.047m2.503 1.507a.693.693 0 0 1-.249-.058c-.463-.185-.925-.374-1.388-.562-.285-.116-.57-.233-.856-.348-.097-.04-.232-.106-.284-.231a.318.318 0 0 1 .004-.241c.113-.303.41-.185.506-.147.408.16.817.317 1.254.484l.337.129c-.035-.069-.062-.125-.091-.18l-.965-1.755c-.83-1.51-1.66-3.02-2.488-4.533l-.048-.08c-.068-.11-.145-.236-.116-.367.018-.078.071-.146.16-.201.09-.057.174-.074.248-.052.122.038.187.172.243.29l.04.081c.797 1.472 1.592 2.945 2.387 4.418l1.009 1.87c.033.06.069.119.109.185l.065-.409c.075-.467.147-.914.217-1.361.019-.124.052-.26.151-.332.062-.045.14-.058.234-.037.115.025.299.118.244.464-.073.46-.143.922-.213 1.382l-.18 1.18c-.032.198-.09.316-.183.373a.276.276 0 0 1-.147.038M13.686 22.986l1.59-.614c.064-.024.136-.083.19-.068.116.032.223.102.333.156-.049.108-.074.281-.151.314-.807.342-1.62.668-2.436.985-.216.083-.37.02-.41-.267-.123-.856-.261-1.709-.395-2.563-.031-.198-.033-.395.2-.434.253-.044.271.18.3.362.1.605.195 1.212.306 1.912.094-.163.147-.253.198-.344l3.492-6.298c.034-.062.055-.146.106-.182.087-.062.193-.094.29-.139.042.113.12.23.114.34-.008.112-.094.222-.153.328l-3.481 6.196c-.05.088-.094.178-.14.266l.047.05"/>
        <path fill="#ee7822" d="M12.67 20.557a.307.307 0 0 0-.052.005c-.062.01-.104.033-.129.07-.046.067-.035.182-.019.286l.087.548c.104.66.212 1.342.308 2.016.016.114.051.188.104.221.05.032.125.03.22-.008.9-.349 1.697-.671 2.435-.984.026-.011.055-.103.072-.158l.02-.06a1.17 1.17 0 0 1-.043-.024 1.102 1.102 0 0 0-.224-.1c-.014-.01-.058.02-.082.034-.024.012-.047.025-.069.033l-1.629.629-.11-.117.07-.133c.03-.06.061-.12.094-.179l1.16-2.066 2.322-4.13c.014-.026.03-.052.045-.077a.552.552 0 0 0 .098-.222.471.471 0 0 0-.062-.201l-.02-.046-.028.012a.93.93 0 0 0-.193.095c-.02.015-.038.054-.055.092a.81.81 0 0 1-.032.068c-1.164 2.1-2.327 4.2-3.492 6.298l-.12.212-.168.29-.122-.77c-.073-.464-.141-.894-.211-1.323l-.006-.036c-.03-.187-.056-.275-.17-.275m.385 3.303a.28.28 0 0 1-.15-.04c-.089-.055-.144-.162-.167-.318-.095-.673-.203-1.355-.308-2.014l-.086-.548c-.02-.132-.032-.28.042-.388a.305.305 0 0 1 .212-.124c.298-.052.341.209.369.382l.005.035c.07.43.138.86.212 1.324l.065.41c.043-.075.076-.131.107-.188l3.492-6.299a.55.55 0 0 0 .026-.056c.024-.052.05-.112.1-.147.068-.048.144-.08.218-.11a1.44 1.44 0 0 0 .083-.036l.062-.027.024.065c.012.034.027.067.043.1.039.085.08.174.074.269-.006.104-.064.197-.119.287-.015.023-.03.047-.043.071l-2.32 4.131-1.161 2.066a5.589 5.589 0 0 0-.092.175l-.009.016 1.52-.587c.018-.007.037-.018.056-.027.053-.029.113-.062.173-.044.088.025.17.068.25.11.03.018.062.034.094.05l.06.029-.03.062c-.013.032-.025.07-.038.108-.032.1-.066.206-.147.24-.738.313-1.536.636-2.437.985a.512.512 0 0 1-.18.038M12.379 1.582c.005-.552-.416-1.011-.935-1.02-.516-.01-.96.44-.974.985-.013.555.425 1.03.955 1.036.515.005.949-.449.954-1m.5.025c.001.834-.672 1.54-1.46 1.533-.794-.008-1.456-.718-1.446-1.551.01-.82.675-1.518 1.45-1.522.786-.005 1.455.703 1.456 1.54"/>
        <path fill="#ee7822" d="M11.429.63c-.474 0-.881.417-.894.918a.959.959 0 0 0 .254.674c.17.186.396.29.636.293h.009c.473 0 .876-.426.88-.933.005-.516-.386-.944-.872-.953h-.013zm.005 2.021h-.01a.996.996 0 0 1-.728-.335 1.095 1.095 0 0 1-.29-.771C10.42.97 10.887.493 11.43.493h.016c.555.01 1.003.5.998 1.09-.006.581-.467 1.068-1.01 1.068zM11.43.136h-.008c-.741.004-1.376.67-1.385 1.454a1.49 1.49 0 0 0 .4 1.036c.266.285.614.444.98.447h.012c.36 0 .702-.152.967-.43a1.51 1.51 0 0 0 .417-1.035c0-.384-.153-.764-.42-1.043a1.33 1.33 0 0 0-.963-.43zm0 3.073h-.013a1.476 1.476 0 0 1-1.071-.488 1.63 1.63 0 0 1-.438-1.132C9.919.732 10.613.004 11.422 0h.009c.392 0 .766.166 1.055.469.29.304.457.719.457 1.139 0 .416-.165.83-.455 1.132a1.46 1.46 0 0 1-1.058.469zM19.292 38.343c-.006-.55-.44-1.001-.958-.997-.52.004-.95.46-.95 1.009-.002.56.448 1.028.975 1.012.522-.015.938-.471.933-1.024m.494-.005c-.006.824-.66 1.515-1.441 1.523-.781.007-1.46-.708-1.459-1.54 0-.836.668-1.538 1.46-1.533.795.005 1.446.707 1.44 1.55"/>
        <path fill="#ee7822" d="M18.34 37.414h-.006c-.488.003-.885.426-.886.94-.001.251.099.499.274.678a.849.849 0 0 0 .611.268h.024c.485-.015.875-.444.87-.956-.005-.506-.41-.93-.887-.93zm-.007 2.022a.976.976 0 0 1-.702-.307 1.115 1.115 0 0 1-.312-.775c.001-.589.456-1.071 1.014-1.076h.007c.555 0 1.01.476 1.016 1.065.006.585-.44 1.076-.996 1.092h-.027zm.005-2.58c-.362 0-.707.152-.971.43a1.494 1.494 0 0 0 .006 2.077c.262.274.611.43.96.43h.011c.74-.007 1.372-.674 1.378-1.456a1.506 1.506 0 0 0-.405-1.045 1.337 1.337 0 0 0-.971-.436h-.008zm-.005 3.073c-.383 0-.765-.171-1.05-.47a1.633 1.633 0 0 1-.006-2.27 1.462 1.462 0 0 1 1.06-.469h.009c.4.003.777.172 1.062.477.288.308.445.713.442 1.141-.006.855-.695 1.583-1.505 1.59h-.012zM6.825 42.158h2.613c.088.001.197-.022.258.024.085.063.175.176.184.276.006.073-.103.179-.183.234-.057.04-.15.026-.228.026-1.771.002-3.542.002-5.314.002-.049 0-.114.018-.143-.008-.101-.09-.19-.194-.283-.294.102-.086.201-.241.308-.248.468-.027.939-.012 1.408-.012h1.38z"/>
        <g transform="translate(3.606 41.709)">
            <mask id="b" fill="#fff">
                <use xlink:href="#a"/>
            </mask>
            <path fill="#ee7822" d="M.216.713l.028.032C.312.819.376.889.446.95.456.954.481.95.5.947a.548.548 0 0 1 .05-.003h1.329c1.328 0 2.656 0 3.985-.002l.05.001c.053.003.114.004.142-.016.096-.066.156-.147.154-.172C6.204.69 6.136.591 6.052.528c-.027-.02-.09-.015-.148-.013l-.073.003H1.84L1.47.515C1.13.512.778.51.434.53.386.533.322.602.265.662a1.51 1.51 0 0 1-.05.051m.243.373a.135.135 0 0 1-.094-.03A2.847 2.847 0 0 1 .151.838L.026.704.082.657C.112.632.143.599.173.567.25.484.33.4.427.393.775.374 1.129.377 1.47.38l.368.002h3.993c.026 0 .043 0 .065-.002.077-.004.166-.01.23.038.097.073.2.202.21.325.012.136-.174.271-.21.297-.063.044-.147.04-.22.039l-.044-.001-3.985.001H.548a.547.547 0 0 1-.09.006" mask="url(#b)"/>
        </g>
        <path fill="#ee7822" d="M33.834 1.293c.89 0 1.781.002 2.672 0 .2-.001.406.016.405.28-.001.26-.205.28-.405.279-1.782-.002-3.563-.001-5.345-.001-.03 0-.068.013-.087-.003-.111-.09-.29-.173-.312-.287-.036-.195.134-.268.311-.268h2.761z"/>
        <path fill="#ee7822" d="M31.073 1.361c-.106 0-.19.028-.228.076-.022.028-.028.065-.02.111.01.054.104.118.18.168.037.026.074.05.106.077-.004-.005.006-.006.013-.007l.037-.003h1.336l4.008.001c.09 0 .187-.004.251-.035.042-.02.09-.06.09-.177 0-.065-.014-.113-.044-.145-.06-.062-.177-.066-.296-.067-.648.002-1.297.002-1.944.001h-3.489zm.03.562a.1.1 0 0 1-.069-.022 1.44 1.44 0 0 0-.1-.07c-.105-.073-.214-.146-.235-.257a.272.272 0 0 1 .047-.224c.063-.08.18-.125.327-.125h3.49c.647.002 1.295.001 1.943 0 .134-.003.292.007.387.106a.336.336 0 0 1 .082.241c0 .145-.056.246-.165.3a.664.664 0 0 1-.298.048h-.007c-1.336-.002-2.672-.001-4.008-.001H31.16a.168.168 0 0 0-.022.002l-.037.002zM42.041 28.638c0 .876-.001 1.752.001 2.627.001.204-.026.39-.266.388-.24-.002-.268-.2-.269-.395v-5.253c0-.198.043-.384.283-.385.258 0 .252.197.252.392v2.626"/>
        <path fill="#ee7822" d="M41.792 25.689h-.001c-.16 0-.218.086-.219.316-.002 1.75-.001 3.501 0 5.253 0 .24.054.325.205.327h.003c.064 0 .108-.015.138-.046.053-.055.06-.17.06-.274-.002-.647-.002-1.294-.001-1.942v-1.505-1.806c.001-.119.001-.23-.048-.281-.027-.029-.072-.042-.137-.042m-.012 6.032h-.004c-.332-.003-.333-.337-.333-.463-.001-1.752-.002-3.502 0-5.253 0-.111 0-.45.347-.452h.002c.101 0 .176.027.228.082.087.091.087.23.086.366v3.322 1.941c.001.14-.01.28-.097.372a.3.3 0 0 1-.229.085M5.672 7.488l.001-2.534c0-.102-.01-.222.036-.301.048-.082.158-.175.238-.172.08.003.184.103.228.188.042.082.025.201.025.303l.001 5.007-.001.154c-.004.182-.051.34-.256.34-.218 0-.271-.163-.272-.358V7.488z"/>
        <path fill="#ee7822" d="M5.943 4.549c-.048 0-.14.07-.18.14-.028.05-.027.133-.025.214v.05c-.002.647-.002 1.292-.002 1.938l.001 3.224c0 .255.1.29.207.29.111 0 .187-.046.192-.273v-.868-4.292l.001-.071a.457.457 0 0 0-.02-.2c-.037-.074-.124-.15-.172-.152h-.002zm.001 5.992c-.222 0-.335-.143-.336-.426V6.89l.001-1.937v-.049c-.002-.096-.003-.204.045-.287.057-.1.183-.205.29-.205h.006c.117.004.235.133.282.224.04.08.037.18.034.269a1.474 1.474 0 0 0-.001.066V10.135c-.006.27-.114.406-.32.406zM2.269 40.619H.419c-.178.001-.352-.013-.355-.258-.002-.246.162-.301.359-.301h3.73c.198 0 .364.062.355.304-.008.232-.18.257-.36.256-.626-.003-1.253-.001-1.88-.001"/>
        <g transform="translate(0 39.537)">
            <mask id="d" fill="#fff">
                <use xlink:href="#c"/>
            </mask>
            <path fill="#ee7822" d="M3.294 1.013c.285 0 .57 0 .855.002h.008c.212 0 .282-.047.286-.191.003-.072-.012-.125-.045-.162C4.354.615 4.271.59 4.153.59H.423c-.12 0-.2.023-.245.07-.034.035-.05.09-.05.163.003.166.09.186.29.192.393-.002.786-.002 1.178-.002h1.698m.874.137h-.02c-.456-.001-.91-.002-1.367 0H.42c-.143 0-.416.001-.42-.326a.362.362 0 0 1 .087-.26c.07-.075.178-.11.337-.11h3.73c.157 0 .268.037.338.114a.353.353 0 0 1 .081.261c-.01.308-.272.321-.404.321" mask="url(#d)"/>
        </g>
        <path fill="#ee7822" d="M38.356 3.902c-.616 0-1.232-.003-1.848 0-.195.002-.37-.031-.366-.283.004-.25.19-.278.378-.278 1.222 0 2.445.002 3.668 0 .211 0 .384.066.381.315-.002.24-.19.247-.364.246h-1.849"/>
        <path fill="#ee7822" d="M36.52 3.41c-.232 0-.311.053-.314.21-.001.07.013.12.043.151.054.058.172.065.258.064.435-.004.87-.002 1.305-.002h1.072l1.32.001h.009c.204 0 .29-.026.292-.179 0-.075-.016-.13-.052-.168-.049-.052-.138-.078-.266-.078H36.52zm-.026.56c-.12 0-.253-.013-.336-.103a.34.34 0 0 1-.08-.248c.005-.345.311-.345.442-.345h1.1l2.567-.001c.166 0 .283.039.357.118.061.065.091.154.09.266-.004.315-.271.31-.43.313h-1.32l-1.072-.001c-.435 0-.87-.002-1.304.001h-.014zM1.212 42.159c.284-.001.568.005.85-.003.189-.005.318.08.328.271.01.203-.133.287-.31.288-.568.003-1.136.003-1.703-.002-.173-.001-.316-.075-.311-.287.005-.211.146-.27.324-.268.274.002.548 0 .822 0"/>
        <path fill="#ee7822" d="M.385 42.226c-.22 0-.252.102-.255.202-.001.065.014.115.045.149.05.055.138.067.202.068.525.004 1.081.006 1.702.002.091 0 .163-.026.205-.07a.2.2 0 0 0 .042-.146c-.008-.142-.094-.205-.261-.207-.194.006-.385.003-.577.003H.977l-.587-.001H.385zm.95.559c-.334 0-.652-.002-.959-.004-.13-.001-.228-.038-.293-.11A.338.338 0 0 1 0 42.424c.004-.152.074-.334.384-.334h.827l.276.002c.19 0 .382.002.574-.004h.017c.225 0 .365.125.376.335a.334.334 0 0 1-.078.246c-.066.074-.169.113-.297.114l-.744.002zM39.417 1.887c-.283 0-.566.005-.848-.002-.171-.004-.316-.068-.311-.284.006-.215.15-.268.323-.268l1.668-.001c.178 0 .316.062.324.269.008.236-.157.283-.337.286-.273.004-.546.001-.819 0"/>
        <path fill="#ee7822" d="M39.417 1.82h.205c.205.001.409.002.614 0 .118-.003.192-.025.232-.07.03-.032.043-.08.04-.146-.003-.102-.037-.204-.257-.204h-1.67c-.223.001-.256.098-.259.203-.001.065.013.113.043.147.039.042.108.065.205.067.194.005.388.004.582.003h.265zm.494.137l-.29-.001h-.469c-.195.001-.39.002-.585-.003-.133-.003-.232-.04-.295-.11a.34.34 0 0 1-.078-.243c.005-.222.136-.335.386-.335h.76l.909-.001h.002c.31 0 .38.182.386.334a.336.336 0 0 1-.076.246c-.086.096-.226.11-.324.11-.108.002-.217.003-.326.003zM42.04 34.072c0 .278.025.558-.011.83-.015.115-.159.212-.243.317-.091-.101-.257-.2-.262-.304a19.034 19.034 0 0 1 0-1.724c.005-.104.173-.2.265-.3.084.107.226.205.24.32.035.284.011.574.011.861"/>
        <g transform="translate(41.215 32.482)">
            <mask id="f" fill="#fff">
                <use xlink:href="#e"/>
            </mask>
            <path fill="#ee7822" d="M.57.506L.511.557C.454.606.376.672.374.713a18.89 18.89 0 0 0 0 1.717c.001.042.076.107.136.16l.058.051.05-.05c.06-.061.124-.125.132-.18a3.73 3.73 0 0 0 .015-.578 9.526 9.526 0 0 1 0-.493C.769 1.141.775.935.75.74.743.683.68.619.62.557L.57.506zM.573 2.84l-.05-.056c-.027-.03-.061-.06-.096-.09C.34 2.618.25 2.538.244 2.436A19.177 19.177 0 0 1 .245.706C.25.605.341.526.43.451.465.422.5.392.527.362l.05-.054.047.058C.648.398.679.43.709.46c.076.078.156.159.169.26.025.208.02.419.016.624a9.913 9.913 0 0 0 0 .485c.005.198.01.402-.016.601-.014.102-.094.182-.171.26-.031.03-.062.06-.087.091l-.047.059z" mask="url(#f)"/>
        </g>
        <path fill="#ee7822" d="M6.198 12.929c0 .278.025.559-.011.83-.016.113-.164.205-.251.307-.086-.095-.242-.186-.247-.284a21.983 21.983 0 0 1 .001-1.758c.004-.093.166-.18.254-.27.084.094.23.18.241.281.033.295.011.595.011.894h.002z"/>
        <path fill="#ee7822" d="M5.942 11.846l-.058.048c-.048.038-.128.101-.13.133a21.862 21.862 0 0 0 0 1.753c.001.036.074.099.127.144l.053.047.053-.05c.063-.058.128-.118.136-.17.025-.189.02-.388.015-.58a19.233 19.233 0 0 1-.004-.174h-.002v-.068c0-.085.002-.17.004-.255.004-.208.008-.425-.015-.631-.005-.043-.07-.1-.127-.15a1.492 1.492 0 0 1-.052-.047zm-.005 2.319l-.048-.052c-.025-.028-.057-.056-.09-.084-.083-.072-.17-.147-.174-.244a22.133 22.133 0 0 1 .001-1.764c.004-.096.093-.166.18-.235.033-.027.067-.054.094-.08l.046-.048.045.05c.025.027.055.054.086.08.08.07.161.143.172.24.024.215.02.436.015.649l-.003.193.002.059c0 .08.002.159.004.239.005.198.01.402-.017.601-.014.103-.097.18-.178.254a1.091 1.091 0 0 0-.088.088l-.047.054zM34.044 3.9c-.205-.001-.416.028-.614-.012-.103-.022-.182-.165-.272-.253.085-.096.165-.267.256-.273.418-.03.84-.03 1.259 0 .09.006.232.176.235.274.001.085-.15.23-.25.252-.199.04-.41.011-.614.011"/>
        <path fill="#ee7822" d="M33.245 3.631c.015.017.03.034.044.053.052.062.105.126.153.137.132.026.269.022.415.015.063-.002.124-.01.187-.004.06 0 .121.002.182.004.148.008.286.012.419-.015.08-.017.199-.142.198-.183-.001-.064-.119-.205-.174-.21a8.82 8.82 0 0 0-1.25.001c-.033.003-.09.086-.13.14-.014.022-.029.042-.044.062m.436.346c-.088 0-.177-.005-.263-.023-.092-.019-.16-.102-.226-.182-.026-.03-.05-.061-.078-.088l-.047-.046.044-.05c.025-.028.05-.064.075-.1.065-.092.132-.188.223-.194.42-.03.846-.03 1.268 0 .12.008.292.205.295.34.002.125-.176.295-.303.32-.147.03-.3.024-.448.018a3.906 3.906 0 0 0-.177-.005h-.006c-.059 0-.117.002-.176.005-.06.002-.12.005-.181.005M6.563 40.618c-.196 0-.399.032-.585-.012-.112-.026-.199-.171-.297-.263.098-.094.189-.26.292-.268.39-.033.782-.016 1.173-.012.18.001.333.098.296.29-.02.105-.18.228-.295.254-.187.043-.389.012-.584.011"/>
        <path fill="#ee7822" d="M6.563 40.55c.058 0 .117.004.175.006.14.006.272.013.395-.015.1-.023.232-.132.246-.202.01-.052.003-.094-.023-.128-.038-.05-.117-.08-.21-.08l-.243-.003c-.305-.006-.62-.012-.925.015-.044.003-.104.077-.157.142l-.049.057.046.05c.057.066.117.134.174.148.123.03.254.022.393.016.06-.003.119-.006.178-.006m.35.147c-.06 0-.121-.002-.18-.006a3.585 3.585 0 0 0-.342 0 1.564 1.564 0 0 1-.427-.019c-.097-.022-.17-.107-.241-.188a1.367 1.367 0 0 0-.085-.09l-.053-.05.053-.05c.029-.029.057-.063.085-.098.073-.089.148-.18.245-.189.312-.026.63-.02.937-.015l.242.003c.133.001.246.048.309.13.05.066.067.15.05.241-.027.136-.208.276-.345.308a1.12 1.12 0 0 1-.248.023M37.188 14.209c-.034.053-.067.166-.13.19-.088.033-.232.04-.294-.015a4.28 4.28 0 0 1-.574-.612c-.053-.07-.044-.248.005-.33.038-.061.23-.105.276-.063.243.218.461.466.686.706.017.019.015.058.03.124"/>
        <path fill="#ee7822" d="M36.409 13.428c-.047 0-.14.026-.16.052-.037.06-.042.206-.008.25.157.207.347.41.565.602.035.033.15.034.23.003.02-.008.048-.065.064-.1l.019-.038-.007-.04a.317.317 0 0 0-.006-.032l-.135-.143c-.173-.187-.351-.38-.541-.552a.066.066 0 0 0-.021-.002m.5 1.064c-.07 0-.14-.015-.186-.056a4.307 4.307 0 0 1-.583-.62c-.074-.098-.061-.308 0-.41.048-.078.181-.103.208-.107.051-.007.123-.01.165.028.195.175.376.37.55.56l.14.15c.025.027.03.061.036.098a.795.795 0 0 0 .01.057l.008.03-.016.025c-.008.013-.016.03-.026.05-.03.062-.066.14-.136.166a.53.53 0 0 1-.17.03M38.965 13.603c-.055.096-.09.182-.146.246-.147.167-.305.322-.455.485-.13.14-.283.17-.416.04s-.078-.282.039-.406c.173-.183.337-.376.527-.538.067-.058.203-.066.293-.041.063.018.1.131.158.214"/>
        <path fill="#ee7822" d="M38.702 13.443c-.06 0-.119.014-.148.039a4.72 4.72 0 0 0-.387.39l-.134.144c-.046.048-.1.12-.098.192 0 .041.02.079.058.116.126.124.246.048.325-.038.06-.066.123-.13.185-.196.09-.093.181-.188.268-.287a.672.672 0 0 0 .089-.143l.029-.055-.03-.053c-.019-.034-.051-.093-.068-.098a.337.337 0 0 0-.09-.011m-.571 1.08a.319.319 0 0 1-.225-.1.302.302 0 0 1-.099-.212c-.002-.096.045-.196.136-.291l.132-.143c.126-.136.256-.278.4-.4.086-.075.244-.083.35-.054.068.019.108.091.146.161.015.027.03.054.047.08l.026.036-.023.038c-.018.03-.033.06-.048.088a.826.826 0 0 1-.107.17c-.087.1-.18.195-.271.291-.062.064-.123.128-.184.194-.088.094-.186.143-.28.143M1.194 20.37c-.083-.048-.15-.071-.199-.117-.188-.18-.388-.353-.545-.561-.061-.082-.021-.249-.027-.378.123.001.283-.05.363.013.202.159.379.359.541.564.056.07.07.21.05.306-.015.068-.118.115-.183.173"/>
        <path fill="#ee7822" d="M.487 19.38l-.003.067c-.005.078-.01.167.017.202.122.164.276.308.426.448l.112.106c.024.024.06.042.104.064l.044.023.04-.029c.033-.023.082-.058.087-.079.018-.088.002-.2-.036-.247a3.237 3.237 0 0 0-.53-.553c-.036-.028-.12-.018-.195-.01l-.066.007zm.715 1.072l-.039-.022c-.027-.016-.052-.029-.076-.041-.05-.025-.096-.048-.135-.086l-.11-.105a3.746 3.746 0 0 1-.442-.464c-.058-.077-.051-.188-.045-.296a1.2 1.2 0 0 0 .003-.12l-.003-.072h.068c.036.002.076-.004.116-.009.103-.011.21-.024.286.037.177.14.347.316.552.573.072.09.086.252.062.364-.015.073-.079.119-.14.163-.022.016-.044.031-.063.048l-.034.03zM2.943 22.25c-.086-.048-.154-.07-.202-.115-.187-.178-.386-.35-.541-.556-.063-.083-.023-.251-.03-.38.122-.003.283-.06.359 0 .207.166.39.372.557.583.054.068.061.208.038.303-.016.066-.118.11-.181.164"/>
        <path fill="#ee7822" d="M2.235 21.262l-.003.07c-.005.079-.01.168.018.205.12.161.274.303.421.441l.113.107c.024.023.06.04.104.061l.049.024.037-.025c.033-.023.083-.057.088-.077.02-.087.01-.2-.025-.243a3.66 3.66 0 0 0-.547-.572c-.03-.024-.118-.01-.188-.001a1.65 1.65 0 0 1-.067.01zm.716 1.068l-.038-.02c-.028-.017-.055-.03-.078-.04a.491.491 0 0 1-.137-.085l-.113-.105c-.151-.142-.308-.288-.436-.46-.058-.076-.052-.188-.046-.296.003-.042.005-.084.003-.122l-.003-.07.066-.001c.036-.001.075-.007.115-.013.103-.017.21-.032.284.027.236.19.437.43.568.593.07.088.078.25.05.363-.017.073-.084.118-.143.158a.604.604 0 0 0-.06.043l-.032.028zM30.384 40.047c-.082-.045-.15-.067-.198-.114a14.81 14.81 0 0 1-.517-.544c-.117-.13-.15-.3 0-.397.087-.055.275-.039.356.028.19.157.354.354.503.555.054.073.064.211.042.306-.016.067-.12.11-.186.166"/>
        <path fill="#ee7822" d="M29.811 39.027a.212.212 0 0 0-.108.023c-.042.026-.064.058-.069.099-.007.056.023.129.082.193.167.185.34.368.515.542.023.023.058.04.103.062l.044.022.04-.027c.032-.021.084-.057.089-.076.02-.086.007-.2-.03-.248a3.015 3.015 0 0 0-.492-.543c-.036-.03-.108-.047-.174-.047zm.58 1.1l-.037-.02a1.509 1.509 0 0 0-.073-.037c-.051-.025-.1-.049-.139-.087-.176-.176-.351-.36-.52-.547a.396.396 0 0 1-.116-.306.268.268 0 0 1 .13-.196c.11-.07.325-.052.429.033.166.137.33.317.514.566.07.093.08.254.053.365-.017.071-.082.115-.145.158-.021.014-.044.028-.063.045l-.033.027zM30.635 41.009c-.044.085-.07.168-.12.225-.166.187-.328.383-.52.538-.075.062-.223.025-.337.033 0-.128-.05-.296.008-.377.16-.218.356-.408.554-.589.058-.053.185-.07.259-.043.066.024.103.135.156.213"/>
        <path fill="#ee7822" d="M29.718 41.736l.057.003c.069.003.148.007.181-.02.16-.13.302-.292.44-.45l.072-.082a.511.511 0 0 0 .071-.126l.022-.048a2.01 2.01 0 0 1-.028-.05c-.023-.042-.053-.094-.075-.102-.056-.022-.158-.005-.195.03-.19.173-.388.362-.546.58-.024.032-.014.12-.005.198l.006.067zm-.125.142v-.073c0-.037-.005-.079-.01-.12-.012-.108-.024-.22.032-.298.165-.226.368-.422.563-.6.08-.072.235-.087.322-.055.068.025.106.095.144.164.014.025.028.05.043.073l.025.034-.02.038a1.52 1.52 0 0 0-.037.078.593.593 0 0 1-.093.16l-.071.083c-.142.16-.288.328-.456.464-.071.058-.17.053-.266.048-.037-.002-.074-.004-.107-.001l-.069.005zM37.177 15.481c-.043.086-.063.16-.107.209-.174.193-.343.396-.54.558-.072.059-.22.014-.333.016-.002-.121-.051-.284.005-.358.168-.224.369-.422.575-.61.056-.05.186-.057.26-.025.064.027.095.138.14.21"/>
        <path fill="#ee7822" d="M36.257 16.199l.059.005c.064.006.145.015.174-.01.16-.131.305-.294.446-.452l.087-.099a.391.391 0 0 0 .058-.107l.023-.052a.921.921 0 0 1-.023-.045c-.02-.041-.046-.096-.068-.105-.058-.026-.16-.017-.194.015-.17.153-.387.36-.567.599-.021.029-.01.115-.002.185l.007.066m.157.147c-.036 0-.074-.003-.11-.007-.037-.004-.076-.01-.106-.007l-.065.001v-.068a.938.938 0 0 0-.011-.115c-.013-.104-.026-.212.03-.286.186-.248.409-.461.583-.618.079-.072.235-.076.327-.037.065.028.102.102.133.168.012.024.023.047.036.067l.02.034-.017.035c-.014.028-.025.054-.036.079-.023.053-.044.104-.081.144l-.087.098a4.192 4.192 0 0 1-.462.468.234.234 0 0 1-.154.044M38.934 16.058c.003.218-.194.362-.337.236a5.549 5.549 0 0 1-.654-.7c-.043-.055-.01-.228.043-.3.039-.052.208-.071.256-.027.234.215.447.455.664.69.024.025.022.077.028.1"/>
        <path fill="#ee7822" d="M38.153 15.31c-.044 0-.101.011-.118.027-.04.054-.059.185-.042.213.225.281.436.508.645.692a.11.11 0 0 0 .127.019c.052-.026.104-.097.105-.196l-.004-.024a.149.149 0 0 0-.007-.039l-.093-.1c-.181-.197-.369-.402-.567-.584a.1.1 0 0 0-.046-.008m.562 1.099a.241.241 0 0 1-.16-.063 5.5 5.5 0 0 1-.66-.709c-.07-.087-.025-.298.04-.385.044-.058.137-.072.175-.076.044-.005.127-.004.174.04.202.186.392.392.575.592l.094.101c.032.035.037.083.04.114l.005.034c.003.143-.068.271-.178.326a.231.231 0 0 1-.105.026M2.377 20.385c-.046-.035-.147-.073-.17-.14-.028-.083-.026-.22.022-.283.17-.222.355-.437.56-.624.062-.055.232-.05.307.002.06.04.107.24.068.288-.205.256-.437.488-.664.725-.017.02-.055.016-.123.032"/>
        <path fill="#ee7822" d="M2.932 19.366c-.043 0-.084.009-.1.024-.18.163-.36.364-.553.615-.03.038-.035.148-.011.218.008.023.058.052.09.071l.032.02c.015-.004.029-.006.041-.008a.17.17 0 0 0 .031-.006l.122-.129a8.64 8.64 0 0 0 .531-.587c.01-.031-.025-.166-.054-.187a.248.248 0 0 0-.129-.03zm-.569 1.093l-.024-.019a.38.38 0 0 0-.043-.027c-.055-.032-.125-.073-.15-.145-.034-.101-.032-.264.033-.348.197-.258.383-.464.568-.633.086-.078.29-.069.384-.004.066.045.1.165.108.23.01.071.001.125-.025.158-.169.21-.357.407-.54.597l-.128.134c-.026.027-.058.032-.095.038a.529.529 0 0 0-.06.012l-.028.007zM.669 22.223c-.192.004-.332-.213-.22-.368.181-.252.396-.48.618-.692.05-.049.222-.03.28.026.06.057.102.243.062.292-.207.255-.442.485-.67.721-.018.018-.055.016-.07.02"/>
        <path fill="#ee7822" d="M1.166 21.203a.113.113 0 0 0-.057.01c-.257.246-.45.463-.609.682a.143.143 0 0 0-.01.15c.027.055.09.11.172.11a.146.146 0 0 1 .017-.002l.022-.004.131-.137c.18-.184.365-.374.529-.575.01-.028-.018-.16-.056-.198-.026-.024-.091-.036-.14-.036zM.663 22.29a.32.32 0 0 1-.287-.183.282.282 0 0 1 .022-.293c.163-.226.362-.45.625-.702.08-.075.287-.05.368.026.075.072.14.298.068.387-.168.206-.356.398-.537.584l-.138.142c-.03.03-.068.033-.09.036l-.024.003H.663zM31.658 40.097c-.133-.106-.232-.145-.254-.213-.028-.083-.026-.22.023-.28a6.6 6.6 0 0 1 .596-.631c.049-.047.18-.06.233-.022.068.048.15.208.128.239-.225.305-.47.594-.726.907"/>
        <path fill="#ee7822" d="M32.167 38.997c-.038 0-.083.009-.101.026a6.45 6.45 0 0 0-.59.625c-.029.035-.034.145-.012.215.008.02.054.052.102.085l.082.057.137-.167c.189-.23.368-.447.536-.673a.381.381 0 0 0-.1-.158c-.01-.007-.03-.01-.054-.01zm-.5 1.193l-.048-.039a2.137 2.137 0 0 0-.123-.09c-.073-.05-.131-.088-.153-.154-.035-.105-.031-.266.035-.347.175-.214.372-.423.602-.639.071-.066.235-.082.312-.026a.49.49 0 0 1 .159.256.107.107 0 0 1-.015.08c-.175.236-.358.46-.553.696l-.216.263zM32.168 41.893c-.08-.049-.146-.074-.192-.12-.176-.176-.365-.345-.51-.548-.061-.088-.027-.251-.036-.38.122-.003.286-.061.36 0 .201.172.374.386.538.601.048.065.056.197.03.28-.021.069-.12.11-.19.167"/>
        <path fill="#ee7822" d="M31.496 40.907l-.001.068c-.003.082-.006.169.023.21.111.156.254.295.392.43l.11.109a.422.422 0 0 0 .101.065l.043.024c.013-.01.027-.018.04-.027.038-.025.085-.057.093-.08.021-.069.012-.176-.02-.218a3.771 3.771 0 0 0-.528-.59c-.029-.024-.12-.01-.187 0a3.17 3.17 0 0 1-.066.01zm.678 1.068l-.038-.023a1.873 1.873 0 0 0-.074-.042.545.545 0 0 1-.13-.087l-.11-.109c-.142-.139-.289-.282-.407-.448-.056-.08-.053-.19-.05-.296a1.164 1.164 0 0 0 0-.12l-.004-.072.068-.001a.917.917 0 0 0 .115-.014c.105-.015.214-.032.285.03.208.176.387.397.55.61.065.088.072.244.04.345-.021.07-.085.112-.147.153a.839.839 0 0 0-.064.046l-.034.028zM21.294 8.605H17.92c-.069 0-.153.027-.202-.006-.11-.073-.203-.174-.303-.265.097-.096.18-.24.294-.276.153-.047.33-.01.496-.01l6.513-.003c.078 0 .177-.023.23.019.09.07.209.184.207.277-.001.088-.133.191-.227.253-.057.038-.152.011-.23.011h-3.404z"/>
        <path fill="#ee7822" d="M17.508 8.33l.035.034c.07.067.135.13.21.178.015.01.06.004.093 0 .026-.002.05-.005.074-.005h6.777c.025 0 .051.003.078.005.046.005.098.01.119-.005.154-.103.196-.172.196-.197.001-.036-.046-.116-.181-.222-.02-.016-.08-.011-.124-.009l-.067.003-6.513.004c-.053.004-.106-.004-.16-.007-.115-.008-.223-.016-.318.014-.06.02-.117.087-.176.158l-.043.05m.279.352a.186.186 0 0 1-.103-.026c-.084-.055-.157-.125-.227-.192a3.859 3.859 0 0 0-.084-.079l-.055-.05.053-.05c.028-.03.056-.062.083-.095.069-.082.14-.167.237-.198a.99.99 0 0 1 .362-.02c.05.004.103.009.151.007l6.514-.003.059-.003c.07-.005.15-.01.209.035.156.124.235.236.233.333-.001.095-.085.197-.257.31-.059.038-.133.031-.199.025-.022-.002-.044-.004-.066-.004H17.92c-.019 0-.04.003-.06.005a.646.646 0 0 1-.073.005M21.309 9.832h3.38c.088 0 .192-.025.26.015.089.053.203.156.207.243.005.09-.092.239-.175.268-.142.05-.307.03-.463.03-2.214.004-4.428.006-6.642.006-.097 0-.21.005-.285-.044-.078-.053-.174-.178-.161-.253.016-.095.12-.195.21-.25.067-.04.171-.014.26-.015h3.409z"/>
        <path fill="#ee7822" d="M17.744 9.892a.149.149 0 0 0-.072.014c-.08.049-.167.134-.179.203-.005.031.059.134.133.184.052.034.142.032.224.033h.026c2.214 0 4.428-.002 6.642-.005.033-.003.07 0 .105.002.121.001.238.005.338-.03.054-.019.134-.14.131-.2-.003-.046-.082-.132-.175-.187-.032-.018-.09-.014-.146-.01-.028.002-.064 0-.082.004h-6.792c-.026 0-.053-.002-.08-.004-.025-.002-.05-.004-.073-.004zm.079.57c-.091 0-.19-.004-.266-.055-.09-.06-.21-.21-.19-.322.02-.123.142-.237.24-.296.065-.04.147-.035.22-.028.023.001.047.004.07.004h6.792c.024 0 .049-.002.073-.004.076-.007.152-.012.218.027.024.014.233.143.24.298.007.122-.108.297-.219.336-.121.042-.255.038-.381.036l-.102-.001c-2.214.003-4.428.005-6.642.005H17.823zM21.285 12.161h-2.702c-.087 0-.193.026-.26-.016-.095-.06-.222-.17-.224-.26-.002-.088.126-.198.219-.264.054-.039.152-.016.23-.016h5.519c.078 0 .179-.025.23.016.096.078.208.187.228.301.01.06-.15.208-.248.224-.22.035-.448.015-.674.015h-2.318"/>
        <path fill="#ee7822" d="M18.415 11.666c-.026 0-.05.003-.061.012-.132.094-.191.172-.19.205 0 .04.074.13.193.203.03.02.091.017.147.011.028-.001.054-.004.08-.004h5.02l.18.003c.162.005.328.008.483-.017a.382.382 0 0 0 .195-.156c-.01-.04-.052-.125-.205-.248-.017-.015-.078-.01-.118-.006-.025.002-.05.004-.072.004h-5.52a1.04 1.04 0 0 1-.07-.004.826.826 0 0 0-.062-.003m.018.57c-.05 0-.1-.006-.142-.033-.06-.037-.254-.17-.256-.316-.002-.095.08-.203.246-.322.06-.042.137-.036.206-.031l.06.003h5.52c.02 0 .04-.002.062-.004.07-.005.15-.012.207.033.15.122.233.234.252.343.006.034-.004.07-.03.11a.502.502 0 0 1-.271.194 2.617 2.617 0 0 1-.505.019l-.178-.003h-5.02a.788.788 0 0 0-.07.004c-.026.001-.054.004-.08.004M21.285 6.867c-.94 0-1.88-.002-2.821.001-.19 0-.377-.016-.381-.268-.004-.27.189-.292.391-.292 1.89.003 3.78.003 5.67 0 .205 0 .402.023.398.286-.003.267-.21.275-.408.274-.95-.003-1.9-.001-2.85-.001"/>
        <path fill="#ee7822" d="M22.71 6.798c.474 0 .95 0 1.424.003h.008c.235 0 .333-.03.336-.208 0-.068-.014-.117-.044-.15-.056-.06-.172-.067-.29-.067-1.89.003-3.78.002-5.67 0-.107 0-.225.005-.282.066-.031.033-.046.084-.045.157.003.171.098.202.31.202h.007c.706-.003 1.41-.004 2.116-.002h2.129m1.445.137h-.02c-.713-.002-1.425-.003-2.137-.001h-1.418c-.705-.002-1.41-.001-2.115.001-.157.002-.44.001-.445-.335-.002-.109.025-.195.081-.254.092-.098.241-.107.374-.107 1.89.003 3.78.003 5.67 0 .136 0 .288.008.381.108a.343.343 0 0 1 .082.247c-.004.33-.276.341-.453.341"/>
    </g>
</svg>
