<svg xmlns="http://www.w3.org/2000/svg" xmlns:xlink="http://www.w3.org/1999/xlink" width="43" height="42" viewBox="0 0 43 42">
    <defs>
        <path id="a" d="M1.767.764H.263V.16h1.504v.604z"/>
    </defs>
    <g fill="none" fill-rule="evenodd">
        <path fill="#ee7822" d="M28.975 24.335c.003.025.004.056.012.085.34 1.216.36 2.416-.148 3.595a.295.295 0 0 0 .01.23c.461.753.882 1.543 1.41 2.24.628.834 1.924.89 2.59.104.61-.72 1.111-1.544 1.649-2.331a.386.386 0 0 0 .02-.31c-.433-1.008-.461-2.044-.215-3.102.06-.253.134-.502.202-.754a376.53 376.53 0 0 0-.574-.28c-1.37 1.19-2.834 1.326-4.3.253l-.656.27m-19.033.461l.063.362c.185 1.057.18 2.109-.18 3.125-.1.278-.095.472.038.738.513 1.033 1.08 2.027 1.789 2.923.886 1.119 2.354 1.208 3.337.184.794-.827 1.49-1.741 1.965-2.819a.483.483 0 0 0 .016-.342 5.414 5.414 0 0 1-.438-2.531c.025-.419.093-.834.145-1.273-2.3 1.498-4.523 1.34-6.735-.367m9.718-10.644c.117-1.02.167-2.006.07-3-.104-1.049-.63-1.707-1.584-1.993-.144-.043-.286-.096-.428-.147-3.013-1.074-5.997-.938-8.966.21-.792.307-1.25.867-1.378 1.749-.13.887-.092 1.771-.013 2.658.02.229.052.457.085.742.18-.4.332-.732.48-1.065.175-.394.469-.637.87-.702.591-.097 1.187-.228 1.782-.235 1.691-.02 3.383.011 5.074.034.79.01 1.58.05 2.37.07a1.23 1.23 0 0 1 1.063.613c.202.324.366.675.575 1.066m13.27.142c-.022.004-.047.002-.057.013-.047.054-.09.113-.137.168-.6.726-1.289 1.334-2.15 1.678-.958.382-1.926.527-2.919.1-.45-.194-.701-.009-.715.499-.011.421-.014.848.039 1.264.04.307.159.606.271.897.103.267.261.51.364.776.154.4.267.82.424 1.218.376.955.852 1.852 1.616 2.523.834.733 1.772 1.149 2.854.672 1.912-.842 2.825-2.518 3.285-4.544.018-.076-.035-.213-.097-.26-1.159-.9-1.849-2.145-2.339-3.534-.17-.48-.294-.98-.44-1.47m-9.74 15.18c.935.578 1.63 1.365 2.04 2.404.189.476.33.975.47 1.47.053.192.137.242.315.242 4.795-.004 9.59-.002 14.386-.005.78-.001 1.243-.668 1.034-1.468-.077-.295-.178-.584-.257-.878-.494-1.837-1.67-2.857-3.432-3.062-.837-.097-1.695-.008-2.543.018-.084.002-.194.131-.24.23-.438.917-1.028 1.715-1.709 2.439-1.025 1.091-2.613 1.008-3.501-.21a17.248 17.248 0 0 1-1.225-1.953c-.185-.341-.358-.51-.745-.49-.756.035-1.521-.047-2.271.035-.894.098-1.676.525-2.322 1.229m5.997-5.742c-1.091-1.16-1.658-2.524-2.084-3.972-.038-.128-.103-.247-.158-.368-.128-.284-.328-.555-.373-.852a12.275 12.275 0 0 1-.127-1.796c-.002-.79.57-1.21 1.284-.985.21.067.412.17.626.21.84.155 1.63-.035 2.38-.442.867-.47 1.521-1.189 2.086-2.014.064-.094.229-.205.303-.177.1.037.193.19.227.313.189.679.316 1.379.543 2.042.46 1.347 1.147 2.534 2.305 3.359.097.069.153.3.13.439-.064.394-.16.785-.277 1.166a6.972 6.972 0 0 1-1.681 2.853c1.176.473 2.312.445 3.444-.033a.23.23 0 0 0 .114-.132c.137-.475.34-.944.384-1.43.19-2.037.103-4.062-.465-6.035-.57-1.98-1.599-3.562-3.474-4.398-1.681-.75-3.382-.936-5.1-.17-2.085.933-3.331 2.648-3.911 4.915-.6 2.342-.39 4.677.195 6.99.032.126.171.261.292.316 1.066.493 2.168.345 3.337.201m-15.68 12.142h10.452c.11 0 .22.002.33-.008.69-.063 1.268-.775 1.091-1.461-.227-.884-.457-1.791-.852-2.597-.88-1.794-2.423-2.552-4.26-2.656-.854-.049-1.717.055-2.575.111-.097.007-.222.13-.272.232-.545 1.108-1.257 2.088-2.062 2.993-1.155 1.296-3.118 1.243-4.14-.167-.637-.877-1.156-1.848-1.735-2.773-.07-.112-.177-.277-.272-.28-1.027-.044-2.068-.175-3.081-.057-1.983.23-3.384 1.366-4.073 3.39-.145.428-.249.87-.381 1.302-.348 1.135.22 1.97 1.348 1.97h10.482m.493-22.89v-.086c-.36 0-.72-.01-1.08.002-1.248.044-2.497.09-3.744.15-.436.02-.76.241-.909.696-.225.688-.444 1.378-.676 2.063-.047.141-.126.276-.214.393-.144.192-.36.342-.454.555-.325.734-.335 1.523-.212 2.303.058.366.207.724.36 1.062.057.125.276.283.37.252.325-.108.373.094.45.33.352 1.093.857 2.097 1.592 2.957 1.114 1.303 2.473 2.08 4.167 2.02 1.86-.066 3.249-1.059 4.33-2.595.518-.736.88-1.558 1.164-2.422.041-.125.21-.317.276-.299.423.116.575-.19.69-.488.4-1.045.399-2.105.003-3.152a.979.979 0 0 0-.372-.472c-.188-.111-.232-.245-.276-.441A24.857 24.857 0 0 0 19 13.949c-.203-.67-.65-.987-1.34-.972-1.22.025-2.44.006-3.66.006m20.99 11.253c-.394 1.06-.507 2.098-.182 3.169.077.255.19.339.445.315.628-.058 1.258-.11 1.887-.113 2.127-.012 3.868 1.332 4.529 3.47.109.352.219.704.305 1.063.216.904-.269 1.772-1.113 1.971-.183.044-.387-.025-.582-.025-4.716-.002-9.432-.001-14.149 0-.068 0-.136.011-.22.019.113.763-.104 1.391-.664 1.868-.311.266-.675.4-1.083.4-7.11-.001-14.22 0-21.329-.002-1.107 0-2.015-1.096-1.682-2.205.328-1.094.58-2.245 1.257-3.199 1.06-1.491 2.504-2.203 4.227-2.306.696-.041 1.4-.001 2.097.06.34.03.478-.097.59-.4.412-1.118.422-2.25.144-3.397-.122-.5-.295-.962-.625-1.375-.56-.7-.934-1.523-1.226-2.385-.053-.157-.14-.229-.291-.307-.248-.126-.505-.315-.657-.551-.421-.657-.49-1.428-.46-2.195.017-.459.111-.923.232-1.366.075-.275.216-.575.416-.754.255-.23.239-.46.206-.75-.154-1.367-.3-2.733-.161-4.114.118-1.165.667-1.933 1.722-2.36 3.332-1.348 6.646-1.269 9.966.03 1.04.407 1.537 1.214 1.657 2.345.124 1.156.006 2.303-.088 3.452-.012.148-.021.296-.045.441-.069.407-.086.741.257 1.1.437.456.507 1.129.55 1.772.051.77-.007 1.524-.331 2.23-.18.39-.418.721-.868.8-.064.011-.135.114-.163.19-.461 1.27-1.094 2.423-2.04 3.363a.545.545 0 0 0-.13.209c-.419 1.254-.5 2.517-.078 3.793.065.197.153.279.369.263a48.243 48.243 0 0 1 2.337-.121 5.57 5.57 0 0 1 2.51.53c.168.078.265.067.407-.08 1.03-1.078 2.301-1.482 3.721-1.44.53.015 1.06.059 1.589.066.096 0 .247-.095.281-.185.377-1.002.297-2.012-.013-3.011-.024-.078-.221-.13-.341-.137-.577-.036-1.155-.048-1.732-.08-.138-.009-.273-.062-.408-.1-.56-.162-.904-.49-1.046-1.14-.494-2.257-.7-4.517-.161-6.788.667-2.811 2.224-4.819 4.915-5.639 3.635-1.108 7.23.913 8.473 4.696.66 2.006.786 4.08.616 6.173-.059.727-.299 1.439-.478 2.151-.026.105-.16.209-.267.258a4.72 4.72 0 0 1-2.906.359c-.058-.011-.115-.02-.186-.03"/>
        <path fill="#ee7822" d="M13.571 8.332c-1.586 0-3.191.312-4.803.935-.784.303-1.226.863-1.35 1.711-.135.923-.082 1.856-.013 2.646.014.153.032.302.054.475l.013.105.097-.217c.112-.248.215-.474.316-.702.183-.41.495-.662.904-.728l.382-.066c.46-.08.936-.164 1.407-.17 1.452-.017 2.929.004 4.357.024l.718.01c.484.006.977.024 1.453.041.306.011.612.022.918.03a1.27 1.27 0 0 1 1.1.633c.138.224.26.46.388.71.039.076.078.153.12.231.12-1.113.136-1.995.053-2.842-.102-1.032-.609-1.67-1.551-1.953a6.94 6.94 0 0 1-.354-.12l-.076-.028a12.24 12.24 0 0 0-4.133-.725zm-6.15 6.207l-.02-.162c-.01-.094-.021-.182-.032-.265a13.5 13.5 0 0 1-.054-.479c-.07-.796-.123-1.737.014-2.67.13-.885.59-1.469 1.408-1.785 3.051-1.181 6.078-1.252 8.996-.211l.076.027c.114.041.233.084.35.119.968.29 1.511.975 1.616 2.034.087.893.066 1.822-.07 3.011l-.017.145-.067-.127a23.15 23.15 0 0 1-.188-.36 9.727 9.727 0 0 0-.385-.704 1.185 1.185 0 0 0-1.026-.59 92.198 92.198 0 0 1-.92-.03 62.152 62.152 0 0 0-1.45-.041l-.718-.01c-1.428-.02-2.905-.04-4.355-.024-.464.005-.937.088-1.394.169l-.383.065c-.382.063-.663.29-.835.675l-.316.703-.23.51zm24.12-3.672c-.774 0-1.52.163-2.25.489-1.975.883-3.283 2.525-3.886 4.883-.537 2.1-.475 4.313.196 6.964.029.114.16.237.266.286 1.027.474 2.094.347 3.223.208-1.137-1.24-1.665-2.676-2.031-3.922a1.841 1.841 0 0 0-.11-.265 4.173 4.173 0 0 0-.18-.36c-.104-.192-.21-.39-.242-.601a12.166 12.166 0 0 1-.128-1.804c-.001-.388.133-.707.378-.9.253-.201.596-.247.964-.13.079.024.156.054.233.084.126.049.257.1.388.124.775.144 1.545 0 2.35-.437.763-.414 1.42-1.05 2.071-2 .072-.104.253-.232.355-.194.116.043.218.21.256.345.071.258.135.523.197.779.1.418.204.85.344 1.26.525 1.537 1.252 2.597 2.288 3.335.114.081.175.333.15.487-.06.373-.155.768-.28 1.173a6.978 6.978 0 0 1-1.641 2.82c1.126.435 2.22.416 3.345-.06a.183.183 0 0 0 .087-.1c.04-.14.088-.282.133-.42.107-.326.219-.664.25-1.001.208-2.244.056-4.212-.463-6.017-.63-2.185-1.757-3.614-3.448-4.368-.985-.438-1.918-.658-2.816-.658zM27.55 23.92c-.585 0-1.156-.084-1.719-.344-.126-.058-.28-.2-.318-.348-.674-2.668-.736-4.896-.195-7.014.61-2.387 1.936-4.052 3.938-4.946 1.598-.714 3.278-.659 5.135.169 1.717.766 2.861 2.214 3.5 4.428.522 1.818.675 3.798.466 6.054-.032.349-.146.692-.255 1.025-.045.135-.091.276-.131.414a.273.273 0 0 1-.14.162c-1.168.494-2.305.505-3.477.033l-.066-.026.05-.052a6.884 6.884 0 0 0 1.67-2.833c.123-.401.216-.791.276-1.16.02-.122-.03-.334-.111-.392-1.038-.74-1.798-1.846-2.323-3.382-.141-.414-.246-.848-.347-1.269-.061-.255-.125-.52-.196-.775-.031-.112-.116-.251-.199-.282-.041-.018-.189.068-.251.16-.66.963-1.328 1.608-2.103 2.029-.825.447-1.612.593-2.408.446-.138-.026-.273-.078-.403-.128a4.29 4.29 0 0 0-.228-.083c-.34-.107-.655-.067-.884.115-.222.175-.343.467-.342.824.002.654.043 1.24.127 1.789.03.194.132.385.231.568.048.088.097.179.138.27l.044.095c.043.09.087.182.116.28.37 1.258.906 2.712 2.074 3.952l.065.07-.16.02c-.538.066-1.062.13-1.574.13zm-.193-7.695a.315.315 0 0 0-.183.052c-.111.076-.17.237-.177.476-.013.472-.011.866.039 1.257.036.286.146.57.252.844l.016.04c.05.132.116.26.18.384.065.126.132.257.184.393.075.195.14.396.205.591.068.208.138.422.219.627.457 1.16.951 1.932 1.603 2.504.984.864 1.875 1.075 2.808.665 1.693-.746 2.728-2.179 3.259-4.511.012-.056-.033-.174-.081-.211-1.033-.802-1.782-1.931-2.354-3.555-.117-.331-.214-.676-.308-1.01l-.121-.425a7.709 7.709 0 0 1-.128.16c-.686.83-1.395 1.383-2.169 1.692-1.126.45-2.064.48-2.95.099a.764.764 0 0 0-.294-.072zm4.248 8.127c-.645 0-1.295-.294-1.968-.885-.664-.583-1.166-1.367-1.629-2.541-.082-.208-.152-.424-.22-.633-.064-.193-.13-.393-.204-.586-.05-.131-.116-.26-.18-.384a4.115 4.115 0 0 1-.184-.392l-.015-.041c-.108-.28-.22-.57-.259-.867-.05-.397-.052-.796-.04-1.272.008-.274.081-.46.218-.554.137-.094.325-.09.56.011.864.372 1.78.34 2.885-.1.77-.307 1.448-.836 2.133-1.664l.052-.064c.028-.036.056-.071.086-.106.019-.02.044-.023.064-.025l.017-.002.04-.009.012.041c.046.155.089.31.133.466.093.331.19.674.305 1.002.567 1.606 1.305 2.722 2.323 3.512.078.06.137.217.115.31-.537 2.364-1.59 3.819-3.312 4.577-.31.137-.62.206-.932.206zM7.597 20.297c.21 0 .269.184.326.362l.01.03c.38 1.177.897 2.14 1.582 2.94 1.201 1.404 2.557 2.057 4.133 2.004 1.713-.06 3.118-.903 4.295-2.576.461-.655.84-1.443 1.158-2.409.04-.123.221-.357.329-.33.386.106.52-.157.637-.458a4.257 4.257 0 0 0 .003-3.117.93.93 0 0 0-.352-.449c-.206-.121-.253-.272-.298-.472a24.555 24.555 0 0 0-.463-1.859c-.196-.646-.622-.956-1.296-.939-.86.018-1.735.014-2.581.01L14 13.032h-.046v-.085l-.293-.002a17.09 17.09 0 0 0-.74.004c-1.193.042-2.464.089-3.744.15-.438.02-.73.244-.868.664l-.213.655c-.15.462-.305.94-.463 1.408a1.478 1.478 0 0 1-.221.406c-.057.076-.125.145-.19.212-.105.108-.205.21-.26.334-.28.635-.348 1.38-.207 2.275.06.375.215.738.356 1.05.051.112.25.246.315.227a.545.545 0 0 1 .171-.032zm5.875 5.435c-1.514 0-2.867-.685-4.024-2.039-.693-.81-1.217-1.783-1.6-2.973l-.01-.03c-.072-.224-.116-.36-.385-.27-.12.038-.359-.134-.424-.277-.143-.317-.302-.688-.363-1.075-.144-.916-.074-1.678.214-2.331.063-.14.173-.253.28-.362.063-.065.128-.132.181-.203.094-.125.165-.256.207-.379.158-.467.313-.945.463-1.407.07-.219.141-.437.213-.655.149-.455.477-.707.949-.73 1.28-.06 2.552-.106 3.744-.149.249-.008.5-.006.744-.004l.338.002h.046v.086l1.035.003c.845.003 1.72.008 2.58-.01.715-.012 1.176.323 1.383 1.005.181.597.318 1.199.465 1.867.041.186.079.307.254.41.16.094.313.289.392.497a4.352 4.352 0 0 1-.004 3.187c-.12.315-.288.64-.743.516-.035.001-.182.15-.22.268-.322.975-.705 1.772-1.172 2.435-1.194 1.698-2.622 2.553-4.364 2.615l-.18.003zm15.552-1.366a.267.267 0 0 0 .006.04c.374 1.338.325 2.525-.15 3.628a.245.245 0 0 0 .008.185c.127.208.25.418.374.628.32.543.651 1.105 1.032 1.609.296.393.759.627 1.268.642.494.01.95-.183 1.254-.541.451-.533.85-1.134 1.235-1.715.136-.205.272-.41.41-.612a.342.342 0 0 0 .017-.262c-.414-.962-.486-1.987-.219-3.133.041-.175.09-.35.137-.52l.055-.197-.514-.251c-1.393 1.2-2.884 1.288-4.313.252l-.6.247zm2.589 6.828h-.054a1.726 1.726 0 0 1-1.336-.678c-.384-.509-.716-1.072-1.037-1.618-.124-.21-.248-.42-.374-.627a.344.344 0 0 1-.014-.276c.466-1.082.514-2.247.146-3.561-.006-.023-.009-.047-.012-.07l-.007-.06.711-.293.02.015c1.425 1.044 2.855.96 4.246-.252l.022-.02.635.312-.01.039-.066.237c-.047.169-.096.343-.136.516-.262 1.124-.192 2.129.213 3.07a.435.435 0 0 1-.026.358 53.4 53.4 0 0 0-.409.611c-.387.583-.787 1.187-1.242 1.724a1.65 1.65 0 0 1-1.27.573zm-21.606-6.29l.043.245c.207 1.187.147 2.217-.183 3.15-.097.275-.088.452.036.7.612 1.23 1.162 2.13 1.783 2.914.424.536.997.848 1.613.88.609.028 1.196-.218 1.658-.699.894-.932 1.534-1.85 1.956-2.805a.437.437 0 0 0 .016-.303 5.487 5.487 0 0 1-.442-2.553c.017-.289.054-.57.093-.868l.04-.31c-2.241 1.424-4.407 1.31-6.613-.35zm3.393 7.987l-.106-.003c-.641-.033-1.236-.357-1.677-.914-.625-.79-1.178-1.693-1.795-2.93-.134-.27-.144-.481-.04-.778.324-.917.383-1.93.179-3.1l-.084-.48.091.071c2.233 1.723 4.42 1.841 6.685.365l.08-.052-.011.098-.052.41c-.04.297-.076.576-.093.86-.052.89.094 1.734.434 2.508a.534.534 0 0 1-.016.383c-.427.966-1.072 1.893-1.975 2.833-.453.473-1.025.729-1.62.729zm9.861-3.427c.94.594 1.616 1.4 2.01 2.396.194.492.341 1.015.47 1.475.046.163.105.207.272.207 4.796-.004 9.592 0 14.387-.005.357 0 .657-.145.845-.406.193-.268.244-.623.146-1.001-.04-.154-.088-.31-.134-.46a12.688 12.688 0 0 1-.123-.418c-.486-1.804-1.627-2.822-3.394-3.027-.62-.072-1.263-.04-1.885-.01-.217.01-.435.02-.652.027-.053.002-.153.103-.2.204-.407.853-.969 1.655-1.717 2.451-.512.545-1.173.82-1.856.774-.673-.044-1.282-.395-1.714-.988a17.374 17.374 0 0 1-1.229-1.958c-.175-.323-.33-.485-.703-.467-.317.014-.64.009-.952.004-.434-.008-.882-.016-1.317.032-.851.093-1.61.487-2.254 1.17zm2.752 4.174c-.208 0-.301-.072-.358-.275-.129-.459-.275-.979-.467-1.466-.393-.995-1.073-1.796-2.022-2.381l-.05-.031.04-.044c.668-.726 1.459-1.144 2.35-1.243.44-.047.89-.04 1.327-.032.312.006.633.011.948-.004.413-.016.6.175.785.516.378.7.79 1.355 1.221 1.947.417.57 1.002.908 1.649.95.66.045 1.293-.22 1.785-.745.742-.79 1.298-1.583 1.7-2.427.05-.105.17-.253.28-.256.216-.006.433-.017.65-.028.626-.03 1.273-.062 1.899.01 1.806.21 2.974 1.252 3.47 3.097.038.14.081.28.123.415.046.151.094.307.135.463.106.408.05.793-.16 1.085-.206.286-.532.443-.918.443-4.796.004-9.591.002-14.386.006h-.001zm-2.055 2.189h.06c.088 0 .178 0 .266-.007.351-.032.684-.239.891-.553.176-.266.233-.567.16-.85l-.01-.036c-.22-.865-.45-1.76-.838-2.55-.8-1.632-2.22-2.517-4.222-2.63-.646-.038-1.31.015-1.952.065-.206.017-.412.033-.618.046-.078.005-.19.115-.235.206-.502 1.022-1.18 2.004-2.07 3.003-.573.645-1.376.987-2.2.945a2.66 2.66 0 0 1-2.009-1.115c-.424-.585-.803-1.223-1.17-1.839-.182-.308-.372-.628-.565-.937-.044-.07-.16-.256-.236-.26-.27-.01-.545-.028-.81-.045-.748-.048-1.52-.097-2.265-.01-2 .232-3.357 1.363-4.036 3.359-.085.25-.157.512-.227.764-.049.176-.099.358-.153.536-.164.536-.124 1.022.116 1.37.238.347.66.538 1.19.538h20.933zm.117.096H3.024c-.559 0-1.007-.205-1.262-.578-.257-.373-.303-.89-.13-1.455.055-.177.105-.358.153-.534.07-.253.143-.516.23-.77.691-2.033 2.074-3.184 4.11-3.421.752-.088 1.529-.039 2.28.01.265.017.54.034.808.045.113.005.218.159.308.303.194.31.384.63.567.938.365.615.743 1.25 1.165 1.832a2.57 2.57 0 0 0 1.942 1.078c.796.041 1.574-.291 2.13-.915.884-.993 1.556-1.968 2.055-2.982.058-.118.196-.25.31-.257.205-.013.41-.03.616-.046.645-.05 1.312-.103 1.964-.066 2.036.116 3.482 1.018 4.297 2.682.392.799.623 1.7.846 2.57l.01.036c.08.31.018.64-.174.93a1.312 1.312 0 0 1-1.174.6zM7.232 28.692c-.196 0-.395.005-.593.017-1.78.107-3.191.876-4.193 2.287-.565.795-.836 1.74-1.097 2.656-.051.177-.102.354-.154.529-.14.468-.056.974.23 1.388.327.472.854.754 1.41.754 7.109.003 14.219.001 21.328.003.397 0 .751-.13 1.055-.39.54-.46.758-1.074.647-1.824l-.007-.05.048-.005.078-.008c.05-.006.098-.011.146-.011 4.717-.002 9.433-.002 14.15 0 .076 0 .154.01.23.02.121.016.236.032.341.007a1.43 1.43 0 0 0 .915-.68c.21-.361.268-.8.164-1.234-.081-.338-.186-.677-.287-1.005l-.017-.053c-.656-2.123-2.363-3.439-4.459-3.439h-.027c-.648.004-1.312.06-1.883.114-.272.024-.408-.069-.493-.349-.304-1.004-.244-2.05.184-3.2l.013-.035.105.016c.042.007.08.012.118.02.992.187 1.96.067 2.88-.356.101-.046.22-.142.242-.226.044-.177.092-.353.14-.53.144-.526.292-1.07.336-1.613.188-2.313-.012-4.325-.613-6.153-.599-1.822-1.777-3.298-3.318-4.156-1.547-.86-3.358-1.041-5.1-.51-2.542.775-4.186 2.66-4.884 5.604-.469 1.972-.418 4.122.16 6.766.133.607.437.938 1.015 1.104l.095.03c.1.03.203.063.303.069.268.015.537.026.806.037.304.012.618.024.927.043.087.006.344.05.382.17.35 1.135.355 2.13.011 3.044-.04.105-.204.214-.322.214h-.002c-.3-.004-.605-.02-.9-.035-.226-.012-.46-.024-.69-.03-1.526-.045-2.728.421-3.687 1.425-.15.157-.265.18-.457.09a5.57 5.57 0 0 0-2.491-.526c-.855.02-1.697.076-2.335.122-.224.016-.34-.067-.415-.295-.401-1.215-.376-2.466.079-3.825a.592.592 0 0 1 .14-.228c.858-.851 1.521-1.945 2.03-3.345.03-.082.11-.205.198-.22.458-.08.678-.437.834-.774.282-.613.386-1.314.327-2.206-.045-.669-.12-1.305-.537-1.742-.363-.38-.337-.741-.27-1.14.02-.121.03-.247.04-.368l.03-.38c.086-1.025.175-2.085.063-3.133-.124-1.171-.657-1.926-1.628-2.305-3.376-1.321-6.718-1.33-9.934-.03-1.037.419-1.575 1.156-1.693 2.32-.143 1.406.019 2.839.16 4.103.032.276.061.537-.22.792-.171.153-.317.42-.402.73-.14.513-.216.957-.231 1.357-.026.64.003 1.465.452 2.165.174.27.475.451.64.536.154.079.255.159.314.333.338 1.002.725 1.755 1.217 2.37.294.368.49.798.635 1.393.298 1.23.25 2.351-.147 3.428-.107.29-.25.463-.635.43-.452-.04-.966-.077-1.497-.077zm16.931 7.73c-7.11-.002-14.22 0-21.329-.003a1.811 1.811 0 0 1-1.481-.794 1.715 1.715 0 0 1-.244-1.473c.052-.174.102-.35.153-.527.264-.924.537-1.878 1.111-2.686 1.02-1.435 2.452-2.217 4.26-2.326.744-.044 1.481.006 2.104.061.298.025.43-.064.543-.37.39-1.057.437-2.16.143-3.368-.142-.582-.331-1-.616-1.356-.499-.625-.891-1.387-1.233-2.4-.049-.145-.13-.208-.269-.28-.172-.088-.49-.28-.674-.568-.465-.723-.495-1.567-.469-2.223.016-.407.093-.858.235-1.378.09-.328.246-.612.43-.777.228-.207.224-.405.19-.708-.143-1.269-.304-2.707-.16-4.124.12-1.187.692-1.972 1.75-2.4 3.236-1.31 6.6-1.299 9.998.03 1.006.393 1.557 1.173 1.686 2.384.113 1.058.024 2.123-.062 3.153l-.031.38c-.01.123-.02.25-.04.375-.065.386-.089.709.244 1.056.44.46.517 1.116.562 1.803.061.91-.045 1.626-.335 2.255-.156.338-.4.738-.901.826-.038.007-.101.086-.128.16-.513 1.414-1.184 2.52-2.051 3.381a.51.51 0 0 0-.118.19c-.447 1.338-.473 2.568-.079 3.761.063.189.141.243.324.232.639-.046 1.482-.102 2.339-.122a5.608 5.608 0 0 1 2.53.535c.156.073.233.057.356-.072.978-1.023 2.21-1.496 3.754-1.453.23.006.465.019.692.03.294.016.598.032.896.036h.001c.08 0 .212-.086.238-.155.336-.891.331-1.866-.013-2.979-.012-.037-.16-.094-.301-.103-.309-.02-.622-.032-.926-.044-.269-.01-.538-.021-.807-.037a1.362 1.362 0 0 1-.323-.073c-.031-.01-.063-.02-.094-.028-.606-.175-.939-.538-1.078-1.175-.582-2.66-.633-4.824-.16-6.81.706-2.98 2.37-4.889 4.945-5.674 1.766-.538 3.601-.354 5.168.517 1.561.87 2.755 2.364 3.361 4.21.605 1.84.807 3.866.618 6.192-.044.552-.194 1.1-.339 1.631-.048.176-.096.353-.14.528-.03.12-.173.235-.293.29a4.779 4.779 0 0 1-2.932.362 3.381 3.381 0 0 0-.115-.019l-.034-.006c-.408 1.115-.463 2.13-.168 3.101.072.238.165.305.399.282.572-.053 1.238-.11 1.89-.113h.028c2.135 0 3.875 1.34 4.544 3.504l.016.054c.102.33.208.67.29 1.011.11.46.047.923-.175 1.306a1.52 1.52 0 0 1-.972.724c-.121.028-.249.011-.372-.005-.073-.01-.148-.02-.22-.02H26.13c-.043 0-.086.005-.136.01l-.032.005c.099.763-.132 1.39-.687 1.862a1.67 1.67 0 0 1-1.112.412zM23.737 7.818c.448-.359.82-.672 1.21-.96a.778.778 0 0 1 .429-.154c2.141-.01 4.283-.007 6.424-.007.591 0 .729-.141.73-.757V1.399c0-.694-.135-.835-.793-.835h-8.736c-.08 0-.16-.003-.24.002-.38.024-.564.223-.575.623-.004.148 0 .296 0 .444 0 1.482-.003 2.964.001 4.446.001.45.189.652.594.658.2.003.4.006.601 0 .249-.009.374.096.358.374-.013.206-.003.414-.003.707m-.496-.59c-.275-.018-.508-.006-.73-.053-.462-.097-.733-.416-.781-.917-.029-.293-.019-.591-.019-.888-.001-1.355-.002-2.71 0-4.065C21.712.46 22.094.05 22.884.05c2.963-.003 5.926-.002 8.889 0 .791 0 1.159.39 1.16 1.223.002 1.578.001 3.155 0 4.733-.001.81-.373 1.202-1.144 1.202-2.102.002-4.204-.003-6.305.009a.857.857 0 0 0-.484.178c-.445.342-.868.715-1.306 1.067-.08.064-.242.143-.279.109a.556.556 0 0 1-.167-.34c-.022-.325-.007-.652-.007-1.003"/>
        <path fill="#ee7822" d="M23.409 6.688c.132 0 .228.034.29.102.066.072.094.178.086.324a6.377 6.377 0 0 0-.005.439l.002.17.296-.24c.29-.236.564-.458.843-.665a.819.819 0 0 1 .454-.162c1.734-.008 3.496-.008 5.202-.007H31.8c.569 0 .683-.12.684-.71V1.4c0-.67-.112-.787-.747-.787h-8.8a2.17 2.17 0 0 0-.173.002c-.358.023-.522.2-.533.576-.002.1-.002.2 0 .3v1.4c-.001 1.063-.001 2.126.001 3.189.001.422.166.604.55.61h.03c.187.004.38.006.568 0h.029zm.283 1.226v-.096l-.002-.264a6.376 6.376 0 0 1 .004-.445c.007-.118-.012-.2-.06-.252-.048-.053-.13-.076-.25-.073-.192.007-.385.004-.573.001h-.03c-.435-.007-.638-.231-.64-.706a1042.72 1042.72 0 0 1 0-3.19V1.634l-.001-.143c-.001-.1-.002-.202.001-.303.012-.424.214-.643.617-.669.06-.003.12-.003.18-.002H31.736c.68 0 .837.165.837.883v4.54c0 .64-.16.806-.774.806h-1.224c-1.704-.001-3.467-.001-5.2.007a.725.725 0 0 0-.403.145c-.278.205-.551.427-.84.662l-.368.298-.073.057zM27.126.096l-4.242.001c-.768 0-1.126.385-1.128 1.208a1524.636 1524.636 0 0 0 0 4.258c-.002.228-.003.463.019.69.046.48.304.783.745.875.146.031.303.036.468.042.082.002.167.005.256.01l.042.003v.045l-.002.3c-.003.242-.006.47.01.7.007.104.07.233.15.307.025.007.141-.046.223-.111a36.2 36.2 0 0 0 .529-.436c.252-.21.513-.429.778-.632a.892.892 0 0 1 .51-.187c1.515-.009 3.058-.008 4.548-.008h1.757c.749-.001 1.098-.368 1.099-1.155.001-1.578.002-3.155 0-4.733C32.886.46 32.542.098 31.772.097a6276.63 6276.63 0 0 0-4.647-.001zm-3.683 8.53a.083.083 0 0 1-.057-.019.603.603 0 0 1-.183-.373c-.015-.232-.013-.463-.01-.707l.003-.254c-.073-.004-.143-.006-.21-.008-.17-.005-.33-.01-.484-.043-.484-.101-.766-.433-.817-.959a6.898 6.898 0 0 1-.02-.7V5.37 1.305c.002-.876.4-1.303 1.22-1.303 2.962-.002 5.925-.003 8.888 0 .821 0 1.204.404 1.205 1.271.002 1.578.002 3.155 0 4.733 0 .84-.39 1.25-1.189 1.25h-1.757c-1.49 0-3.032 0-4.549.008a.817.817 0 0 0-.456.17c-.263.202-.524.419-.775.63-.176.146-.353.293-.53.436-.033.026-.182.126-.279.126zM15.781 40.768c.41-.006.74-.368.729-.798-.012-.413-.347-.759-.739-.76-.404 0-.744.36-.743.788.001.428.342.776.753.77m-.03.467c-.67-.009-1.203-.576-1.204-1.278 0-.71.554-1.29 1.23-1.285.675.004 1.217.566 1.213 1.26-.003.744-.544 1.312-1.24 1.303"/>
        <path fill="#ee7822" d="M15.77 39.258a.671.671 0 0 0-.49.218.75.75 0 0 0-.002 1.031.677.677 0 0 0 .492.213h.01a.674.674 0 0 0 .493-.227.742.742 0 0 0 .191-.521c-.01-.386-.328-.713-.693-.714h-.002zm0 1.558a.764.764 0 0 1-.555-.24.848.848 0 0 1 .001-1.166.758.758 0 0 1 .553-.248h.002c.413.002.772.37.784.807a.842.842 0 0 1-.217.59.761.761 0 0 1-.556.257h-.012zm0-2.097c-.314 0-.61.13-.833.365a1.26 1.26 0 0 0-.345.873c.001.681.51 1.221 1.16 1.23.32.001.62-.12.841-.35.226-.234.35-.555.352-.905.004-.665-.52-1.209-1.168-1.213h-.007zm-.002 2.564h-.018c-.7-.01-1.247-.592-1.248-1.326 0-.354.132-.688.371-.94.241-.254.56-.393.897-.393h.007c.698.004 1.262.59 1.259 1.308-.002.376-.137.721-.38.973-.234.244-.55.378-.888.378zM18.164 4.56c0-.427-.345-.788-.747-.782-.396.005-.72.348-.726.769-.006.435.32.794.727.798.402.004.746-.358.746-.785m-1.951-.046c.02-.7.576-1.261 1.234-1.244.686.017 1.208.613 1.186 1.354-.021.693-.594 1.258-1.246 1.229-.68-.03-1.195-.617-1.174-1.34"/>
        <path fill="#ee7822" d="M17.426 3.826h-.009c-.37.005-.675.328-.68.721a.76.76 0 0 0 .198.53.655.655 0 0 0 .973.005c.134-.14.21-.33.21-.522a.758.758 0 0 0-.21-.52.664.664 0 0 0-.482-.214m0 1.567h-.008a.752.752 0 0 1-.548-.249.859.859 0 0 1-.224-.598c.007-.445.352-.81.77-.816h.01c.202 0 .396.086.545.242a.86.86 0 0 1 .238.588.86.86 0 0 1-.237.59.752.752 0 0 1-.546.243m-.009-2.076c-.623 0-1.14.531-1.16 1.198-.02.695.477 1.261 1.132 1.29.302.013.596-.104.825-.33.231-.227.364-.53.374-.852.01-.35-.105-.679-.324-.924a1.127 1.127 0 0 0-.818-.382h-.029m.018 2.585l-.05-.001c-.704-.031-1.24-.641-1.218-1.389.021-.729.6-1.312 1.28-1.29.34.008.653.154.882.411.237.264.36.617.35.993a1.34 1.34 0 0 1-.403.92c-.235.23-.532.356-.84.356M38.06 39.741c.63 0 1.26.002 1.889 0 .17-.001.366.018.338.237-.013.104-.213.258-.33.26-1.28.018-2.558.01-3.836.01-.17 0-.309-.065-.301-.268.008-.205.157-.24.323-.24.639.003 1.278.001 1.918.001"/>
        <path fill="#ee7822" d="M36.138 39.788c-.19 0-.267.055-.273.194-.002.065.012.114.043.149.052.057.144.069.213.069l.726.001c1.019.001 2.073.003 3.109-.011.102-.002.277-.147.286-.219.007-.052 0-.09-.023-.117-.05-.06-.174-.066-.27-.066-.456.002-.912.001-1.367.001h-2.444zm1.726.51l-1.017-.001-.726-.002c-.125 0-.219-.033-.278-.098a.296.296 0 0 1-.068-.219c.011-.287.27-.283.368-.285.485.002.97.001 1.455 0H38.58c.456.002.912.002 1.367 0 .134 0 .266.01.339.098.04.048.055.113.045.193-.017.134-.245.3-.375.301a141.5 141.5 0 0 1-2.093.013zM8.574 3.248h1.92c.181-.002.37.009.362.26-.006.231-.189.228-.357.228-1.26-.002-2.52-.002-3.781 0-.177.001-.337-.022-.34-.25-.002-.237.157-.245.335-.242.62.009 1.24.004 1.86.004"/>
        <path fill="#ee7822" d="M6.677 3.292c-.093 0-.172.007-.214.051-.027.03-.04.076-.04.142.003.172.1.204.291.204h.004c1.26-.003 2.52-.002 3.782 0 .195-.003.306-.009.311-.183.002-.068-.012-.116-.04-.148-.055-.06-.158-.06-.276-.063H8.574l-.524.001c-.439 0-.892.002-1.337-.004h-.036zm.028.493c-.135 0-.368-.009-.372-.3 0-.092.02-.161.066-.21.073-.076.188-.08.315-.079.445.007.898.005 1.336.005l.524-.001h1.931c.13 0 .253.008.33.091.046.051.069.124.066.217-.007.266-.216.276-.378.276h-.02c-1.264-.001-2.524-.002-3.785 0h-.013zM2.821 13.81c0 .529-.002 1.057.001 1.585.001.174-.023.336-.221.344-.214.01-.257-.155-.257-.343l-.001-3.17c0-.186.034-.362.243-.362.213-.002.238.175.236.36-.003.53-.001 1.058-.001 1.586"/>
        <path fill="#ee7822" d="M2.588 11.911h-.002c-.142 0-.198.089-.198.314v3.17c0 .125.022.208.065.251.033.034.083.05.146.046.133-.006.18-.084.178-.296-.002-.383-.002-.767-.001-1.15v-.874c-.001-.383-.001-.765.001-1.148 0-.1-.006-.21-.06-.267-.028-.03-.07-.046-.13-.046m-.003 3.876a.26.26 0 0 1-.193-.071c-.083-.084-.093-.223-.093-.32v-3.171c0-.112 0-.408.288-.41h.002c.083 0 .148.026.194.074.077.082.087.216.085.336-.002.382-.002.764-.001 1.147v.874l.001 1.149c0 .114.002.38-.264.392h-.02M5.402 2.305H4.086c-.163 0-.34-.03-.294-.24.022-.105.194-.244.3-.246a58.15 58.15 0 0 1 2.634 0c.104.002.275.148.294.251.036.205-.135.238-.3.236-.44-.004-.879-.001-1.318-.001"/>
        <path fill="#ee7822" d="M6.141 2.256c.193 0 .386 0 .579.003.123 0 .203-.02.238-.063.02-.027.026-.065.017-.117-.014-.082-.166-.21-.25-.213-.872-.02-1.757-.02-2.631 0-.087.002-.241.128-.258.21-.012.053-.007.091.013.118.033.043.108.064.231.064h.006c.313-.002.627-.001.94-.001h1.116m.59.097h-.013c-.316-.003-.631-.003-.947-.002h-.746l-.94.001c-.107.004-.24-.01-.307-.099-.039-.05-.05-.117-.031-.2.026-.124.216-.28.344-.283a58.23 58.23 0 0 1 2.635 0c.126.003.315.166.337.29.014.081.002.147-.037.196-.068.085-.198.097-.295.097M41.278 41.667h-1.322c-.164 0-.312-.03-.31-.249 0-.219.154-.245.315-.245h2.613c.158 0 .318.018.326.236.008.24-.16.258-.33.258h-1.292"/>
        <path fill="#ee7822" d="M40.522 41.619h2.048c.091 0 .194-.004.245-.06.03-.032.042-.08.04-.149-.006-.16-.099-.19-.28-.19H39.96c-.17 0-.27.033-.27.199-.001.065.013.11.042.141.048.052.14.06.223.06l.566-.001m2.047.096h-2.613c-.102 0-.215-.01-.287-.087-.047-.05-.07-.12-.069-.21.002-.293.253-.293.36-.293h2.614c.117 0 .361 0 .371.282.003.094-.018.167-.065.218-.075.083-.2.09-.31.09M41.984 39.742c.2 0 .405-.028.598.011.105.021.19.157.283.242-.095.084-.187.235-.287.242a7.81 7.81 0 0 1-1.17 0c-.097-.008-.243-.152-.264-.257-.036-.179.102-.246.269-.24.19.007.38.002.57.002"/>
        <path fill="#ee7822" d="M41.392 39.787c-.086 0-.153.023-.185.063-.023.03-.029.068-.019.12.018.086.147.213.223.219.383.028.774.029 1.164 0 .051-.004.11-.07.168-.134l.056-.06-.052-.056c-.056-.062-.115-.127-.173-.14a1.728 1.728 0 0 0-.41-.014l-.18.004c-.063-.002-.12 0-.179.001a8.485 8.485 0 0 1-.394-.002h-.02m.605.518c-.198 0-.396-.007-.59-.022-.117-.01-.28-.165-.306-.294-.02-.1.01-.165.038-.201.053-.067.156-.1.277-.097.13.005.262.004.39.003.06-.001.118-.003.178-.001h.003c.057 0 .116-.003.174-.005.142-.006.29-.012.43.017.087.018.156.094.222.167.027.03.055.06.083.085l.04.037-.04.036c-.03.026-.058.058-.086.09-.07.077-.142.157-.228.163-.195.015-.39.022-.585.022M4.68 3.249c.19 0 .385-.026.569.01.1.02.182.143.272.22-.083.084-.163.237-.25.242-.42.026-.84.023-1.26 0-.082-.004-.158-.14-.236-.215.081-.085.154-.23.246-.245.215-.037.44-.012.66-.012"/>
        <path fill="#ee7822" d="M3.837 3.505l.046.053c.044.054.093.114.13.116.441.024.863.024 1.255 0 .04-.003.093-.072.14-.132l.048-.06-.05-.05c-.054-.057-.11-.116-.165-.126a1.76 1.76 0 0 0-.392-.014l-.169.005c-.062-.003-.129-.002-.193-.004a2.286 2.286 0 0 0-.458.015c-.047.008-.096.073-.144.136a1.615 1.615 0 0 1-.048.061m.817.282c-.21 0-.425-.006-.645-.017-.075-.005-.136-.078-.194-.149-.024-.028-.047-.057-.07-.08l-.036-.033.034-.035c.024-.026.048-.057.071-.088.059-.078.12-.158.2-.171.157-.027.318-.022.476-.017.063.002.125.005.19.004.055 0 .11-.002.165-.004.136-.006.276-.011.412.015.082.016.149.085.213.151.026.028.052.055.079.078l.04.034-.037.038a.963.963 0 0 0-.074.09c-.061.079-.125.161-.205.166-.199.012-.406.018-.619.018M2.82 17.746c0 .18.026.366-.01.538-.021.107-.137.192-.21.287-.085-.089-.236-.173-.243-.268-.026-.4-.022-.804.004-1.205.005-.083.151-.217.232-.216.076 0 .201.138.216.23.033.206.01.422.01.634h.001z"/>
        <path fill="#ee7822" d="M2.592 16.93c-.057 0-.182.115-.186.171a9.365 9.365 0 0 0-.003 1.2c.003.043.07.1.131.15l.062.052.048-.052c.056-.06.11-.117.123-.177a1.49 1.49 0 0 0 .013-.364 6.365 6.365 0 0 1-.004-.116h-.002v-.048c0-.062.002-.124.004-.186.004-.146.009-.298-.014-.44-.012-.076-.123-.19-.172-.19zm.01 1.712l-.035-.037c-.025-.027-.057-.053-.088-.08-.08-.065-.16-.132-.166-.218a9.435 9.435 0 0 1 .003-1.212c.007-.108.17-.261.276-.261.104 0 .244.162.261.27.024.152.02.308.015.459a6.358 6.358 0 0 0-.004.144l.002.039c0 .053.002.106.004.16.006.128.011.262-.015.388-.018.088-.084.158-.147.225a1.267 1.267 0 0 0-.074.082l-.031.041zM8.427 2.304c-.14 0-.285.027-.416-.009-.096-.027-.171-.136-.256-.209.078-.092.15-.253.236-.262.305-.032.617-.029.922 0 .08.007.204.156.203.24 0 .08-.125.206-.215.228-.15.038-.315.01-.474.01v.002z"/>
        <path fill="#ee7822" d="M7.818 2.08l.045.046c.054.055.105.107.16.123a.865.865 0 0 0 .275.012l.083-.004v-.002h.046c.047 0 .096.002.144.005.113.005.22.011.32-.014.077-.02.18-.132.18-.182 0-.06-.107-.188-.162-.193-.32-.03-.626-.03-.913 0-.039.005-.09.081-.132.143l-.046.067m.355.28A.646.646 0 0 1 8 2.342c-.078-.021-.14-.085-.2-.146-.024-.025-.048-.05-.073-.072l-.037-.031.032-.038c.023-.027.046-.061.069-.096.057-.085.116-.173.195-.181a4.7 4.7 0 0 1 .931-.001c.101.01.245.18.244.288 0 .107-.143.248-.25.275-.111.028-.23.022-.344.016-.036-.002-.072-.004-.108-.004h-.032c-.041 0-.083.003-.125.006-.042.002-.085.005-.129.005M38.213 41.665c-.14 0-.288.032-.415-.01-.098-.032-.169-.155-.252-.237.076-.08.147-.223.228-.23.306-.027.616-.027.922.002.08.008.15.153.226.236-.077.08-.145.204-.235.227-.15.037-.315.01-.474.01v.002z"/>
        <g transform="translate(37.218 40.96)">
            <mask id="b" fill="#fff">
                <use xlink:href="#a"/>
            </mask>
            <path fill="#ee7822" d="M.39.456L.436.51c.052.063.101.122.157.14.08.026.173.02.271.013L.95.66V.656h.045c.048 0 .096.002.144.005.114.005.22.01.32-.015.048-.012.095-.071.14-.128l.044-.053-.044-.06C1.558.349 1.509.28 1.473.278A5.071 5.071 0 0 0 .56.275C.523.278.476.342.434.4A1.77 1.77 0 0 1 .39.456m.35.309A.567.567 0 0 1 .566.74C.486.715.426.643.368.573a1.166 1.166 0 0 0-.071-.08L.263.458.296.424C.318.4.34.37.363.34.418.265.476.187.55.18c.31-.027.623-.026.93.003.076.007.133.087.188.164.022.03.044.061.067.086l.031.034L1.735.5c-.023.024-.045.052-.067.08-.055.068-.112.14-.189.16a1.16 1.16 0 0 1-.345.016C1.099.754 1.064.752 1.03.752L.994.753C.954.753.912.756.87.76.827.76.783.765.74.765" mask="url(#b)"/>
        </g>
        <path fill="#ee7822" d="M39.834 2.964c-.022.032-.056.134-.114.152-.084.026-.215.03-.273-.022a5.823 5.823 0 0 1-.571-.597c-.12-.143-.015-.389.155-.404.162-.016.807.645.803.871"/>
        <path fill="#ee7822" d="M39.038 2.14h-.002c-.064.006-.124.057-.151.13a.193.193 0 0 0 .025.195c.186.223.377.423.566.593.04.037.155.036.23.012.025-.008.052-.06.068-.091a.43.43 0 0 1 .015-.028c-.012-.104-.178-.336-.396-.551-.194-.19-.319-.26-.355-.26m.552 1.043c-.064 0-.13-.014-.173-.053a5.914 5.914 0 0 1-.575-.601.292.292 0 0 1-.041-.294c.04-.108.128-.181.227-.19.113-.008.336.196.426.285.198.194.428.478.426.635v.015l-.01.012a.382.382 0 0 0-.016.032c-.026.05-.06.119-.121.138a.496.496 0 0 1-.143.02M2.719 38.93c-.047.088-.074.17-.126.228-.155.176-.306.365-.489.504-.085.065-.242.026-.366.034.013-.13-.015-.293.049-.382.142-.198.322-.371.505-.53.062-.054.186-.062.27-.04.06.015.1.114.157.186"/>
        <path fill="#ee7822" d="M1.786 39.647l.076.003c.084.004.17.009.216-.027.147-.11.275-.258.399-.401l.084-.097a.552.552 0 0 0 .076-.133l.028-.058a1.537 1.537 0 0 1-.034-.05c-.026-.042-.055-.088-.079-.094-.073-.019-.182-.012-.231.03a3.158 3.158 0 0 0-.498.523c-.035.049-.036.138-.036.225v.08m.157.1l-.086-.003a1.105 1.105 0 0 0-.118-.002l-.053.004.006-.056c.004-.04.004-.081.004-.123 0-.102 0-.208.053-.283.158-.22.357-.403.513-.539.075-.065.212-.074.31-.05.058.016.095.073.133.134a.76.76 0 0 0 .048.069l.02.025-.016.029c-.015.028-.028.056-.04.082-.027.058-.052.111-.091.156l-.084.095c-.127.147-.259.298-.412.415a.302.302 0 0 1-.187.047M1.025 40.72c-.047.09-.07.165-.115.216-.164.184-.322.38-.512.531-.076.062-.227.018-.344.022.005-.123-.035-.281.023-.361.142-.2.32-.38.505-.538.067-.058.2-.06.297-.043.056.011.097.112.146.173"/>
        <path fill="#ee7822" d="M.1 41.441l.074.006c.077.006.158.013.197-.018.151-.12.286-.274.416-.423l.09-.103c.025-.029.043-.068.066-.118a1.78 1.78 0 0 1 .028-.06 1.208 1.208 0 0 1-.027-.043c-.023-.036-.054-.084-.074-.088-.088-.016-.206-.013-.26.033-.207.178-.37.351-.497.53-.03.04-.024.125-.018.206l.004.078m.172.107c-.034 0-.07-.003-.104-.006-.039-.004-.078-.007-.112-.006l-.048.002.002-.051c.001-.037-.002-.077-.004-.117-.007-.099-.014-.202.036-.271.131-.185.3-.363.512-.546.082-.07.231-.072.333-.053.058.011.096.071.133.13a.758.758 0 0 0 .04.06l.02.024-.015.029-.04.083c-.024.055-.046.103-.081.142l-.09.103c-.133.151-.27.308-.428.434a.24.24 0 0 1-.154.043M31.698 40.378c-.031-.016-.104-.032-.15-.078-.182-.18-.371-.355-.52-.562-.055-.076-.042-.259.01-.348.028-.05.235-.054.3.002.207.178.397.383.57.598.125.154.016.375-.21.388"/>
        <path fill="#ee7822" d="M31.175 39.4c-.046 0-.089.006-.101.018-.044.076-.05.235-.011.291.123.171.279.323.429.47l.087.086c.027.026.07.042.101.054l.025.01c.093-.008.168-.058.198-.132a.17.17 0 0 0-.029-.176 4.537 4.537 0 0 0-.564-.592c-.025-.02-.082-.03-.135-.03zm.514 1.026l-.01-.005-.029-.012c-.039-.014-.092-.034-.133-.074l-.086-.085a3.796 3.796 0 0 1-.44-.483c-.067-.093-.052-.299.008-.402.016-.028.048-.046.1-.055.074-.013.206-.008.267.045.193.165.38.362.577.603.064.08.08.183.043.276a.32.32 0 0 1-.286.191h-.011zM39.897 4.118c-.048.083-.074.154-.12.205-.164.182-.323.376-.51.527-.076.062-.222.026-.336.035 0-.123-.047-.284.01-.362a3.74 3.74 0 0 1 .542-.58c.056-.05.189-.04.272-.01.059.02.094.118.142.185"/>
        <path fill="#ee7822" d="M38.975 4.836c.023 0 .047 0 .071.002.077.003.154.006.193-.026.15-.12.282-.27.411-.416l.095-.106c.026-.03.047-.07.07-.116l.028-.053a1.376 1.376 0 0 1-.027-.047c-.024-.04-.05-.088-.075-.096-.087-.03-.194-.03-.23 0-.23.206-.4.388-.535.575-.028.037-.018.125-.01.203l.009.08zm-.089.1v-.051c0-.037-.004-.078-.009-.118-.01-.1-.022-.205.027-.273.14-.191.314-.378.55-.588.077-.068.23-.049.315-.019.056.02.09.08.124.138a.677.677 0 0 0 .04.064l.018.026-.016.028-.04.076a.62.62 0 0 1-.085.137l-.094.105c-.131.148-.267.302-.422.427-.065.053-.159.049-.252.045a.931.931 0 0 0-.108 0l-.048.003zM1.917 40.468c.086.045.16.064.207.111.175.174.36.342.504.542.058.08.018.24.022.363-.115-.004-.265.04-.34-.02a3.614 3.614 0 0 1-.53-.558c-.05-.062-.051-.195-.03-.284.016-.062.107-.102.167-.154"/>
        <path fill="#ee7822" d="M1.923 40.524a1.23 1.23 0 0 1-.043.03c-.037.026-.08.055-.086.08-.02.08-.016.196.02.241.191.24.357.415.524.551.037.03.116.023.193.016l.074-.005c0-.026.003-.053.005-.08.005-.081.011-.166-.018-.207a3.49 3.49 0 0 0-.412-.45l-.087-.086a.366.366 0 0 0-.111-.063l-.06-.027m.512 1.02c-.058 0-.11-.009-.15-.042a3.627 3.627 0 0 1-.54-.565c-.066-.083-.058-.241-.037-.327.015-.06.07-.1.124-.136.02-.014.04-.028.058-.043l.022-.02.026.014c.028.015.055.027.08.038.054.024.1.044.138.081l.086.085c.148.144.3.293.423.464.05.07.043.172.035.272-.002.04-.005.08-.004.117l.002.05h-.048c-.036-.003-.072.002-.11.005-.036.003-.071.007-.105.007M30.231 39.551c-.05.09-.076.162-.121.214-.158.176-.308.368-.492.507-.085.065-.242.022-.366.028.01-.122-.022-.278.037-.359.144-.2.32-.378.507-.536.065-.056.2-.052.294-.03.057.015.095.115.141.176"/>
        <path fill="#ee7822" d="M29.299 40.252c.025 0 .052.002.078.004.084.006.17.012.215-.023.141-.107.265-.25.385-.388l.1-.113c.026-.03.045-.069.07-.118l.03-.06-.026-.041c-.02-.036-.05-.086-.071-.09-.09-.022-.208-.022-.256.02-.202.17-.37.348-.5.527-.03.043-.028.127-.026.208v.074m.173.104a1.44 1.44 0 0 1-.1-.004 1.144 1.144 0 0 0-.117-.004l-.052.002.005-.054c.002-.037.001-.076 0-.116-.002-.098-.004-.199.046-.268.134-.185.307-.368.514-.544.08-.068.23-.063.333-.039.057.014.093.074.128.133a.604.604 0 0 0 .038.06l.02.025-.016.028c-.017.03-.03.058-.043.083a.609.609 0 0 1-.085.14 9.473 9.473 0 0 0-.098.111c-.123.142-.25.289-.4.402a.28.28 0 0 1-.173.045M41.577 4.718c-.044.059-.083.16-.152.192-.068.032-.194.028-.245-.02a5.126 5.126 0 0 1-.572-.605c-.048-.063-.036-.23.01-.307.035-.057.21-.1.253-.061.234.212.447.45.666.682.018.02.02.057.04.119"/>
        <path fill="#ee7822" d="M40.817 3.95c-.048 0-.143.025-.16.055-.039.063-.046.207-.014.25.151.192.331.383.566.6.035.031.14.038.198.011.035-.016.066-.068.094-.114.009-.014.017-.03.026-.042a.687.687 0 0 1-.01-.038c-.004-.016-.01-.036-.013-.04l-.128-.136a9.33 9.33 0 0 0-.535-.543.05.05 0 0 0-.024-.004m.5 1.03a.253.253 0 0 1-.167-.053 5.066 5.066 0 0 1-.576-.611c-.064-.08-.05-.27.006-.362.032-.054.12-.084.185-.094.043-.008.102-.01.135.022.19.172.368.363.54.547l.128.137c.02.022.028.05.036.082a.647.647 0 0 0 .016.055l.008.025-.015.02a.646.646 0 0 0-.036.056c-.034.058-.073.122-.134.15a.309.309 0 0 1-.126.026M31.649 37.516c.221-.008.355.173.24.326-.19.25-.418.471-.65.682-.043.04-.207 0-.258-.059-.05-.056-.067-.222-.025-.275.179-.223.383-.425.582-.628.032-.033.09-.038.11-.046"/>
        <path fill="#ee7822" d="M31.656 37.564l-.02.005c-.021.005-.052.012-.066.027l-.076.077c-.171.174-.349.355-.503.548-.025.031-.014.17.023.212.04.045.171.071.196.054.22-.2.45-.42.644-.675.034-.046.041-.095.02-.14-.032-.067-.113-.108-.21-.108h-.008m-.478 1.024a.351.351 0 0 1-.23-.09c-.061-.07-.086-.264-.026-.338.157-.198.336-.38.51-.556l.075-.077c.033-.033.078-.044.109-.051a.152.152 0 0 0 .017-.005l.014-.003h.016c.132 0 .245.062.292.16a.23.23 0 0 1-.03.243 5.079 5.079 0 0 1-.656.689c-.022.02-.054.028-.091.028M29.457 37.467c.073.05.154.088.217.149.152.15.317.295.436.473.064.095.046.252.064.382-.124-.004-.283.042-.365-.021a2.989 2.989 0 0 1-.507-.532c-.05-.064-.044-.192-.036-.289.005-.084.049-.164.076-.246l.115.084"/>
        <path fill="#ee7822" d="M29.363 37.457l-.008.02a.57.57 0 0 0-.045.155c-.005.071-.014.203.027.255.136.174.301.372.498.524.044.034.13.026.212.018l.076-.005-.004-.077c-.005-.09-.009-.176-.045-.23a2.524 2.524 0 0 0-.351-.389l-.08-.077c-.04-.038-.088-.067-.139-.099a1.751 1.751 0 0 1-.072-.044l-.069-.051zm.579 1.075a.255.255 0 0 1-.16-.044 3.023 3.023 0 0 1-.515-.54c-.06-.075-.055-.206-.047-.323.005-.065.03-.126.052-.185a1.46 1.46 0 0 0 .027-.072l.02-.06.163.12.067.042c.053.032.108.065.155.111l.08.077c.128.124.261.252.363.403.052.077.057.18.062.281.002.041.004.083.01.121l.008.057-.055-.002c-.037-.001-.077.003-.117.006-.038.004-.076.008-.113.008zM.795 39.799c-.082-.056-.155-.09-.21-.146-.16-.16-.33-.314-.46-.498-.06-.084-.037-.235-.052-.355.115-.008.269-.068.338-.013.204.166.387.368.554.577.05.062.047.2.022.29-.018.059-.118.092-.192.145"/>
        <path fill="#ee7822" d="M.122 38.842l.003.075c.001.08.003.163.036.21.104.147.238.278.367.405l.088.087c.033.033.075.06.124.09l.055.033.054-.031c.04-.023.088-.05.094-.072.023-.08.024-.2-.012-.244a3.669 3.669 0 0 0-.548-.57c-.031-.025-.113-.01-.186.004-.025.005-.05.01-.075.013zm.673 1.014L.77 39.84l-.075-.049c-.052-.031-.1-.061-.141-.102l-.087-.086a3.165 3.165 0 0 1-.379-.418c-.05-.07-.052-.17-.054-.265 0-.039-.001-.077-.005-.113l-.006-.05.048-.004a.954.954 0 0 0 .11-.017c.096-.018.194-.037.257.014.18.146.36.332.562.584.068.084.054.25.03.334-.018.06-.076.092-.138.128-.024.013-.05.028-.072.044l-.025.017zM41.611 2.33c-.04.087-.056.153-.095.195-.172.192-.337.396-.534.554-.073.058-.228.001-.346-.003.007-.113-.027-.261.028-.333.163-.213.353-.404.549-.584.052-.048.174-.055.243-.025.067.03.106.13.155.196"/>
        <path fill="#ee7822" d="M40.682 3.032l.08.011c.073.012.157.025.193-.002.154-.123.291-.28.424-.43l.104-.118c.02-.022.034-.056.051-.1l.025-.058a1.58 1.58 0 0 1-.028-.046c-.029-.047-.059-.095-.093-.11-.057-.026-.16-.017-.195.016a4.434 4.434 0 0 0-.544.578c-.027.035-.023.112-.02.187l.003.072m.204.12a.889.889 0 0 1-.139-.014c-.038-.007-.077-.013-.112-.014l-.047-.002.003-.05c.002-.033 0-.07-.001-.107-.005-.093-.01-.189.04-.252a4.49 4.49 0 0 1 .553-.59c.067-.062.208-.069.29-.033.06.026.097.088.133.148l.04.062.019.024-.013.027a1.513 1.513 0 0 0-.035.08.416.416 0 0 1-.068.128c-.035.038-.07.077-.104.117-.136.154-.275.313-.436.441a.191.191 0 0 1-.123.036M27.347 3.019h-2.969c-.08 0-.172.023-.236-.012-.086-.046-.216-.148-.208-.208.012-.097.11-.2.196-.262.056-.04.155-.016.235-.016h5.997c.07 0 .155-.024.206.01.092.06.162.155.24.235-.084.083-.163.23-.253.238-.307.031-.619.014-.929.015h-2.279"/>
        <path fill="#ee7822" d="M24.228 2.562c-.03 0-.057.003-.073.014-.08.06-.167.153-.176.229.002.024.082.105.183.16.034.018.089.014.141.01a.93.93 0 0 1 .076-.004h5.252c.081 0 .162 0 .244.002.223.003.453.007.676-.016.043-.004.097-.071.145-.131l.049-.06-.038-.04c-.053-.06-.103-.116-.162-.155-.024-.015-.07-.011-.115-.007-.023.002-.046.004-.068.004h-5.998a.926.926 0 0 1-.07-.003l-.066-.003m.007.512a.233.233 0 0 1-.114-.024c-.002-.002-.248-.135-.232-.258.018-.141.17-.261.215-.294.054-.039.127-.034.196-.028l.064.003h5.998c.02 0 .04-.002.06-.004.06-.006.121-.011.17.02a.976.976 0 0 1 .18.17c.023.025.045.05.068.073l.034.035-.035.034c-.025.025-.05.056-.074.087-.062.077-.125.156-.206.164-.228.023-.46.02-.685.017a12.82 12.82 0 0 0-.243-.003h-5.253c-.023 0-.045.002-.068.004a.99.99 0 0 1-.075.004M27.397 4.314h1.77c.168 0 .345.007.346.245.002.238-.173.25-.341.25H25.54c-.173 0-.338-.027-.33-.261.007-.215.167-.234.326-.234h1.861"/>
        <path fill="#ee7822" d="M25.535 4.362c-.178 0-.275.03-.28.187-.003.068.01.116.04.149.05.055.152.063.245.063h3.632c.104 0 .203-.005.254-.06.029-.03.043-.076.042-.141-.001-.185-.114-.198-.3-.198h-3.633zm.005.494c-.117 0-.236-.01-.31-.092-.047-.051-.069-.124-.065-.218.009-.273.243-.28.363-.28h3.64c.155 0 .388 0 .39.293 0 .09-.022.16-.068.21-.076.08-.194.087-.318.087H25.54z"/>
    </g>
</svg>
