<svg xmlns="http://www.w3.org/2000/svg" xmlns:xlink="http://www.w3.org/1999/xlink" width="42" height="37" viewBox="0 0 42 37">
    <defs>
        <path id="a" d="M0 1.354V.237h.998v1.117H0z"/>
    </defs>
    <g fill="none" fill-rule="evenodd">
        <path fill="#ee7822" d="M30.194 9.186c.412-.334.754-.637 1.122-.899.157-.112.366-.198.553-.199 2.127-.013 4.254-.008 6.381-.01.558 0 .707-.158.707-.749V2.785c0-.645-.137-.786-.76-.786h-8.742c-.078 0-.156-.003-.233.002-.351.028-.524.215-.533.59-.006.287-.001.574-.001.86 0 1.33-.002 2.661.001 3.991.001.484.18.664.637.668.194.002.388.004.583 0 .195-.004.286.095.285.297v.78zM4.859 27.86h31.818V8.584c-.04-.015-.058-.027-.076-.027-1.574-.003-3.148-.006-4.722 0a.511.511 0 0 0-.283.122c-.42.33-.828.68-1.252 1.005-.13.1-.297.149-.448.221-.053-.174-.135-.344-.152-.522-.026-.268-.007-.54-.007-.72-.438-.127-.834-.17-1.16-.354-.39-.218-.392-.688-.384-1.13H5.779c-.661 0-.936.303-.936 1.03l.001 19.314c0 .11.01.218.015.337zM28.2 6.698v-.366c0-1.248-.003-2.497 0-3.746.003-.699.391-1.109 1.052-1.11h9.155c.639.002 1.04.412 1.043 1.092.007 1.648.007 3.296 0 4.945-.003.656-.402 1.064-1.03 1.077-.406.008-.813.001-1.262.001V27.8c0 .55-.004.553-.513.553H4.894c-.504 0-.505 0-.505-.524 0-6.552.01-13.104-.011-19.657-.003-.947.672-1.485 1.415-1.483 7.328.016 14.655.01 21.983.01h.422z"/>
        <path fill="#ee7822" d="M29.92 8.058c.103 0 .184.029.238.086.057.058.085.147.085.263v.675l.274-.228c.264-.219.513-.425.772-.61.18-.128.397-.206.579-.207 1.57-.01 3.167-.01 4.713-.01h1.67c.527 0 .657-.137.657-.698V2.786c0-.619-.113-.736-.71-.736h-8.802c-.057-.001-.114-.001-.17.003-.329.026-.479.192-.487.54-.005.2-.004.404-.003.601a56 56 0 0 1 0 .258V4.56c0 .96 0 1.921.002 2.882.001.452.155.613.588.616h.038c.181.003.363.004.544 0h.011zm.224 1.233v-.389-.495c.001-.087-.018-.151-.054-.19-.038-.038-.097-.056-.18-.056-.183.004-.365.002-.547.001h-.038c-.485-.004-.684-.212-.685-.72-.002-.96-.002-1.921-.002-2.882V3.452v-.257a19.43 19.43 0 0 1 .003-.604c.01-.402.198-.612.577-.64.06-.005.12-.005.18-.005H38.196c.65 0 .809.165.81.84v4.543c-.001.622-.17.801-.757.801h-1.669c-1.544 0-3.141 0-4.712.01a.978.978 0 0 0-.525.19c-.256.183-.504.388-.766.605-.114.095-.231.192-.355.292l-.079.064zM4.906 27.81h31.722V8.619a.105.105 0 0 0-.007-.002.133.133 0 0 0-.02-.009h-.454a772.881 772.881 0 0 0-4.268 0 .46.46 0 0 0-.254.112c-.182.144-.362.29-.542.438-.23.188-.47.382-.71.567-.094.073-.206.12-.314.165a2.78 2.78 0 0 0-.142.062l-.05.025-.017-.056a3.38 3.38 0 0 0-.054-.158 1.567 1.567 0 0 1-.101-.375c-.02-.198-.014-.4-.01-.561l.003-.125c-.125-.035-.247-.064-.366-.092-.278-.065-.54-.126-.768-.255-.41-.23-.418-.717-.411-1.124H5.779c-.63 0-.887.283-.887.977l.001 19.315c0 .072.005.144.01.22l.003.066zm31.82.103H4.813l-.002-.05-.007-.114a3.694 3.694 0 0 1-.009-.225V8.208c0-.757.294-1.08.984-1.08h22.464l-.001.052c-.009.495.012.89.358 1.084.216.122.472.181.744.245.13.031.266.063.406.103l.036.01v.04l-.003.168c-.004.158-.01.356.01.548.011.116.052.229.094.349l.039.108.097-.041c.107-.045.208-.087.293-.152.239-.184.477-.378.707-.566.18-.148.36-.294.543-.439.05-.04.182-.132.313-.132 1.423-.005 2.869-.003 4.268 0h.454c.021 0 .039.008.059.017l.033.014.033.012v19.364zM5.79 6.739c-.387 0-.738.146-.99.412-.245.26-.374.612-.373 1.02.015 4.93.014 9.942.012 14.789l-.001 4.869c0 .472 0 .472.455.472h31.75c.464 0 .464 0 .464-.502V8.54h.05l.419.002c.29.001.566.003.842-.003.603-.013.979-.406.981-1.025.008-1.682.008-3.346 0-4.945-.002-.65-.374-1.039-.993-1.04-3.052-.002-6.104-.002-9.155 0-.635 0-1 .386-1.002 1.058-.003.884-.002 1.77-.002 2.654v1.51h-5.289c-5.626 0-11.443.002-17.165-.01H5.79zm30.853 21.665H4.893c-.533 0-.553-.021-.553-.575v-4.87c.003-4.846.004-9.858-.011-14.788-.002-.436.137-.814.402-1.093a1.44 1.44 0 0 1 1.059-.442h.003c5.722.013 11.54.012 17.165.01h5.192V5.24c-.002-.885-.002-1.77 0-2.655.003-.726.414-1.16 1.1-1.16 3.052-.002 6.104-.002 9.156 0 .67 0 1.088.439 1.092 1.143.007 1.599.007 3.263 0 4.945-.003.682-.417 1.114-1.078 1.128-.277.006-.553.005-.845.003h-.37v19.155c0 .577-.026.605-.562.605zM1.495 30.034c.375 1.226 1.646 2.177 2.911 2.187.884.006 1.77 0 2.653 0l29.912.001c1.096 0 1.976-.46 2.626-1.385.166-.237.282-.514.437-.803H1.495zm19.278-.535H39.87c.117 0 .236-.008.35.014.33.064.496.358.345.656-.583 1.146-1.349 2.086-2.612 2.405-.355.09-.73.134-1.095.134-10.72.008-21.439.005-32.159.006-1.448 0-2.563-.63-3.333-1.927-.113-.191-.241-.374-.34-.572-.18-.357.006-.69.388-.714.097-.007.194-.002.292-.002h19.067z"/>
        <path fill="#ee7822" d="M1.564 30.086c.392 1.164 1.626 2.074 2.843 2.083.614.004 1.229.003 1.843.002H36.971c1.08 0 1.95-.46 2.586-1.364.111-.158.2-.335.293-.523l.1-.198H1.564zm3.878 2.19c-.345 0-.69-.002-1.036-.004-1.28-.01-2.58-.985-2.957-2.222l-.021-.068h38.69l-.041.078a9.26 9.26 0 0 0-.14.272 4.13 4.13 0 0 1-.3.536c-.657.933-1.553 1.406-2.665 1.406H7.059a526.56 526.56 0 0 0-1.617.001zm-3.908-2.727c-.04 0-.078 0-.117.003-.167.011-.301.087-.367.21-.065.123-.058.274.019.43.064.128.143.253.219.374l.12.193c.75 1.263 1.857 1.904 3.29 1.904h7.336c8.274 0 16.55 0 24.824-.006.366 0 .74-.047 1.084-.133 1.087-.275 1.882-1.008 2.58-2.38a.393.393 0 0 0 .018-.345.441.441 0 0 0-.33-.236 1.3 1.3 0 0 0-.264-.013l-.076.001H24.592L1.62 29.55l-.085-.001zM4.7 32.766c-1.47 0-2.606-.657-3.375-1.952-.038-.064-.078-.128-.118-.191-.077-.123-.157-.25-.224-.384-.092-.184-.098-.376-.017-.527.082-.154.244-.25.446-.263.07-.005.14-.004.21-.003l.084.001h38.24c.094-.002.19-.004.283.015a.537.537 0 0 1 .4.292.498.498 0 0 1-.02.44c-.702 1.38-1.542 2.152-2.643 2.43-.35.089-.734.136-1.107.136-8.275.006-16.55.006-24.824.006H4.699zM25.37 3.227c-.006-.415-.348-.768-.731-.755-.405.013-.708.354-.698.782.01.404.331.738.713.74.393.002.72-.35.715-.767m.497.028c-.008.684-.576 1.267-1.223 1.258-.655-.01-1.2-.594-1.197-1.285.002-.705.566-1.282 1.237-1.268.654.013 1.19.602 1.183 1.295"/>
        <path fill="#ee7822" d="M24.658 2.523h-.018c-.38.013-.66.327-.65.73.01.378.307.687.664.689h.004c.174 0 .339-.074.465-.208a.724.724 0 0 0 .197-.507.741.741 0 0 0-.215-.508.639.639 0 0 0-.447-.196m0 1.522h-.004c-.41-.002-.752-.356-.762-.79-.011-.454.316-.82.745-.835a.735.735 0 0 1 .536.225.845.845 0 0 1 .245.581.828.828 0 0 1-.226.581.73.73 0 0 1-.534.238m.001-2.034c-.303 0-.592.124-.813.352-.225.232-.35.54-.35.866-.003.659.523 1.224 1.148 1.232h.014c.29 0 .582-.128.801-.353.224-.23.354-.541.358-.853.007-.662-.512-1.23-1.135-1.244h-.023m-.002 2.554h-.015c-.677-.01-1.248-.622-1.245-1.337.001-.354.137-.687.38-.939.246-.252.565-.391.907-.381.676.014 1.24.63 1.231 1.348-.004.34-.145.677-.387.926a1.23 1.23 0 0 1-.87.383M11.065 36.193c.395.005.73-.336.735-.749.004-.404-.338-.76-.727-.759-.38.002-.707.336-.717.735-.011.41.316.767.709.773m1.221-.776c-.004.687-.557 1.26-1.215 1.259-.656 0-1.205-.578-1.21-1.268-.003-.694.575-1.293 1.234-1.28.655.014 1.196.599 1.191 1.29"/>
        <path fill="#ee7822" d="M11.065 36.14h.009a.657.657 0 0 0 .47-.202.714.714 0 0 0 .207-.494.716.716 0 0 0-.197-.49.669.669 0 0 0-.48-.217c-.353.002-.66.315-.67.685a.711.711 0 0 0 .188.498.66.66 0 0 0 .473.22m.009.104h-.01a.756.756 0 0 1-.543-.252.817.817 0 0 1-.215-.573c.012-.424.363-.783.767-.785h.003c.2 0 .4.09.548.247.145.155.227.36.225.564a.819.819 0 0 1-.236.567.753.753 0 0 1-.539.232m0-2.064c-.295 0-.59.13-.81.36a1.254 1.254 0 0 0-.353.868c.004.658.535 1.215 1.16 1.216h.002c.627 0 1.16-.552 1.164-1.207.004-.658-.52-1.224-1.143-1.237h-.02m0 2.548h-.003c-.678-.001-1.254-.606-1.258-1.32a1.361 1.361 0 0 1 .382-.941 1.232 1.232 0 0 1 .9-.39c.677.014 1.245.628 1.24 1.34-.004.711-.582 1.31-1.262 1.31M6.74 1.962H4.876c-.16 0-.34-.003-.347-.226-.006-.234.17-.263.349-.263 1.242.001 2.484.002 3.727 0 .17 0 .332.023.331.241 0 .215-.165.25-.333.251H6.74v-.003z"/>
        <path fill="#ee7822" d="M6.79 1.913h1.813c.201 0 .284-.058.284-.199 0-.059-.013-.102-.04-.13-.05-.053-.147-.057-.242-.06-1.242.003-2.485.002-3.727.001-.098 0-.204.008-.259.067-.03.032-.042.079-.04.143.004.164.115.176.297.176l1.913.002zm1.015.104h-.533l-2.396-.003c-.154 0-.388 0-.396-.276a.297.297 0 0 1 .07-.218c.079-.087.21-.098.328-.098 1.242 0 2.484.001 3.727-.001.114-.002.237.01.312.09.046.048.069.117.068.204 0 .301-.287.301-.382.302h-.798zM26.636 35.09c-.621 0-1.241-.003-1.861 0-.169.001-.336-.017-.336-.235 0-.22.174-.237.338-.237h3.722l.058.001c.162.006.29.057.286.262-.005.205-.145.208-.288.208h-1.92"/>
        <path fill="#ee7822" d="M24.777 34.67c-.1 0-.2.007-.25.06-.027.027-.04.069-.04.125 0 .057.014.098.04.126.05.052.147.06.247.058.446-.003.891-.003 1.336-.002H28.558c.162 0 .233-.015.236-.157.003-.144-.063-.203-.239-.21h-3.778zm-.016.472c-.108 0-.227-.009-.303-.088a.28.28 0 0 1-.068-.2c0-.083.022-.15.068-.198.078-.083.206-.09.319-.09h3.722c.02 0 .04 0 .06.002.084.002.34.012.333.315-.006.258-.207.259-.337.258H26.11c-.444-.001-.89-.002-1.335 0h-.014zM1.077 11.411v1.535c.001.189-.023.375-.246.37-.209-.004-.218-.186-.218-.36.002-1.035.002-2.069 0-3.103 0-.175.012-.351.225-.351.23 0 .241.191.241.374v1.535h-.002z"/>
        <path fill="#ee7822" d="M.839 9.553c-.1 0-.132.043-.15.08a.577.577 0 0 0-.027.22c.002 1.035.002 2.068 0 3.102 0 .208.025.307.17.31.066.002.105-.013.135-.044.055-.058.062-.17.062-.274-.002-.37-.002-.737-.001-1.106l.002-1.965A.625.625 0 0 0 1 9.642C.984 9.6.948 9.553.84 9.553m0 3.815H.83c-.267-.006-.266-.26-.266-.413.002-1.034.002-2.067 0-3.102 0-.091.002-.187.037-.263.042-.093.121-.14.237-.14.123 0 .208.05.252.148a.71.71 0 0 1 .038.278l-.002 1.965.001 1.105c0 .131-.01.265-.091.348a.262.262 0 0 1-.197.074M39.709 17.131v1.534c.001.177-.018.354-.227.354-.209 0-.227-.178-.227-.354v-3.13c0-.178.031-.347.242-.337.19.009.213.173.212.338v1.595"/>
        <path fill="#ee7822" d="M39.48 15.25c-.052 0-.09.012-.116.039-.053.053-.06.16-.06.246.001 1.044.002 2.087 0 3.13 0 .105.007.208.056.26.028.029.067.043.122.043.056 0 .096-.014.122-.043.05-.052.057-.156.056-.26v-1.99-1.14c0-.205-.042-.28-.165-.285h-.016m.003 3.821a.25.25 0 0 1-.19-.073c-.076-.079-.086-.206-.086-.332v-3.13c0-.108.01-.242.09-.322.048-.05.114-.073.203-.068.26.012.26.277.26.39l-.001 1.14V18.665c0 .125-.009.253-.084.332a.253.253 0 0 1-.192.073M3.58.059h1.28c.162-.002.303.034.302.24 0 .203-.144.245-.303.245H2.268c-.161 0-.303-.049-.303-.247 0-.202.14-.24.304-.24.436.003.873.002 1.31.002"/>
        <path fill="#ee7822" d="M2.263.11c-.105 0-.171.018-.209.057-.027.029-.04.071-.04.13 0 .097.03.195.254.195.864 0 1.728.002 2.592 0 .18 0 .253-.056.253-.194 0-.06-.013-.103-.04-.132C5.036.127 4.97.11 4.865.11H2.263zm1.5.486H2.268c-.291 0-.352-.163-.352-.3 0-.086.023-.154.069-.203.074-.077.192-.087.277-.087h.007c.31.002.62.001.93.001H4.86c.087 0 .208.008.282.086.046.048.07.117.07.206-.001.197-.12.297-.352.297H3.763zM29.812 36.502c-.436 0-.872-.004-1.308.002-.166.002-.32-.043-.286-.237.016-.093.178-.223.276-.225.871-.018 1.743-.012 2.615-.01.155.001.305.037.295.248-.01.207-.154.225-.313.223-.426-.004-.853-.001-1.279-.001"/>
        <path fill="#ee7822" d="M29.947 36.081c-.483 0-.97.003-1.452.013-.076.001-.217.114-.229.182-.009.05-.003.088.018.115.033.041.112.061.22.06.309-.002.619-.002.928-.001h.749c.304 0 .607-.001.91.002.172-.001.257-.024.264-.174.003-.06-.009-.104-.035-.134-.037-.04-.104-.06-.21-.06h-.318c-.279-.002-.56-.003-.845-.003zm-1.454.474c-.138 0-.231-.032-.284-.098-.04-.05-.054-.118-.04-.2.02-.114.202-.264.324-.267.766-.015 1.546-.012 2.3-.01l.317.001c.085 0 .207.01.281.092.046.05.067.12.062.21-.013.276-.24.272-.362.272-.304-.003-.606-.002-.91-.002h-.749a53.34 53.34 0 0 0-.927.002h-.012zM39.712 20.928c0 .194.025.394-.01.581-.019.103-.139.184-.213.276-.079-.087-.219-.17-.225-.262a8.867 8.867 0 0 1 .001-1.164c.006-.09.148-.17.228-.255.074.09.192.17.212.273.035.176.01.367.01.55h-.003z"/>
        <path fill="#ee7822" d="M39.49 20.177a1.576 1.576 0 0 1-.054.046c-.053.045-.119.1-.121.14a8.835 8.835 0 0 0-.002 1.157c.003.041.065.096.12.144l.054.047a2.6 2.6 0 0 1 .046-.047c.055-.055.111-.11.121-.165.024-.126.019-.258.014-.397a4.333 4.333 0 0 1-.005-.174l.003-.052.004-.115c.006-.132.01-.256-.013-.373-.01-.055-.067-.11-.12-.164a2.6 2.6 0 0 1-.047-.047zm0 1.685l-.037-.042c-.023-.025-.053-.05-.082-.076-.074-.065-.15-.132-.156-.217a8.912 8.912 0 0 1 .002-1.172c.005-.084.083-.15.158-.213.03-.024.06-.05.083-.075l.037-.04.035.043c.022.027.048.053.074.079.065.064.132.131.149.217.026.13.02.267.015.4-.002.054-.004.108-.004.162l-.002.051c0 .04.002.08.004.119.005.139.01.283-.015.42-.016.088-.084.156-.15.22-.027.027-.053.053-.075.08l-.035.044zM30.572 34.619c.193 0 .39-.023.578.01.095.016.173.135.259.207-.08.084-.155.234-.238.24-.424.023-.85.021-1.274-.001-.076-.004-.146-.147-.219-.225.077-.077.145-.207.23-.219.217-.031.442-.01.664-.01v-.002z"/>
        <path fill="#ee7822" d="M29.745 34.851c.014.017.027.036.04.055.036.048.085.116.115.117.439.024.865.024 1.268 0 .035-.002.087-.071.128-.127l.043-.056a2.234 2.234 0 0 1-.043-.044c-.051-.052-.104-.107-.154-.116-.128-.023-.266-.018-.399-.013l-.122.003v.002h-.049l-.192-.003c-.154-.004-.315-.009-.466.013-.039.006-.086.066-.128.118a1.31 1.31 0 0 1-.04.051m.803.293c-.214 0-.433-.006-.654-.018-.075-.004-.132-.082-.187-.158a.947.947 0 0 0-.065-.082l-.034-.037.036-.036c.022-.023.044-.05.066-.079.055-.07.113-.143.19-.154.16-.023.324-.018.482-.015l.148.004.041-.002.168-.003c.137-.006.28-.01.418.014.08.014.145.08.207.144.024.026.05.052.074.074l.043.036-.038.04a.937.937 0 0 0-.07.088c-.06.08-.121.162-.2.167-.203.011-.412.017-.625.017M2.827 1.984c-.203 0-.41.023-.607-.01-.096-.017-.174-.142-.26-.218.081-.082.158-.229.244-.234a10.43 10.43 0 0 1 1.245 0c.086.005.164.152.246.234-.086.076-.165.201-.26.218-.199.034-.405.01-.608.01"/>
        <path fill="#ee7822" d="M2.827 1.932c.06 0 .12.002.18.004.14.005.284.01.42-.013.05-.009.102-.067.154-.122l.044-.048c-.015-.017-.03-.036-.044-.055-.044-.055-.097-.123-.135-.125-.41-.025-.827-.025-1.24 0-.036.002-.09.07-.132.126l-.044.055.044.047c.051.056.104.113.154.122.134.023.279.018.418.013.06-.002.119-.004.178-.004h.003zm.356.112c-.06 0-.12-.002-.18-.004-.059-.002-.118-.004-.176-.004h-.003a4.99 4.99 0 0 0-.175.004c-.144.004-.293.01-.437-.015-.082-.015-.146-.085-.209-.152-.024-.027-.049-.054-.074-.077l-.042-.037.04-.04a.987.987 0 0 0 .071-.086c.06-.078.123-.158.203-.163a10.61 10.61 0 0 1 1.25 0c.081.004.144.085.205.162.024.031.048.062.073.086l.04.04-.042.038c-.026.022-.051.05-.076.076-.063.068-.127.138-.209.153a1.556 1.556 0 0 1-.26.019zM1.075 15.262c0 .184.03.376-.011.548-.025.107-.157.186-.241.277-.07-.094-.193-.184-.199-.283a8.905 8.905 0 0 1 0-1.13c.007-.097.135-.184.207-.275.081.094.211.177.233.285.039.184.011.385.011.578"/>
        <path fill="#ee7822" d="M.833 14.474l-.047.048c-.054.053-.11.11-.113.155-.023.37-.023.748 0 1.124.003.048.057.106.109.162l.044.05.053-.048c.06-.054.124-.11.137-.167.027-.114.021-.237.015-.368-.002-.056-.005-.112-.005-.167 0-.058.003-.117.005-.176a1.615 1.615 0 0 0-.015-.392c-.012-.058-.073-.116-.133-.172a1.957 1.957 0 0 1-.05-.049zm-.014 1.692l-.035-.047a.995.995 0 0 0-.073-.084c-.064-.07-.13-.141-.136-.227a9.016 9.016 0 0 1 0-1.138c.006-.086.076-.156.144-.223.026-.027.053-.054.075-.08l.036-.046.038.043c.024.028.052.055.08.081.072.067.145.137.164.227.029.137.023.28.017.42-.002.057-.005.114-.005.17 0 .054.003.109.005.163.006.132.013.269-.018.398-.02.09-.096.157-.17.221-.028.026-.058.052-.083.08l-.039.042zM6.588.061c.144 0 .294-.024.431.01.082.02.203.138.197.202-.009.092-.109.244-.18.25-.306.03-.617.03-.923.004C6.038.52 5.919.373 5.919.29c0-.077.122-.198.208-.22.146-.037.306-.01.46-.01"/>
        <path fill="#ee7822" d="M6.31.103a.708.708 0 0 0-.171.018c-.072.018-.17.125-.17.17-.001.057.099.18.148.184.305.027.613.026.915-.003.036-.004.127-.121.135-.205 0-.032-.093-.13-.159-.146C6.918.1 6.822.104 6.72.11a2.3 2.3 0 0 1-.13.004h-.002c-.047 0-.093-.002-.14-.005C6.4.106 6.355.103 6.31.103m.245.495a5.19 5.19 0 0 1-.446-.02c-.1-.008-.24-.177-.239-.287 0-.105.14-.244.245-.27.11-.028.225-.022.338-.016.045.002.09.004.135.004h.001l.127-.003c.104-.006.212-.01.314.015.095.023.244.156.235.256-.01.105-.119.288-.225.298-.16.015-.323.023-.485.023M26.781 36.504c-.136 0-.278.027-.404-.01-.09-.026-.215-.134-.22-.212-.003-.08.115-.231.19-.238.298-.028.601-.031.899 0 .081.009.148.17.222.26-.083.067-.16.17-.252.192-.139.033-.29.008-.435.008"/>
        <path fill="#ee7822" d="M26.805 36.073c-.147 0-.3.008-.454.022-.047.004-.147.132-.144.184.002.045.1.142.182.165.081.024.17.018.265.013.043-.002.081-.01.127-.005.044 0 .088.003.132.005.104.005.2.01.292-.012.051-.012.101-.06.154-.11l.041-.04a1.841 1.841 0 0 1-.04-.062c-.037-.056-.086-.134-.12-.137a4.133 4.133 0 0 0-.435-.023m-.27.492a.621.621 0 0 1-.172-.021c-.098-.029-.248-.15-.254-.259-.005-.108.134-.283.233-.293.319-.03.624-.03.909 0 .078.009.135.098.19.184.021.033.042.067.064.094l.034.042-.041.033c-.025.02-.049.043-.073.066-.06.058-.121.117-.198.135a1.139 1.139 0 0 1-.318.014 2.647 2.647 0 0 0-.128-.004h-.003c-.039 0-.079.002-.119.004-.04.003-.082.005-.123.005M1.028 24.598c-.035.078-.048.144-.085.185-.173.191-.34.39-.536.554-.064.055-.202.014-.307.017-.002-.118-.052-.273.001-.346.152-.208.336-.392.527-.562.055-.05.18-.044.261-.018.058.018.094.112.139.17"/>
        <path fill="#ee7822" d="M.146 25.303l.064.005c.064.006.138.013.167-.011.16-.135.304-.297.444-.454l.086-.096c.018-.02.03-.052.046-.093l.019-.05a1.29 1.29 0 0 1-.025-.038c-.023-.038-.05-.081-.072-.089-.082-.026-.182-.022-.215.008-.225.2-.39.377-.52.554-.024.033-.012.116-.002.19l.008.074m.154.114c-.032 0-.066-.002-.099-.006a.922.922 0 0 0-.1-.006l-.049.002v-.052C.05 25.32.044 25.28.04 25.243c-.013-.098-.026-.2.023-.266.133-.184.303-.365.533-.57.076-.068.226-.054.307-.029.058.018.093.076.127.132.012.02.024.04.036.056l.02.025-.013.03c-.012.024-.02.048-.029.07a.383.383 0 0 1-.065.127l-.086.096c-.143.16-.29.324-.455.464-.037.03-.086.04-.138.04M2.015 23.731c-.126-.108-.213-.15-.245-.22-.03-.07-.04-.2.002-.248.187-.216.39-.421.602-.61.044-.04.17-.017.233.022.054.033.118.168.1.193-.216.286-.446.56-.692.863"/>
        <path fill="#ee7822" d="M2.446 22.684c-.02 0-.034.003-.04.008a6.57 6.57 0 0 0-.598.606c-.021.024-.021.129.007.19.015.035.056.066.112.11.025.017.052.038.081.062l.128-.156c.184-.225.358-.438.524-.657-.008-.033-.05-.11-.078-.127a.288.288 0 0 0-.136-.036zm-.426 1.12l-.036-.033c-.043-.036-.08-.065-.114-.09-.069-.052-.118-.09-.144-.148-.036-.081-.05-.236.01-.305.188-.218.392-.425.606-.615.066-.057.215-.028.29.017.059.037.114.145.124.2.006.03.002.053-.011.07-.17.225-.347.442-.535.672l-.19.232zM19.517 2.925c-.04.05-.084.144-.15.171-.068.027-.185.014-.236-.033a5.015 5.015 0 0 1-.55-.582c-.047-.06-.035-.218.01-.293.033-.056.2-.1.24-.064.231.211.444.446.66.676.017.018.013.058.026.125"/>
        <path fill="#ee7822" d="M18.782 2.16c-.043 0-.135.03-.15.056-.035.06-.044.194-.014.232.143.182.317.365.545.576.035.032.133.045.186.024.033-.013.064-.06.092-.102l.024-.035-.006-.044a.218.218 0 0 0-.006-.035l-.11-.117c-.175-.186-.355-.379-.545-.552a.044.044 0 0 0-.016-.003m.5 1.001a.279.279 0 0 1-.183-.06 5.004 5.004 0 0 1-.556-.588c-.062-.077-.048-.262.006-.352.035-.06.134-.09.187-.098.058-.01.1-.001.126.022.193.175.375.37.55.558l.114.12c.022.025.026.055.03.091.002.017.005.037.01.06l.004.025-.016.02c-.01.012-.021.029-.033.046-.033.051-.075.115-.137.14a.283.283 0 0 1-.102.016M19.535.55c-.047.087-.07.157-.114.206-.159.176-.312.364-.494.51-.074.06-.218.02-.33.027 0-.116-.046-.27.007-.342.153-.206.339-.388.527-.56.05-.046.166-.05.233-.024.068.027.113.117.171.183"/>
        <path fill="#ee7822" d="M18.643 1.24l.068.004c.073.005.15.01.186-.02.145-.114.273-.26.398-.402l.09-.102a.481.481 0 0 0 .065-.11c.008-.017.016-.035.026-.053a.982.982 0 0 1-.031-.04c-.033-.046-.065-.088-.098-.102-.056-.022-.152-.015-.184.015a3.965 3.965 0 0 0-.52.553c-.024.033-.015.115-.007.187.003.024.006.048.007.07m.15.111a1.27 1.27 0 0 1-.088-.004.928.928 0 0 0-.106-.003l-.051.003v-.054c0-.035-.005-.073-.01-.11-.01-.097-.022-.197.027-.263.16-.216.351-.4.534-.568.066-.06.202-.066.282-.033.06.023.101.08.141.134a.95.95 0 0 0 .049.062l.025.028-.018.033c-.016.029-.029.056-.04.08a.56.56 0 0 1-.082.135l-.09.101c-.127.145-.258.294-.41.415-.044.036-.102.044-.163.044M40.02 34.077c-.036.055-.068.155-.124.173-.08.027-.208.03-.264-.02a4.567 4.567 0 0 1-.55-.58c-.047-.059-.033-.217.011-.293.032-.056.197-.098.237-.064.226.202.434.426.645.647.024.025.025.074.046.137"/>
        <path fill="#ee7822" d="M39.281 33.33c-.042 0-.13.03-.146.053-.036.063-.045.197-.016.234.153.195.336.387.544.573.036.031.14.037.218.011.02-.007.046-.055.064-.09l.022-.042-.01-.04a.185.185 0 0 0-.017-.052l-.089-.094c-.177-.186-.36-.379-.553-.55a.044.044 0 0 0-.017-.003m.49.991a.258.258 0 0 1-.171-.052c-.213-.19-.4-.387-.556-.586-.066-.084-.041-.269.007-.353.031-.053.116-.085.18-.096.059-.01.104-.004.13.02.197.174.381.369.56.556l.088.093c.026.027.034.063.043.101.004.017.008.036.015.056l.008.025-.015.021c-.01.015-.019.034-.029.054-.03.056-.062.12-.12.14a.465.465 0 0 1-.14.021M39.175 36.087c-.036-.03-.126-.07-.16-.139-.028-.055-.015-.172.025-.22a7.65 7.65 0 0 1 .591-.622c.046-.043.17-.034.236 0 .053.028.099.127.104.197.012.171-.59.786-.796.784"/>
        <path fill="#ee7822" d="M39.734 35.129c-.031 0-.059.005-.07.016-.19.176-.381.378-.588.618-.025.03-.036.124-.017.162.019.038.066.067.103.091l.028.018c.102-.015.334-.197.532-.418.162-.183.202-.282.2-.309-.004-.059-.043-.137-.077-.155a.251.251 0 0 0-.11-.023m-.558 1.01H39.159l-.013-.01c-.009-.008-.02-.015-.034-.024-.046-.029-.109-.069-.14-.133a.302.302 0 0 1 .032-.278c.208-.243.403-.448.595-.627.067-.062.217-.046.29-.007.073.038.124.154.13.24.008.1-.119.266-.226.386-.14.157-.446.452-.616.452M41.696 33.534c-.036.068-.06.147-.11.203-.15.17-.296.354-.474.488-.083.063-.234.024-.355.031.014-.124-.012-.28.05-.366a3.37 3.37 0 0 1 .487-.518c.054-.049.157-.06.234-.051.084.01.164.064.245.098l-.077.115"/>
        <path fill="#ee7822" d="M40.81 34.204l.069.002c.08.005.162.01.205-.022.141-.108.265-.25.386-.39l.08-.092a.494.494 0 0 0 .07-.124c.01-.023.021-.047.033-.07l.003-.005.042-.062-.02-.01a.511.511 0 0 0-.156-.059c-.067-.007-.156.003-.196.039a3.35 3.35 0 0 0-.48.51c-.032.046-.034.13-.035.213l-.001.07m.152.11c-.029 0-.059-.003-.089-.004-.039-.002-.078-.005-.113-.003l-.059.004.007-.062c.004-.036.004-.077.005-.116.001-.1.003-.202.055-.274.143-.2.323-.37.494-.526.069-.063.19-.074.272-.063a.576.576 0 0 1 .187.068c.023.012.047.024.07.034l.058.024-.111.165-.03.062c-.023.052-.047.105-.086.15l-.08.091c-.123.143-.251.29-.401.404a.29.29 0 0 1-.179.045M17.618 1.389c-.084-.048-.152-.07-.198-.115-.162-.161-.337-.314-.464-.503-.06-.088-.022-.249-.029-.377.112.01.254-.022.328.038.183.147.345.329.494.515.052.064.07.19.05.273-.017.067-.115.112-.18.169"/>
        <path fill="#ee7822" d="M16.977.448l-.003.075c-.005.085-.01.173.021.218.1.147.232.275.36.4.034.031.066.063.099.095a.41.41 0 0 0 .105.065l.054.027.045-.033c.04-.029.087-.06.094-.089a.305.305 0 0 0-.04-.225 3.234 3.234 0 0 0-.486-.508c-.038-.03-.115-.028-.187-.026h-.062zm.647 1.003l-.029-.017a1.358 1.358 0 0 0-.077-.04.481.481 0 0 1-.132-.083l-.097-.095c-.132-.127-.269-.26-.373-.414-.052-.076-.046-.182-.04-.285.002-.04.004-.082.002-.12l-.002-.06.056.005a.88.88 0 0 0 .104.001c.092-.002.185-.004.25.048.16.13.314.29.5.523.067.082.083.23.06.319-.016.065-.076.107-.133.148-.022.016-.044.03-.063.047l-.026.023zM.219 22.556c.087.05.164.075.217.126.169.166.347.328.484.52.055.076.013.228.015.345-.112-.004-.258.038-.33-.021a3.448 3.448 0 0 1-.51-.535c-.05-.06-.054-.187-.036-.273.013-.06.1-.104.16-.162"/>
        <g transform="translate(0 22.255)">
            <mask id="b" fill="#fff">
                <use xlink:href="#a"/>
            </mask>
            <path fill="#ee7822" d="M.225.362l-.04.032C.152.42.113.452.108.474.091.55.096.659.132.704c.187.235.343.398.503.527.034.028.111.023.184.015.023-.002.046-.004.068-.004a1.51 1.51 0 0 1 .006-.071C.9 1.093.907 1.014.88.978.766.818.62.675.477.538L.403.465A.483.483 0 0 0 .28.39C.263.38.244.373.225.362m.502.992a.236.236 0 0 1-.152-.042A3.41 3.41 0 0 1 .056.77C-.004.693-.01.55.011.452.025.392.077.35.127.311A.616.616 0 0 0 .186.262L.21.237l.031.018c.028.016.055.03.08.042C.378.324.429.349.47.39L.543.46C.688.602.84.748.96.916c.049.068.04.168.03.264a1.09 1.09 0 0 0-.006.111l.001.054-.052-.002c-.033 0-.07.003-.106.005-.033.003-.067.006-.1.006" mask="url(#b)"/>
        </g>
        <path fill="#ee7822" d="M17.081 3.13c-.178.002-.303-.2-.196-.341.179-.237.387-.452.602-.653.045-.043.198-.022.253.029.054.05.096.217.062.258-.203.241-.429.462-.65.687-.017.018-.054.016-.071.02"/>
        <path fill="#ee7822" d="M17.569 2.164c-.024 0-.042.004-.05.01a5.156 5.156 0 0 0-.596.647.143.143 0 0 0-.013.15c.03.065.095.107.166.108l.018-.003a.104.104 0 0 0 .026-.005l.117-.118c.179-.18.363-.367.528-.565.01-.025-.02-.15-.057-.185-.029-.026-.093-.039-.14-.039zm-.49 1.018a.285.285 0 0 1-.257-.166.25.25 0 0 1 .024-.26c.157-.207.35-.416.608-.66.068-.062.247-.036.318.03.051.046.086.153.091.23.003.044-.005.079-.024.101-.168.2-.354.388-.534.57l-.118.12c-.025.026-.06.03-.082.032l-.023.003h-.003zM1.898 24.351c.092.052.169.078.222.13.163.16.338.314.464.503.057.084.01.246.01.372-.11-.014-.25.012-.327-.05a2.887 2.887 0 0 1-.473-.492c-.055-.072-.064-.204-.052-.303.007-.056.097-.103.156-.16"/>
        <path fill="#ee7822" d="M1.905 24.413l-.04.032c-.027.02-.072.056-.075.073-.01.09-.001.206.042.263.156.2.307.36.465.485.04.032.116.032.19.033l.061.001.007-.075c.009-.083.018-.169-.01-.211a2.64 2.64 0 0 0-.373-.413l-.085-.082a.475.475 0 0 0-.124-.076 2.458 2.458 0 0 1-.058-.03zm.74 1l-.055-.006c-.033-.004-.07-.004-.105-.004-.089-.002-.181-.003-.247-.055a2.863 2.863 0 0 1-.482-.502c-.066-.086-.075-.232-.063-.341.008-.06.062-.103.114-.144a.686.686 0 0 0 .058-.048l.026-.025.03.018.084.044a.554.554 0 0 1 .149.093l.084.082c.137.132.279.268.386.43.05.073.039.18.028.281-.003.041-.008.082-.008.12v.058zM41.677 35.893c-.02.031-.05.132-.106.15-.08.026-.208.03-.265-.02a5.513 5.513 0 0 1-.555-.584c-.042-.051-.042-.175-.014-.245.023-.06.11-.117.175-.127.158-.023.761.604.765.826"/>
        <path fill="#ee7822" d="M40.922 35.119h-.003c-.052.008-.122.056-.137.095-.023.058-.02.16.006.19.186.226.366.415.55.58.035.03.139.036.219.01.02-.007.045-.062.058-.088l.012-.025c-.017-.117-.221-.388-.451-.595-.148-.133-.229-.167-.254-.167m.523.994c-.063 0-.128-.012-.17-.05a5.522 5.522 0 0 1-.561-.59c-.056-.067-.057-.212-.023-.299.031-.08.136-.146.214-.158.07-.012.182.055.335.191.186.168.483.502.486.686v.016l-.008.013a.233.233 0 0 0-.015.03c-.024.05-.056.12-.117.14a.483.483 0 0 1-.141.021M28.602 23.195H28.6c0-.235.014-.471-.004-.705-.023-.309-.251-.501-.558-.502-.325-.001-.533.17-.546.501-.018.46-.017.92 0 1.378.004.077.123.203.2.213.22.03.445.007.667.012.192.005.255-.095.246-.285-.009-.204-.002-.408-.002-.612m-12.92-6.736c-.02.069-.04.106-.041.143-.002 1.208 0 2.415-.003 3.621 0 .17.07.224.226.243 1.801.218 3.373.967 4.685 2.292.169.17.265.16.425-.005 1.28-1.326 2.85-2.013 4.603-2.276.243-.036.304-.12.302-.358-.008-1.116-.003-2.23-.004-3.346 0-.09-.01-.18-.017-.304-.102.033-.185.054-.263.086-1.26.528-2.525 1.046-3.78 1.59-.597.258-1.193.376-1.807.125-.976-.398-1.944-.819-2.915-1.228-.466-.195-.933-.386-1.41-.583m-3.331-2.019c.166.105.247.171.337.21.997.427 1.993.853 2.992 1.272 1.458.614 2.92 1.216 4.376 1.835.487.207.953.204 1.439 0 2.41-1.018 4.825-2.026 7.237-3.04.133-.057.255-.144.442-.25-.161-.09-.241-.145-.328-.182-2.43-1.024-4.862-2.044-7.292-3.068-.5-.21-.997-.225-1.5-.016-2.37.988-4.742 1.973-7.112 2.961-.175.073-.343.161-.591.278m15.38 1.222c-.413.17-.79.33-1.172.478-.196.076-.216.226-.216.414.005 1.32-.006 2.642.009 3.962.003.315-.117.401-.39.43-1.827.187-3.432.899-4.744 2.28-.062.065-.122.132-.186.195-.232.23-.377.226-.59-.019-1.164-1.333-2.627-2.065-4.298-2.38a5.986 5.986 0 0 0-.606-.081c-.33-.027-.407-.1-.407-.452-.003-1.31-.009-2.621.005-3.932.003-.257-.07-.377-.299-.468-.8-.316-1.591-.653-2.38-.996a1.07 1.07 0 0 1-.42-.31c-.224-.295-.101-.681.287-.876.393-.197.804-.356 1.209-.526 2.126-.894 4.254-1.781 6.377-2.682a2.072 2.072 0 0 1 1.697 0c2.493 1.053 4.99 2.098 7.484 3.147.258.109.476.283.479.595.003.319-.192.52-.474.626-.063.024-.12.082-.183.092-.585.095-.668.48-.656 1.04.036 1.679.016 3.358.009 5.037 0 .19.043.296.22.368.39.16.557.5.57.917.016.553.001 1.106.006 1.659.002.239-.091.365-.327.364h-1.428c-.23.001-.333-.113-.33-.36.006-.552-.007-1.105.005-1.658.01-.445.199-.775.606-.96.08-.035.172-.17.173-.258.01-1.813.01-3.625.01-5.437 0-.057-.022-.115-.04-.209"/>
        <path fill="#ee7822" d="M12.456 14.447l.073.049c.073.048.125.084.18.107.945.404 1.962.84 2.99 1.271.572.241 1.145.48 1.719.72.872.363 1.773.739 2.658 1.115.468.2.927.2 1.401 0 1.404-.593 2.809-1.182 4.213-1.771l3.025-1.27c.084-.036.163-.083.262-.144l.095-.057-.068-.04a1.458 1.458 0 0 0-.176-.094l-3.76-1.582-3.53-1.485c-.504-.212-.983-.217-1.466-.016l-3.144 1.309-3.967 1.651a7.111 7.111 0 0 0-.356.165l-.149.072zm8.318 3.515c-.245 0-.489-.052-.735-.157-.885-.376-1.786-.752-2.658-1.116l-1.718-.718a492.52 492.52 0 0 1-2.992-1.273 1.22 1.22 0 0 1-.195-.115c-.042-.028-.09-.061-.15-.098l-.08-.051.086-.041c.086-.04.162-.077.232-.111.132-.064.245-.12.36-.168a5779.08 5779.08 0 0 1 3.968-1.652l3.144-1.309c.507-.21 1.01-.205 1.538.016l3.53 1.486 3.76 1.582c.06.025.113.056.188.1l.146.084.08.045-.08.046a8.25 8.25 0 0 0-.172.102c-.099.06-.184.112-.275.15l-3.025 1.27c-1.404.589-2.809 1.178-4.212 1.77-.25.105-.495.158-.74.158zm-5.062-1.436l-.005.014a.21.21 0 0 0-.017.062l-.001 1.59c0 .677 0 1.355-.002 2.031 0 .132.04.174.182.191a7.805 7.805 0 0 1 4.714 2.306c.145.146.212.145.356-.004 1.212-1.256 2.727-2.005 4.63-2.29.214-.032.263-.09.261-.307-.006-.765-.005-1.543-.005-2.295v-1.05c0-.06-.004-.12-.008-.188a13.674 13.674 0 0 1-.004-.049 4.356 4.356 0 0 0-.2.067l-.999.416c-.913.38-1.857.772-2.78 1.172-.722.313-1.29.352-1.844.126a136.73 136.73 0 0 1-1.92-.806c-.332-.14-.664-.282-.996-.421-.325-.137-.65-.272-.98-.407l-.382-.158zm5.048 6.407c-.077 0-.153-.046-.245-.138a7.712 7.712 0 0 0-4.657-2.278c-.14-.017-.27-.064-.27-.294a1167.398 1167.398 0 0 0 .004-3.621c0-.034.01-.064.023-.098l.021-.06.016-.053.478.197c.33.136.656.27.98.406.333.14.664.281.996.422.628.268 1.277.544 1.92.806.527.215 1.074.177 1.77-.126.925-.4 1.869-.793 2.782-1.172l1-.417c.054-.022.11-.04.171-.058l.094-.03.06-.02.004.066.008.113c.005.072.009.134.009.195v1.052c0 .751-.002 1.529.004 2.293.003.271-.081.371-.344.41-1.883.283-3.38 1.022-4.576 2.261-.093.097-.17.144-.248.144zm7.275-.893c-.308 0-.483.16-.495.451-.017.44-.017.901 0 1.374.003.051.104.157.157.164.139.019.284.015.424.013.08-.002.159-.003.239-.002.076.004.124-.013.154-.045.032-.034.045-.095.041-.186a7.488 7.488 0 0 1-.003-.43l.001-.133h-.003v-.052l.002-.218a5.05 5.05 0 0 0-.006-.482c-.02-.275-.22-.454-.509-.454h-.002zm-.072 2.107c-.092 0-.186-.003-.278-.016-.102-.013-.238-.16-.242-.262-.018-.476-.018-.94 0-1.382.013-.35.23-.55.592-.55h.003c.337 0 .581.221.606.55.013.163.01.33.006.49l-.002.169.003.048-.001.187c-.002.139-.003.283.004.423.005.121-.018.207-.07.263-.05.055-.127.076-.227.077a5.52 5.52 0 0 0-.234.001 6.777 6.777 0 0 1-.16.002zm-.195-8.555l.012.06c.006.032.013.06.019.085.011.049.022.09.022.134v.168c0 1.727 0 3.512-.01 5.269a.407.407 0 0 1-.202.306c-.378.17-.567.47-.577.914-.007.31-.005.626-.004.932 0 .242.002.484-.001.726-.001.11.02.189.065.237.044.047.115.07.214.07h.002c.476-.002.953-.002 1.429 0h.003c.095 0 .163-.023.206-.069.047-.049.07-.129.068-.244-.002-.212 0-.424 0-.637.002-.334.004-.68-.006-1.02-.013-.437-.194-.73-.539-.87-.21-.087-.252-.224-.251-.417l.005-.955c.008-1.337.016-2.721-.014-4.08-.01-.494.034-.986.698-1.093.027-.004.055-.023.086-.042.028-.018.056-.036.088-.048.203-.076.444-.238.44-.577-.002-.242-.148-.421-.447-.547l-2.531-1.064c-1.652-.693-3.303-1.387-4.953-2.084a2.031 2.031 0 0 0-1.66.001c-1.428.606-2.883 1.215-4.289 1.805a1604.39 1604.39 0 0 0-2.372.994c-.306.126-.623.257-.923.408-.192.096-.323.248-.36.416a.456.456 0 0 0 .09.381c.117.155.301.251.4.295.927.403 1.683.719 2.38.994.247.098.333.234.33.518-.012 1.107-.009 2.234-.007 3.323l.002.607c0 .32.051.376.362.402.21.017.415.044.61.081 1.8.34 3.215 1.123 4.325 2.396.1.115.18.168.253.17l.007.001c.073 0 .154-.048.262-.155.041-.04.081-.084.121-.127l.063-.067c1.261-1.326 2.868-2.1 4.775-2.296.27-.027.348-.112.345-.376a210.04 210.04 0 0 1-.008-2.482v-1.48c-.002-.186.017-.374.247-.463.268-.103.531-.213.81-.329l.361-.149.054-.022zm-.462 9.004c-.127 0-.22-.033-.283-.1-.065-.07-.096-.171-.094-.312.003-.241.002-.482.001-.724-.001-.306-.003-.623.004-.935.01-.482.225-.82.636-1.006.064-.028.142-.145.143-.212.01-1.756.01-3.541.01-5.268v-.168a.496.496 0 0 0-.026-.139l-.308.128c-.28.115-.543.225-.812.329-.157.06-.184.166-.184.365.002.494.002.987.001 1.481 0 .813-.001 1.654.008 2.48.004.363-.163.454-.433.481-1.884.195-3.47.957-4.715 2.267l-.063.066c-.04.044-.082.088-.124.13-.132.13-.236.185-.34.182-.102-.004-.201-.067-.32-.204-1.097-1.256-2.493-2.03-4.27-2.364a6.065 6.065 0 0 0-.602-.08c-.363-.03-.452-.13-.452-.505l-.002-.607c-.002-1.09-.005-2.216.007-3.324.003-.24-.06-.338-.267-.42a77.271 77.271 0 0 1-2.382-.996 1.133 1.133 0 0 1-.44-.325.568.568 0 0 1-.109-.47c.044-.199.194-.376.413-.486.304-.152.623-.283.93-.41.094-.04.189-.078.283-.117l2.089-.877c1.406-.59 2.86-1.199 4.288-1.804a2.122 2.122 0 0 1 1.734-.002c1.65.697 3.3 1.391 4.952 2.084l2.531 1.064c.34.143.507.354.51.642.003.317-.172.55-.506.676-.023.008-.046.023-.07.038a.323.323 0 0 1-.122.057c-.533.086-.627.413-.615.987.03 1.361.022 2.746.014 4.084l-.005.955c0 .185.043.26.189.32.379.154.587.487.601.963.01.341.008.688.006 1.024 0 .212-.002.423 0 .635.002.144-.03.248-.096.318-.063.067-.154.099-.276.099h-.004c-.475-.002-.952-.001-1.428 0h-.002zM33.839 4.435H30.84c-.088 0-.188.02-.258-.018-.073-.039-.16-.136-.163-.21-.002-.074.081-.181.152-.218.08-.04.19-.025.287-.025h5.938c.058 0 .13-.022.172.006.098.07.243.152.259.25.03.181-.122.216-.275.216-1.038-.002-2.076-.001-3.114-.001"/>
        <path fill="#ee7822" d="M30.729 4.013a.298.298 0 0 0-.135.023c-.059.03-.126.121-.125.168.002.048.07.132.136.167.04.022.103.019.163.014l.072-.002h3.777l2.337.001h.002c.107 0 .177-.019.207-.056.018-.023.024-.056.017-.1-.01-.06-.114-.13-.19-.181l-.049-.034c-.013-.01-.054-.006-.084-.002a.618.618 0 0 1-.06.004h-5.939c-.016-.002-.044 0-.066 0l-.063-.002m-.03.479a.284.284 0 0 1-.138-.028c-.075-.04-.187-.15-.19-.256-.003-.098.093-.22.18-.265a.495.495 0 0 1 .244-.032c.021 0 .042.002.063.001h5.939c.016 0 .033-.002.05-.004.05-.005.106-.011.149.019l.047.033c.101.069.216.146.233.25.012.076 0 .137-.038.184-.05.064-.14.094-.282.094h-.003c-.778-.002-1.557-.001-2.336-.002H30.84l-.067.003-.075.003M33.855 5.725h1.749c.167 0 .361-.012.353.244-.007.218-.17.238-.338.238-1.195-.002-2.39-.002-3.585 0-.166 0-.336-.01-.34-.232-.005-.25.184-.25.354-.25h1.807"/>
        <path fill="#ee7822" d="M33.825 6.154c.598 0 1.196 0 1.794.002h.002c.186 0 .282-.03.287-.189.002-.064-.01-.11-.036-.138-.048-.052-.149-.05-.244-.052h-3.58c-.105 0-.213 0-.266.057-.027.03-.04.075-.04.14.004.154.092.181.289.181H33.825m1.802.104h-.008c-1.196-.002-2.39-.002-3.585 0h-.011c-.145 0-.373-.007-.378-.284-.002-.091.021-.163.067-.213.082-.088.217-.088.336-.088h1.314l.979-.001h1.287c.105.001.237 0 .315.084.045.05.066.121.063.214-.009.282-.253.288-.379.288"/>
    </g>
</svg>
