<svg xmlns="http://www.w3.org/2000/svg" xmlns:xlink="http://www.w3.org/1999/xlink" width="43" height="46" viewBox="0 0 43 46">
    <defs>
        <path id="a" d="M1.546.08H.487V1.3h1.06V.08z"/>
        <path id="c" d="M.108 1.268h1.125V.023H.108v1.245z"/>
    </defs>
    <g fill="none" fill-rule="evenodd">
        <path fill="#ee7822" d="M19.787 4.183h.44c.348-.001.45-.088.49-.458.05-.457-.073-.847-.454-1.105-.312-.21-.635-.193-.938.02-.38.265-.478.663-.422 1.117.036.288.143.491.474.43.133-.024.273-.004.41-.004zM37.9 14.885l-.61.645 1.788 1.903.622-.635-1.8-1.913zM26.127 27.5l-1.048 2.924 2.816-1.16-1.768-1.764zM6.12 10.7h4.495V9.227H6.12V10.7zm34.003 5.68c.349-.371.735-.782 1.12-1.194.076-.081.156-.162.213-.258a1.43 1.43 0 0 0 .164-.362c.195-.733-.582-1.788-1.337-1.776-.236.004-.524.091-.695.251-.467.44-.886.937-1.304 1.39.602.64 1.21 1.284 1.839 1.95zM16.072 4.717c.163.653.321 1.265.467 1.88.038.16.11.216.264.215 2.029-.003 4.058 0 6.088-.006.074 0 .2-.05.214-.103.176-.653.337-1.312.505-1.986h-7.538zm15.124 17.314l-4.706 5.003 1.75 1.862c.93-.954 1.868-1.915 2.806-2.879.046-.049.106-.117.108-.177.009-.493.004-.986.004-1.48-.325.247-.583.526-.84.807-.12.132-.258.224-.404.07-.148-.155-.057-.303.062-.433.248-.266.485-.546.747-.796.122-.116.291-.178.473-.284v-1.693zm5.615-6.096c-.013.012-.044.035-.071.063-1.637 1.74-3.276 3.477-4.906 5.224a.62.62 0 0 0-.133.385c-.01 1.136-.006 2.271-.005 3.408 0 .076.015.152.017.175l6.946-7.283-1.848-1.972zM8.348 21.053h6.417c.463 0 .642-.183.642-.675.003-2.805.003-5.61 0-8.414 0-.506-.186-.71-.657-.71a8619.47 8619.47 0 0 0-12.805 0c-.479.001-.651.198-.651.71v8.383c0 .546.152.705.666.705l6.388.001zm22.853 5.59c-.898.951-1.742 1.851-2.594 2.742-.13.136-.284.267-.45.337-1.074.454-2.153.895-3.235 1.326-.13.051-.293.01-.441.013 0-.156-.04-.328.007-.465.401-1.173.816-2.342 1.235-3.509.047-.13.125-.258.219-.357 1.675-1.788 3.353-3.573 5.037-5.352a.747.747 0 0 0 .227-.568c-.006-4.192-.005-8.382-.005-12.574 0-.696-.157-.862-.82-.862l-20.9.001c-.137 0-.278.002-.41.03a.502.502 0 0 0-.411.47c-.025.254-.006.513-.006.791h1.707c.574.002.766.203.767.803v1.252c1.212 0 2.38.029 3.546-.01.83-.028 1.276.541 1.271 1.34-.017 2.741-.006 5.484-.007 8.226 0 .911-.383 1.318-1.239 1.318H8.65V39.455c0 .702.147.857.817.857h20.96c.607 0 .775-.183.775-.841V26.642zM8.15 21.595H2.013c-.832-.002-1.21-.398-1.211-1.275v-8.32c0-.863.397-1.28 1.21-1.28H5.596V9.448c.003-.536.207-.756.718-.76.597-.004 1.193 0 1.837 0 0-.223-.004-.417 0-.61.02-.795.438-1.234 1.186-1.235 2.129-.003 4.258 0 6.387 0h.363c-.054-.244-.099-.462-.15-.677-.114-.475-.231-.948-.345-1.421-.122-.506-.064-.582.437-.582h2.485c-.207-.811-.088-1.502.561-2a1.23 1.23 0 0 1 1.493 0c.641.494.822 1.161.58 2h2.568c.41 0 .491.111.391.527l-.469 1.935c-.014.059-.02.12-.038.216h.33c2.178 0 4.357.02 6.535-.009.793-.01 1.279.543 1.275 1.345-.019 4.003-.009 8.008-.009 12.011v.399c.132-.134.216-.214.296-.3l6.98-7.445c.789-.84 1.656-.847 2.438.011.248.272.502.58.626.925.252.7-.014 1.289-.497 1.801-2.982 3.157-5.958 6.32-8.936 9.483-.235.25-.463.511-.71.747-.176.167-.238.348-.238.599.007 4.316.005 8.633.005 12.95 0 .124 0 .25-.008.374-.042.599-.434 1.02-1 1.074-.107.01-.216.005-.323.005-6.938 0-13.876-.01-20.813.012-.985.004-1.415-.521-1.412-1.516.023-5.745.011-11.49.011-17.234v-.477z"/>
        <path fill="#ee7822" d="M19.811 2.55a.777.777 0 0 0-.446.156c-.32.224-.447.565-.388 1.041.021.167.063.27.132.324.059.046.142.058.255.038.1-.018.2-.014.298-.01.042.003.083.004.125.004h.44c.315 0 .38-.062.416-.387.05-.467-.087-.803-.42-1.028a.728.728 0 0 0-.412-.138zm-.543 1.727a.39.39 0 0 1-.248-.078c-.104-.08-.164-.218-.19-.431-.068-.535.085-.937.453-1.195.338-.235.69-.242 1.02-.02.38.258.545.655.488 1.181-.044.404-.175.527-.563.528h-.44c-.044 0-.089-.002-.133-.005-.093-.003-.181-.008-.265.008a.646.646 0 0 1-.122.012zm-3.099.52l.104.412c.117.466.23.916.338 1.368.03.124.068.157.189.157h.002c2.03-.004 4.06-.002 6.088-.007.053-.001.132-.036.147-.055.137-.513.265-1.027.4-1.571l.076-.305H16.17zm.631 2.095c-.188 0-.287-.083-.333-.277-.108-.45-.221-.9-.338-1.365l-.155-.612h7.733l-.126.503c-.135.546-.263 1.061-.405 1.583-.03.114-.213.16-.284.161-2.031.006-4.06.003-6.09.007H16.8zm-10.606 3.73h4.346V9.306H6.194v1.314zm-.15.158h4.645V9.149H6.045v1.63zm32.344 3.65l1.734 1.839 1.067-1.139.03-.032c.063-.066.127-.136.173-.212a1.35 1.35 0 0 0 .154-.341c.083-.31-.026-.722-.282-1.076-.268-.37-.638-.6-.968-.6h-.013c-.202.004-.48.077-.646.232-.335.314-.647.662-.95.998-.1.112-.199.223-.299.332zm1.734 2.063l-1.944-2.061.052-.057c.117-.125.232-.254.35-.386.304-.338.618-.688.958-1.007.207-.194.53-.268.743-.271h.014c.376 0 .79.252 1.087.661.29.4.404.854.308 1.216a1.5 1.5 0 0 1-.172.383c-.054.09-.125.167-.194.24l-.029.03c-.376.403-.754.805-1.096 1.17l-.077.082zm-2.727-.964l1.684 1.794.514-.526-1.693-1.8-.505.532zm1.682 2.015l-1.892-2.015.715-.757 1.906 2.027-.729.745zm-30.73-6.212c-2.134 0-4.268 0-6.402.002-.43 0-.576.16-.576.63-.001 2.794-.001 5.588 0 8.382 0 .504.116.628.591.628h12.805c.423 0 .567-.151.568-.596.002-2.805.002-5.609 0-8.413 0-.466-.153-.63-.583-.63-2.135-.003-4.269-.003-6.403-.003zm0 9.8H1.96c-.554 0-.74-.198-.74-.786v-8.381c0-.56.21-.79.725-.79 4.268-.003 8.536-.003 12.805 0 .512 0 .731.237.731.79.003 2.804.003 5.608.001 8.413 0 .535-.209.754-.717.754H8.348zm28.458-5.09l-.012.012-.67.712c-1.39 1.477-2.829 3.003-4.236 4.512a.545.545 0 0 0-.111.329c-.009.973-.008 1.963-.006 2.92v.492l6.783-7.112-1.748-1.866zm-5.15 9.32l-.02-.185a1.273 1.273 0 0 1-.013-.161l-.001-.488c-.002-.958-.003-1.948.005-2.922.002-.138.05-.328.155-.44 1.408-1.509 2.846-3.036 4.236-4.512l.67-.712a.678.678 0 0 1 .066-.06l.052-.04.059.037 1.9 2.029-.053.056-7.055 7.399zm-5.06 1.672l1.645 1.75.71-.726 2.044-2.098c.079-.081.085-.113.085-.121.007-.379.006-.757.006-1.136v-.186c-.255.21-.468.437-.713.706-.068.074-.172.173-.297.174h-.003a.288.288 0 0 1-.21-.103c-.225-.237-.01-.469.061-.545l.22-.241c.17-.188.345-.382.53-.559.091-.087.203-.144.32-.204a3.17 3.17 0 0 0 .129-.068v-1.455l-4.526 4.812zm1.644 1.973l-1.855-1.973.053-.056 4.834-5.138v1.932l-.04.022c-.059.035-.117.065-.173.093-.113.058-.21.109-.284.18-.182.173-.355.365-.523.55-.074.082-.147.164-.222.243-.152.163-.138.241-.063.32.037.04.072.058.106.058h.002c.05 0 .114-.041.19-.126.227-.248.507-.555.851-.816l.118-.09v.497c.001.38.002.76-.005 1.138 0 .088-.067.167-.13.233l-2.045 2.098-.814.835zm-2.082-1.368l-.95 2.647 2.551-1.05-1.601-1.597zm-1.208 2.923l1.148-3.2 1.936 1.931-3.084 1.27zM8.724 21.675v17.779c0 .661.11.778.742.778h20.96c.563 0 .7-.15.7-.762V26.834l-.523.555c-.661.701-1.3 1.38-1.944 2.053-.166.174-.321.29-.475.354-1.05.445-2.14.89-3.236 1.327a.742.742 0 0 1-.328.024 2.15 2.15 0 0 0-.138-.007l-.076.002v-.08c0-.048-.004-.097-.008-.145-.009-.117-.018-.238.02-.349.442-1.291.892-2.554 1.235-3.51.05-.139.134-.276.235-.384 1.966-2.098 3.567-3.798 5.039-5.353a.665.665 0 0 0 .205-.511c-.006-3.31-.006-6.618-.006-9.926V8.236c0-.65-.125-.783-.745-.783L9.48 7.454c-.144 0-.273.002-.395.029a.425.425 0 0 0-.351.4c-.017.17-.013.344-.01.528l.004.176h1.633c.612.001.84.24.842.882v1.172c.341.001.679.004 1.014.006.845.006 1.642.012 2.455-.016.4-.01.74.11.977.356.245.254.373.621.37 1.064-.011 1.929-.01 3.89-.008 5.788l.002 2.438c0 .953-.418 1.397-1.314 1.397H8.724zM30.426 40.39H9.466c-.708 0-.891-.193-.891-.936V21.516h6.124c.816 0 1.164-.37 1.164-1.24V17.84c-.003-1.897-.004-3.86.008-5.79.002-.398-.11-.725-.326-.949-.208-.215-.503-.32-.869-.31-.815.028-1.614.02-2.46.016-.36-.004-.722-.006-1.088-.006h-.075l.001-.505V9.47c-.002-.553-.163-.722-.693-.724H8.579v-.079c0-.085-.002-.168-.003-.25-.004-.19-.008-.369.01-.549a.583.583 0 0 1 .47-.539c.135-.03.272-.032.424-.032l20.9-.001c.703 0 .895.203.895.941v2.648c0 3.308 0 6.617.006 9.926 0 .252-.074.44-.249.624a1461.122 1461.122 0 0 0-5.038 5.352.998.998 0 0 0-.202.33c-.342.955-.792 2.216-1.234 3.507a.73.73 0 0 0-.01.28l.005.08.078.006c.1.007.192.014.265-.015 1.095-.435 2.183-.881 3.233-1.326.133-.055.275-.163.425-.32.644-.672 1.283-1.35 1.943-2.051l.778-.826v13.02c0 .704-.198.92-.85.92zM7.754 21.516h.47v.556l.003 4.337c.001 4.227.004 8.599-.013 12.899-.002.498.105.854.327 1.09.219.233.546.346 1 .346h.01c5.275-.017 10.64-.016 15.829-.013l5.06.002c.08 0 .16.002.24-.007.528-.05.893-.442.933-1 .007-.107.007-.213.007-.32v-1.899c.001-3.7.002-7.4-.005-11.1 0-.285.078-.481.263-.656.17-.163.334-.34.492-.513.072-.078.143-.156.216-.233l2.102-2.231c2.276-2.419 4.553-4.836 6.833-7.252.534-.566.692-1.127.48-1.716-.12-.334-.375-.641-.61-.898-.37-.407-.76-.615-1.156-.618h-.008c-.396 0-.788.205-1.167.608l-6.98 7.445a7.404 7.404 0 0 1-.17.173l-.253.255v-.583c0-1.037 0-2.076-.002-3.114-.002-2.916-.004-5.931.01-8.897.002-.383-.11-.703-.325-.93-.213-.224-.51-.341-.874-.336-1.557.022-3.14.017-4.669.013L23.93 6.92h-.419l.03-.184c.009-.051.015-.092.025-.132l.469-1.935c.045-.186.048-.298.01-.35-.04-.053-.144-.078-.33-.078h-2.667l.029-.103c.236-.818.055-1.444-.553-1.91a1.154 1.154 0 0 0-1.405 0c-.575.44-.75 1.065-.534 1.913l.026.1h-2.582c-.178 0-.348.009-.395.072-.045.063-.012.235.03.41l.153.63c.064.264.129.527.192.792.035.145.067.292.1.447l.072.329H9.337c-.708.001-1.092.401-1.111 1.157-.003.13-.002.26-.001.398v.29l-.64-.001c-.434 0-.852-.002-1.27.002-.467.003-.642.187-.644.68V10.8H2.013c-.775 0-1.135.382-1.136 1.2v8.321c.001.837.341 1.194 1.137 1.195h5.74zm1.788 19.387c-.49 0-.861-.132-1.107-.392-.25-.269-.373-.662-.37-1.204.017-4.3.014-8.67.012-12.898l-.001-4.337v-.397H2.014c-.876-.001-1.285-.431-1.286-1.354v-8.32c0-.902.433-1.359 1.285-1.36h3.508v-.336l.001-.858c.002-.584.24-.834.791-.838.419-.003.837-.002 1.273-.002h.49v-.13c-.002-.14-.002-.27 0-.402.022-.844.47-1.31 1.26-1.311l4.472-.001h2.186l-.03-.135a21.219 21.219 0 0 0-.1-.443c-.063-.264-.127-.529-.192-.793l-.152-.628c-.065-.269-.085-.435-.003-.547.082-.113.243-.134.512-.134h2.389c-.196-.868.006-1.518.613-1.983a1.302 1.302 0 0 1 1.58 0c.632.485.845 1.152.636 1.983h2.469c.18 0 .357.017.447.14.088.121.06.306.016.487l-.469 1.935a1.308 1.308 0 0 0-.02.118h.24l1.867.002c1.53.005 3.112.01 4.667-.012h.023c.39 0 .721.131.959.381.243.258.37.618.368 1.044-.013 2.965-.012 5.98-.01 8.896l.002 3.114v.215l.002-.002c.064-.064.116-.116.166-.17l6.981-7.444c.407-.435.835-.656 1.272-.656h.01c.436.004.861.228 1.262.667.244.268.512.59.642.951.235.654.066 1.27-.515 1.886-2.28 2.414-4.557 4.833-6.833 7.25l-2.102 2.233c-.072.076-.143.153-.214.231-.16.174-.326.354-.5.519-.151.145-.213.3-.213.54.007 3.7.006 7.4.006 11.1v1.897c-.001.111-.001.222-.009.333-.044.64-.463 1.09-1.067 1.146-.086.008-.17.007-.256.007h-.074l-4.984-.002c-5.188-.002-10.553-.003-15.83.014h-.008zM38.977 6.493c.4.003.731-.349.73-.771-.001-.427-.33-.77-.733-.765-.39.004-.705.337-.711.753-.008.428.315.781.714.783m-.008.536c-.69-.007-1.218-.587-1.205-1.326.013-.697.584-1.296 1.229-1.288.65.008 1.216.616 1.216 1.306 0 .706-.575 1.313-1.24 1.308"/>
        <path fill="#ee7822" d="M38.983 5.036h-.008c-.352.004-.632.3-.638.675a.711.711 0 0 0 .186.497.617.617 0 0 0 .455.206h.004a.629.629 0 0 0 .458-.204.707.707 0 0 0 .193-.488.708.708 0 0 0-.194-.488.626.626 0 0 0-.456-.198m0 1.536h-.006a.763.763 0 0 1-.56-.253.874.874 0 0 1-.23-.61c.008-.462.353-.826.787-.831h.01c.21 0 .41.086.56.244a.87.87 0 0 1 .238.6.866.866 0 0 1-.237.6.77.77 0 0 1-.563.25m-.012.378h.007c.295 0 .59-.133.81-.366.221-.233.348-.548.347-.863 0-.646-.534-1.22-1.142-1.226h-.012c-.598 0-1.13.561-1.141 1.21-.007.337.107.65.32.883.21.23.498.359.81.362m.008.158h-.009a1.247 1.247 0 0 1-.916-.41 1.427 1.427 0 0 1-.363-.996c.014-.732.616-1.366 1.292-1.366h.013c.686.008 1.289.656 1.29 1.385 0 .357-.142.713-.391.976a1.278 1.278 0 0 1-.916.411M1.998 26.46c.002.421.344.776.736.765.386-.011.702-.355.705-.769.004-.424-.326-.78-.722-.779-.395.001-.721.357-.719.783m1.943.01c-.009.7-.57 1.282-1.234 1.276-.662-.005-1.211-.597-1.21-1.302.003-.722.558-1.292 1.252-1.283.676.009 1.201.585 1.192 1.308"/>
        <path fill="#ee7822" d="M2.073 26.459c0 .181.074.36.201.49a.623.623 0 0 0 .444.197h.015c.345-.01.628-.32.632-.69a.71.71 0 0 0-.192-.495.604.604 0 0 0-.908 0 .723.723 0 0 0-.192.498zm.645.845a.771.771 0 0 1-.548-.24.881.881 0 0 1-.01-1.215.76.76 0 0 1 .557-.251h.002c.21 0 .409.089.56.25a.874.874 0 0 1 .235.61c-.004.454-.353.834-.778.846h-.018zm.015-2.064a1.13 1.13 0 0 0-.826.354 1.229 1.229 0 0 0-.334.85c-.003.659.517 1.218 1.135 1.223h.009c.615 0 1.141-.547 1.15-1.2a1.255 1.255 0 0 0-.319-.865 1.092 1.092 0 0 0-.8-.362h-.015zm-.016 2.585h-.01c-.698-.005-1.286-.638-1.284-1.381.002-.367.136-.708.38-.963.246-.258.576-.4.93-.4h.017c.347.005.668.151.905.412.237.259.365.606.36.977-.009.737-.602 1.355-1.298 1.355zM22.064 44.531c.404-.004.722-.35.718-.779-.005-.425-.336-.764-.739-.756-.39.008-.699.343-.703.762-.003.427.324.776.724.773m-.015-2.102c.662-.006 1.223.575 1.233 1.279.011.714-.557 1.326-1.225 1.322-.66-.004-1.217-.596-1.218-1.298-.002-.703.55-1.298 1.21-1.303"/>
        <path fill="#ee7822" d="M22.058 43.076h-.013c-.35.006-.627.306-.63.682a.71.71 0 0 0 .19.493.62.62 0 0 0 .454.201h.005a.63.63 0 0 0 .46-.205.712.712 0 0 0 .183-.494.698.698 0 0 0-.196-.483.626.626 0 0 0-.453-.194zm0 1.535a.765.765 0 0 1-.559-.248.869.869 0 0 1-.233-.606c.004-.463.345-.832.776-.84h.016c.21 0 .407.084.558.239a.865.865 0 0 1 .24.595.87.87 0 0 1-.227.606.772.772 0 0 1-.564.254h-.006zm-.009-2.104c-.617.005-1.137.567-1.135 1.225 0 .657.525 1.215 1.144 1.22h.005c.295 0 .589-.134.806-.367.22-.236.343-.556.339-.876-.01-.656-.542-1.214-1.159-1.202zm.014 2.603h-.006c-.7-.005-1.291-.636-1.293-1.378-.001-.744.586-1.377 1.284-1.383h.01c.694 0 1.287.62 1.299 1.357.005.363-.134.725-.382.99a1.259 1.259 0 0 1-.912.414zM35.649 43.487c.705 0 1.41.003 2.116-.002.196-.001.373.036.377.28.004.252-.186.287-.374.287h-4.29c-.193 0-.376-.045-.379-.287-.003-.248.182-.28.375-.28.725.004 1.45.002 2.175.002"/>
        <path fill="#ee7822" d="M33.468 43.565c-.092 0-.203.008-.255.064-.027.028-.04.073-.04.135.002.125.054.208.305.208h4.29c.085 0 .203-.007.259-.067.028-.03.042-.075.04-.139-.001-.128-.05-.202-.294-.202h-.008c-.51.005-1.019.003-1.528.003l-.588-.001h-.622c-.518 0-1.036.002-1.554-.001h-.005zm4.3.566h-4.29c-.299 0-.45-.123-.454-.365a.345.345 0 0 1 .083-.249c.09-.097.233-.11.361-.11h.006c.518.003 1.036.002 1.553.001h1.21c.509 0 1.018.001 1.527-.002.12-.003.447-.004.453.358a.35.35 0 0 1-.083.252c-.094.102-.245.115-.366.115zM5.59 2.8H3.532c-.088 0-.193.021-.26-.021-.087-.056-.198-.163-.2-.25 0-.09.104-.203.19-.263.063-.045.17-.028.257-.028 1.373-.002 2.744-.001 4.116-.001.07 0 .154-.023.203.01.102.073.185.176.276.268-.097.094-.187.26-.29.27-.37.033-.744.014-1.116.015H5.59"/>
        <path fill="#ee7822" d="M6.726 2.72l.286.003c.264.004.54.007.806-.017.04-.004.1-.079.15-.14a1.16 1.16 0 0 1 .04-.05l-.024-.026c-.063-.067-.121-.129-.188-.176-.013-.01-.063-.004-.092-.002a.643.643 0 0 1-.068.004h-1.03a1670.185 1670.185 0 0 0-3.147-.001c-.06-.001-.126-.004-.156.017-.09.063-.156.155-.156.195 0 .038.07.125.164.183.03.02.094.017.149.013a.942.942 0 0 1 .072-.003h3.194zm-3.332.164a.294.294 0 0 1-.16-.038c-.086-.054-.233-.182-.236-.317-.002-.135.139-.27.222-.33.07-.048.164-.046.244-.042l.055.001h4.117c.018 0 .036-.002.055-.004.063-.004.132-.011.188.027.079.057.146.128.21.197.026.027.05.054.077.079l.057.058-.059.058a1.092 1.092 0 0 0-.083.097c-.074.09-.15.185-.25.194-.273.025-.551.022-.82.018-.102-.001-.198-.005-.303-.003H3.532l-.064.002c-.024.002-.05.003-.074.003zM3.817 33.618c0-.634.002-1.268-.002-1.903 0-.206.032-.4.264-.399.226.002.272.197.272.401v3.774c0 .201-.033.405-.26.413-.25.009-.278-.198-.276-.415.005-.623.002-1.247.002-1.871"/>
        <path fill="#ee7822" d="M4.075 31.395c-.056 0-.097.014-.124.043-.056.06-.062.186-.061.277.002.46.002.919.002 1.378l-.001.525v.52c.001.45.002.9-.002 1.352 0 .112.006.235.062.293.03.03.073.044.138.041.115-.003.186-.06.186-.333v-3.774c0-.282-.094-.321-.197-.322h-.003zm0 4.588a.306.306 0 0 1-.228-.086c-.096-.1-.108-.255-.107-.409.004-.45.003-.9.002-1.35v-1.045c.001-.46.001-.918-.001-1.377-.001-.13.01-.29.104-.39a.303.303 0 0 1 .23-.09h.005c.23.003.346.164.345.481v3.774c0 .119 0 .48-.331.492h-.019zM35.207 7.758v1.875c0 .199-.013.403-.257.404-.236 0-.274-.195-.274-.397V5.827c0-.194.043-.368.265-.371.222-.003.266.167.266.363v1.939"/>
        <path fill="#ee7822" d="M34.947 5.535h-.006c-.118.002-.19.05-.19.292V9.64c0 .087.006.21.063.27.03.032.074.048.134.048h.001c.144 0 .184-.07.184-.325V7.176 5.82c0-.12-.02-.2-.058-.24-.028-.03-.07-.044-.128-.044zm.001 4.581a.314.314 0 0 1-.239-.093c-.095-.1-.108-.258-.108-.383V5.827c0-.296.114-.447.339-.45.098.002.182.028.24.089.091.096.102.247.102.353V9.634c0 .168 0 .482-.332.482h-.002zM39.272 42.385h-1.5c-.174.001-.323-.039-.331-.258-.01-.233.145-.306.328-.306 1-.003 2.001 0 3.002.001.181 0 .314.088.318.288.005.212-.135.277-.316.276-.5-.003-1 0-1.5 0"/>
        <path fill="#ee7822" d="M40.174 42.305c.2 0 .4 0 .6.002h.004c.095 0 .161-.02.198-.06.028-.03.04-.074.039-.135-.004-.14-.085-.21-.245-.21l-.3-.001c-.9-.002-1.8-.005-2.7 0-.07 0-.161.012-.211.067-.033.035-.046.086-.044.156.005.118.047.183.253.183h.004l1.071-.001h1.33zm-2.413.16c-.106 0-.383-.01-.395-.335a.374.374 0 0 1 .085-.272c.069-.076.176-.116.318-.116.9-.004 1.801-.002 2.702 0h.3c.24 0 .388.138.393.366a.343.343 0 0 1-.082.25c-.065.07-.168.107-.304.107h-.006c-.35-.002-.7-.001-1.05-.001h-.879l-1.07.001h-.012zM1.933 4.462c-.48 0-.96-.002-1.439 0-.191 0-.374-.035-.378-.281-.005-.253.177-.286.37-.285.96.002 1.918.004 2.877-.001.2-.001.37.045.376.284.006.25-.17.287-.368.285-.48-.006-.958-.002-1.438-.002"/>
        <path fill="#ee7822" d="M2.755 4.382c.206 0 .411 0 .617.003.082.002.2-.005.253-.062.028-.03.04-.077.04-.142-.004-.128-.054-.207-.298-.207h-.004c-.959.005-1.918.004-2.877.001-.089.006-.204.006-.256.063-.028.03-.04.076-.04.141.003.15.082.204.3.204h1.853l.412-.001m.634.161H3.37c-.341-.004-.683-.002-1.026-.002H.494c-.123 0-.446.002-.453-.36a.355.355 0 0 1 .083-.254c.09-.096.23-.11.357-.11h.005c.96.002 1.918.003 2.877-.002.107.002.442-.001.45.362a.351.351 0 0 1-.082.257c-.088.094-.226.11-.342.11M40.095 44.048c-.225 0-.456.03-.674-.013-.11-.021-.197-.176-.295-.269.097-.093.19-.258.292-.265.46-.029.922-.03 1.382 0 .102.005.196.172.294.265-.097.094-.185.249-.295.27-.228.042-.468.012-.704.012"/>
        <path fill="#ee7822" d="M39.231 43.766l.04.047c.056.066.113.134.164.144.145.029.297.023.458.017.067-.003.135-.006.202-.006.068 0 .137.003.206.005.17.008.33.013.485-.016.05-.01.108-.078.163-.144l.04-.047-.043-.05c-.05-.06-.111-.134-.15-.136-.453-.029-.914-.03-1.374 0-.039.003-.1.077-.15.137l-.04.049m.465.372a1.53 1.53 0 0 1-.29-.025c-.1-.02-.175-.109-.247-.194-.028-.034-.055-.067-.084-.094l-.061-.059.061-.059c.029-.027.056-.06.084-.095.075-.09.152-.183.253-.19.465-.03.933-.03 1.39-.001.102.006.18.1.256.19a.996.996 0 0 0 .085.095l.062.06-.062.059a1.02 1.02 0 0 0-.083.093c-.073.087-.148.177-.249.195-.171.032-.345.025-.517.019a4.602 4.602 0 0 0-.397 0 4.216 4.216 0 0 1-.201.006M1.112 2.24c.225 0 .45-.005.676.002.164.006.291.083.288.28-.003.196-.124.274-.292.275-.461.003-.923.017-1.382-.012-.101-.006-.194-.173-.29-.266.097-.093.186-.246.295-.266.229-.042.469-.013.705-.013"/>
        <path fill="#ee7822" d="M.217 2.52c.014.015.028.033.042.05.046.056.109.133.147.136.356.022.72.017 1.073.015l.304-.004c.193 0 .218-.112.219-.196 0-.083-.02-.193-.216-.2-.157-.004-.314-.002-.47-.002H1.11c-.067 0-.136-.002-.204-.004-.17-.006-.33-.012-.487.016-.05.01-.108.076-.163.142a1.504 1.504 0 0 1-.04.047m.845.362c-.222 0-.444-.004-.665-.018-.1-.006-.177-.1-.251-.19-.028-.035-.056-.069-.084-.096L0 2.518l.062-.058c.029-.027.056-.06.084-.093.073-.086.148-.175.249-.192.17-.032.347-.025.518-.019.066.003.133.005.199.005l.202-.001c.16 0 .318-.002.476.003.23.008.364.142.36.36-.003.223-.136.352-.366.353l-.304.003c-.138.001-.278.003-.418.003M35.206 11.815c0 .198.027.4-.01.59-.023.116-.143.21-.22.314-.097-.086-.271-.166-.277-.258-.028-.455-.025-.913.002-1.368.005-.081.175-.212.264-.208.083.003.213.148.228.247.035.222.011.455.011.683h.002z"/>
        <path fill="#ee7822" d="M34.96 10.964c-.053 0-.175.095-.185.136-.027.47-.028.926-.001 1.356.006.026.09.085.136.116l.055.04c.011-.014.024-.028.037-.042.054-.06.11-.123.121-.181.024-.123.02-.254.013-.393 0-.034-.002-.068-.003-.101h-.003v-.08c0-.067.002-.133.004-.2.004-.164.009-.32-.014-.47-.011-.072-.118-.18-.157-.18h-.002zm.027 1.868l-.06-.052c-.028-.026-.064-.05-.1-.075-.096-.067-.196-.137-.202-.24-.027-.435-.026-.898.002-1.377.007-.128.211-.282.335-.282h.006c.125.005.28.186.3.312.025.167.02.337.015.501-.002.045-.003.091-.003.136v.06c0 .058.003.116.006.174.006.142.01.29-.017.432-.02.103-.09.182-.16.259a1.27 1.27 0 0 0-.075.088l-.047.064zM3.819 37.644c0-.208-.005-.416.001-.624.007-.184.108-.32.278-.272.098.028.23.175.236.278.027.414.03.833 0 1.247-.008.108-.168.203-.258.305-.086-.102-.223-.194-.247-.312-.041-.199-.011-.414-.011-.622z"/>
        <path fill="#ee7822" d="M3.89 37.724a7.1 7.1 0 0 1-.003.11c-.006.146-.012.285.015.415.012.057.074.119.135.178.014.014.028.026.04.04l.05-.044c.058-.052.13-.115.132-.157a8.971 8.971 0 0 0 0-1.235c-.004-.064-.11-.187-.18-.206-.047-.014-.085-.01-.114.014-.041.032-.067.101-.07.184-.005.143-.004.286-.003.43l.001.27h-.002zm.184.971l-.054-.064c-.025-.03-.054-.058-.084-.087-.078-.076-.158-.155-.18-.261-.031-.15-.024-.306-.018-.457.003-.06.005-.121.005-.182v-.19c-.001-.146-.002-.292.003-.437.005-.133.052-.244.13-.305a.262.262 0 0 1 .24-.04c.122.033.283.205.292.348.029.44.029.863 0 1.26-.008.106-.098.187-.185.264-.034.03-.067.059-.093.089l-.056.062zM5.392 4.486c-.166 0-.341.031-.497-.012-.107-.029-.189-.163-.282-.25.094-.098.181-.27.283-.28.33-.035.667-.032.997.001.096.01.178.173.267.266-.09.091-.166.231-.27.261-.156.046-.331.012-.498.012v.002z"/>
        <path fill="#ee7822" d="M4.717 4.22a.711.711 0 0 1 .035.04c.053.06.109.123.162.137.098.028.208.021.324.015l.08-.004v-.003h.074c.051 0 .103.003.155.006.115.007.225.012.322-.015.05-.014.103-.08.154-.143l.036-.043a1.092 1.092 0 0 1-.04-.051c-.041-.055-.098-.131-.133-.135a4.76 4.76 0 0 0-.983-.001c-.039.003-.098.08-.145.144l-.041.054m.374.355a.794.794 0 0 1-.215-.025c-.095-.027-.165-.106-.234-.184-.025-.029-.05-.058-.078-.084l-.06-.056.057-.06c.028-.029.055-.064.081-.1.071-.094.145-.192.247-.202a4.817 4.817 0 0 1 1.011.002c.098.01.168.102.236.193.025.034.05.068.077.095l.054.057-.056.056c-.025.027-.05.058-.075.089-.065.081-.133.165-.227.193-.12.034-.248.026-.37.02a6.086 6.086 0 0 0-.108-.006h-.039a2.27 2.27 0 0 0-.146.007c-.052.002-.103.005-.155.005M35.83 42.354c-.176 0-.358.03-.525-.012-.098-.024-.252-.179-.24-.241.024-.113.149-.274.242-.283a6.275 6.275 0 0 1 1.053-.002c.082.006.22.154.216.23-.005.102-.106.257-.194.283-.174.052-.367.032-.552.04v-.015"/>
        <path fill="#ee7822" d="M35.83 42.275h.07v.013c.162-.002.322.007.461-.035.055-.017.138-.141.14-.21-.004-.042-.106-.145-.146-.148a6.173 6.173 0 0 0-1.041.001c-.05.005-.156.13-.175.222.01.024.118.13.183.147.107.026.224.022.348.015.053-.003.107-.005.16-.005zm-.07.176v-.016l-.083.004c-.13.005-.262.012-.39-.019-.107-.026-.32-.207-.294-.337.027-.13.168-.331.308-.344.32-.03.67-.032 1.064-.002.114.008.292.185.286.313-.006.128-.122.318-.25.356-.185.055-.382.033-.568.042l-.073.003zM29.042 2.757c-.039.088-.053.166-.096.215-.166.189-.326.39-.52.541-.082.065-.241.02-.366.023.003-.13-.041-.297.018-.383.143-.205.325-.385.512-.548.066-.058.2-.068.29-.044.065.018.108.127.162.196"/>
        <path fill="#ee7822" d="M28.132 3.459l.058.004c.073.005.157.013.192-.014.153-.12.29-.277.42-.429l.089-.103a.324.324 0 0 0 .048-.104l.017-.046-.024-.038c-.019-.03-.054-.086-.07-.09-.079-.02-.183-.01-.225.027a2.92 2.92 0 0 0-.499.534c-.024.034-.017.123-.01.2l.004.059m.158.169c-.037 0-.075-.004-.112-.007a1.497 1.497 0 0 0-.115-.005l-.08.002.003-.084c0-.037-.003-.078-.007-.119-.009-.11-.019-.226.04-.31.126-.182.293-.36.523-.561.089-.077.246-.09.357-.059.073.019.117.092.157.157.015.022.028.045.043.064l.03.038-.02.045a1.478 1.478 0 0 0-.03.08c-.02.059-.04.113-.079.157l-.088.101c-.136.158-.276.32-.441.45a.288.288 0 0 1-.181.05M38.187 29.666c-.05.09-.08.17-.13.226-.146.167-.286.35-.46.478-.096.07-.256.037-.387.051.007-.138-.035-.313.029-.408.134-.2.314-.371.497-.526.068-.057.204-.063.295-.037.062.019.1.133.156.216"/>
        <path fill="#ee7822" d="M37.919 29.515c-.056 0-.11.012-.137.034-.15.127-.341.3-.483.51-.028.043-.023.133-.018.22l.003.059h.055c.089 0 .17 0 .215-.033.13-.096.246-.23.357-.361.031-.035.06-.072.092-.106a.6.6 0 0 0 .073-.124l.024-.045c-.01-.015-.019-.032-.028-.048-.017-.033-.047-.088-.062-.094a.321.321 0 0 0-.091-.012zm-.787.994l.004-.091a1.568 1.568 0 0 0-.004-.128c-.007-.116-.013-.234.046-.323.152-.226.353-.408.512-.542.09-.076.252-.083.36-.051.072.022.113.096.152.168.014.026.028.054.045.078l.03.042-.026.046c-.016.028-.03.055-.043.081-.028.057-.056.111-.096.157l-.09.105a2.315 2.315 0 0 1-.384.384c-.084.063-.192.064-.3.061-.041 0-.082 0-.12.004l-.086.009zM36.24 30.509c-.068-.033-.122-.043-.155-.075-.195-.19-.401-.37-.568-.585-.056-.073-.053-.285.005-.347.06-.064.259-.08.328-.024.206.171.391.378.558.594.05.066.036.217.008.316-.016.055-.119.083-.176.12"/>
        <path fill="#ee7822" d="M35.718 29.523c-.057 0-.122.013-.143.035-.028.03-.033.197 0 .24.127.164.283.312.432.455.043.04.086.08.129.123.01.01.035.02.064.03l.036.015a.345.345 0 0 1 .034-.017c.026-.013.068-.033.077-.045.028-.103.024-.208.003-.237a3.54 3.54 0 0 0-.546-.581c-.015-.012-.05-.018-.086-.018zm.527 1.075l-.036-.017-.06-.025a.332.332 0 0 1-.114-.064l-.127-.121c-.154-.148-.314-.3-.448-.472-.08-.104-.075-.362.01-.452.088-.096.327-.114.425-.031.194.16.38.358.57.606.094.122.03.36.022.388-.02.073-.092.108-.155.138-.02.01-.039.019-.054.029l-.033.02zM38.17 32.068c-.045.058-.088.155-.155.182-.068.028-.188.018-.239-.03a4.737 4.737 0 0 1-.555-.599c-.055-.073-.051-.246-.006-.333.028-.056.223-.09.273-.045.225.198.427.425.63.648.03.032.03.096.053.177"/>
        <path fill="#ee7822" d="M37.412 31.3c-.044 0-.117.015-.137.033-.027.057-.028.195.004.24.172.227.373.424.546.587.025.024.113.035.163.016.026-.01.055-.055.08-.094l.021-.031a.877.877 0 0 1-.009-.045c-.005-.022-.01-.053-.015-.06l-.07-.078c-.177-.193-.359-.392-.554-.564a.07.07 0 0 0-.03-.004m.514 1.044a.299.299 0 0 1-.198-.065 4.832 4.832 0 0 1-.564-.608c-.076-.103-.07-.31-.014-.421.03-.06.108-.086.167-.098.046-.008.159-.024.22.03.202.178.387.38.565.576l.071.078c.035.037.044.085.054.137a.745.745 0 0 0 .016.073l.012.042-.027.032c-.012.015-.024.033-.036.052-.038.058-.081.124-.15.152a.315.315 0 0 1-.116.02M36.533 31.448c-.05.094-.076.176-.126.234-.154.175-.302.362-.483.5-.081.062-.236.015-.357.019.001-.134-.046-.304.014-.392.135-.2.313-.374.495-.53.067-.056.202-.06.292-.035.065.02.107.128.165.204"/>
        <path fill="#ee7822" d="M35.638 32.124c.019 0 .037.003.056.005.07.006.153.012.186-.012.143-.108.269-.254.39-.395l.082-.094c.026-.03.045-.072.07-.125l.023-.048c-.01-.014-.018-.028-.026-.042-.02-.033-.054-.087-.072-.093-.077-.021-.185-.013-.224.022-.217.185-.37.348-.482.513-.025.036-.016.126-.008.205l.005.064m.159.17c-.039 0-.077-.004-.116-.008a.76.76 0 0 0-.112-.006l-.077.001V32.2a1.11 1.11 0 0 0-.008-.123c-.01-.113-.022-.23.036-.314.12-.178.281-.35.51-.546.088-.074.247-.081.357-.049.072.02.115.091.157.159.015.024.03.049.047.07l.031.043-.024.046c-.016.03-.03.06-.042.087a.665.665 0 0 1-.095.163l-.08.093a2.82 2.82 0 0 1-.414.417.27.27 0 0 1-.17.047M30.64 3.386c-.026.041-.057.146-.122.18-.066.034-.193.036-.245-.01a5.218 5.218 0 0 1-.571-.577c-.05-.059-.05-.205-.017-.286.025-.064.134-.119.21-.126.177-.019.736.577.744.82"/>
        <path fill="#ee7822" d="M29.904 2.645h-.002c-.063.007-.139.054-.149.08-.025.062-.019.173.004.201.16.191.35.383.564.569.024.022.117.025.165 0 .024-.014.048-.066.064-.1a.866.866 0 0 1 .012-.025c-.022-.12-.198-.365-.4-.553-.153-.141-.238-.172-.258-.172m.494 1.025a.264.264 0 0 1-.172-.053 5.263 5.263 0 0 1-.58-.586c-.071-.084-.073-.263-.03-.37.042-.104.188-.165.273-.173.08-.008.21.062.37.21.18.166.448.486.455.685v.026l-.013.02-.017.036c-.026.057-.063.135-.133.171a.334.334 0 0 1-.153.034M7.123 42.58c.082.04.147.052.185.092.177.191.365.377.51.594.053.076-.004.235-.011.358-.113-.01-.258.025-.333-.037a3.59 3.59 0 0 1-.514-.548.342.342 0 0 1-.038-.28c.03-.078.135-.124.201-.178"/>
        <path fill="#ee7822" d="M7.132 42.67l-.035.025c-.044.03-.094.062-.105.094-.02.053-.007.159.025.2.185.233.345.404.503.536.03.025.106.022.172.02l.05-.002.008-.056c.01-.06.026-.15.008-.175-.116-.173-.265-.331-.408-.484l-.095-.1c-.013-.014-.044-.026-.08-.04a.679.679 0 0 1-.043-.017zm.745 1.04l-.076-.007c-.032-.003-.068 0-.103 0-.097.002-.197.007-.269-.053a3.637 3.637 0 0 1-.526-.56.423.423 0 0 1-.05-.36c.03-.078.102-.127.165-.17a.796.796 0 0 0 .06-.042l.035-.029.04.02c.027.013.052.021.074.03.05.02.098.038.134.077l.094.1c.148.157.301.32.425.504.053.079.035.19.017.295-.006.04-.013.078-.015.114l-.005.08zM28.22.73c.092.056.176.089.235.148.148.15.309.296.416.476.062.105.033.273.044.413-.127-.014-.285.02-.376-.048a2.514 2.514 0 0 1-.473-.503c-.054-.073-.064-.213-.042-.31.016-.066.12-.11.196-.176"/>
        <g transform="translate(27.451 .554)">
            <mask id="b" fill="#fff">
                <use xlink:href="#a"/>
            </mask>
            <path fill="#ee7822" d="M.775.27L.73.301a.33.33 0 0 0-.086.071C.626.456.64.566.673.612c.165.221.311.376.458.488.042.031.128.03.207.03a.41.41 0 0 0 .048 0v-.054c.001-.089.002-.18-.03-.233a2.053 2.053 0 0 0-.33-.387L.953.382A.52.52 0 0 0 .821.295L.775.27zm.771 1.03l-.09-.01c-.036-.003-.076-.001-.117-.002-.105 0-.213.002-.294-.06A2.577 2.577 0 0 1 .556.712C.486.616.474.449.5.335.518.258.585.212.65.168A.758.758 0 0 0 .721.114L.762.08l.044.027.083.047c.06.033.119.065.166.113L1.13.34c.127.128.259.26.354.418.054.092.053.208.053.32 0 .043-.002.086.002.127l.008.095z" mask="url(#b)"/>
        </g>
        <path fill="#ee7822" d="M9.33 45.477c-.084-.05-.159-.08-.212-.133-.163-.163-.32-.333-.475-.503-.12-.13-.157-.299-.01-.398.085-.057.276-.044.356.022.182.15.339.343.478.54.053.073.053.211.035.31-.01.06-.105.102-.173.162"/>
        <g transform="translate(8.355 44.305)">
            <mask id="d" fill="#fff">
                <use xlink:href="#c"/>
            </mask>
            <path fill="#ee7822" d="M.427.18A.21.21 0 0 0 .32.205C.282.23.262.26.258.294.253.348.283.417.341.481c.153.166.311.339.473.5.028.029.069.05.115.075l.04.022a1.22 1.22 0 0 1 .034-.025c.026-.019.066-.047.072-.06.018-.098.009-.203-.022-.246A2.7 2.7 0 0 0 .59.223C.556.195.49.18.427.18zm.555 1.088l-.045-.027a1.19 1.19 0 0 0-.076-.043c-.054-.03-.105-.058-.149-.102A14.856 14.856 0 0 1 .235.59.412.412 0 0 1 .11.275.28.28 0 0 1 .24.071C.347-.003.574.01.68.098c.161.132.317.308.492.553.069.097.07.256.049.375-.014.072-.075.117-.135.159-.021.015-.044.03-.064.048l-.04.035z" mask="url(#d)"/>
        </g>
        <path fill="#ee7822" d="M29.932 1.844c-.204-.001-.333-.216-.22-.373.17-.238.365-.458.576-.653.055-.05.232-.021.304.037.056.046.081.24.038.295-.186.237-.401.449-.61.665-.023.025-.071.024-.088.029"/>
        <path fill="#ee7822" d="M30.38.871a.092.092 0 0 0-.044.008 4.178 4.178 0 0 0-.565.64.136.136 0 0 0-.013.14c.03.062.094.102.167.106a.11.11 0 0 1 .016-.003c.009-.001.026-.004.031-.006l.107-.112c.17-.174.343-.353.494-.545.015-.03-.003-.155-.027-.181A.303.303 0 0 0 30.38.87zm-.448 1.052a.34.34 0 0 1-.308-.194.302.302 0 0 1 .029-.306c.167-.235.364-.46.586-.665.09-.085.31-.038.4.035.062.052.08.163.085.208.004.05.007.144-.037.2-.155.198-.332.38-.504.557l-.11.114c-.036.037-.085.044-.113.047l-.028.004zM8.788 43.687a.252.252 0 0 1-.19-.406 4.6 4.6 0 0 1 .575-.613c.058-.052.226-.05.28.002.06.057.1.247.058.298-.2.25-.429.473-.65.703-.018.018-.056.013-.073.016"/>
        <path fill="#ee7822" d="M9.312 42.709c-.039 0-.077.006-.09.019a4.484 4.484 0 0 0-.566.603.165.165 0 0 0-.022.172c.02.049.071.1.15.105l.02-.002.138-.13c.174-.178.355-.362.513-.56.01-.029-.019-.156-.052-.188-.014-.013-.053-.019-.091-.019zm-.526 1.058a.319.319 0 0 1-.288-.198.331.331 0 0 1 .043-.338c.164-.215.36-.424.584-.624.087-.078.295-.075.378.004.078.074.142.314.065.408-.162.203-.345.39-.523.572l-.133.136c-.032.034-.075.036-.101.038l-.025.002zM7.916 44.617c-.045.088-.066.16-.11.209-.162.181-.317.373-.502.522-.076.062-.222.025-.336.033-.006-.122-.062-.285-.009-.36.152-.212.341-.4.534-.574.059-.053.188-.06.269-.032.064.022.102.129.154.202"/>
        <path fill="#ee7822" d="M7.035 45.302c.016 0 .033 0 .05.002.067.003.143.007.174-.018.147-.119.278-.27.406-.416l.087-.098a.447.447 0 0 0 .057-.106l.02-.043a.802.802 0 0 1-.022-.04c-.02-.034-.05-.087-.068-.092-.063-.022-.164-.014-.198.017a3.465 3.465 0 0 0-.522.562c-.017.024-.002.118.007.175l.009.057zm-.137.164l-.004-.08a1.045 1.045 0 0 0-.015-.115c-.018-.108-.036-.22.02-.298.172-.239.382-.439.545-.586.082-.075.24-.082.341-.048.07.025.11.095.149.162.013.023.027.047.042.068l.029.04-.023.045a2.483 2.483 0 0 0-.039.08.564.564 0 0 1-.083.147l-.086.098c-.132.15-.268.307-.425.433-.073.059-.174.054-.271.05-.036-.002-.072-.006-.105-.001l-.075.005zM20.069 37.61h8.797c.088 0 .192-.03.261.01.105.06.186.168.278.256-.084.098-.155.259-.253.28-.207.045-.428.017-.644.017l-16.858.001c-.186 0-.373.013-.559.006-.183-.006-.38-.037-.376-.29.004-.249.188-.282.38-.28.667.002 1.334 0 2 0h6.974z"/>
        <path fill="#ee7822" d="M11.09 37.688c-.222 0-.298.052-.3.203-.002.15.074.203.303.21.111.003.222 0 .333-.002.075-.002.15-.004.223-.004h16.86l.18.003c.157.005.307.01.448-.02.039-.008.09-.084.131-.144l.036-.05c-.011-.012-.021-.024-.032-.034a.827.827 0 0 0-.18-.16c-.028-.017-.083-.012-.136-.006-.03.003-.061.006-.09.006h-16.27c-.5 0-1 0-1.5-.002h-.006zm.117.573c-.04 0-.08 0-.118-.002-.124-.004-.454-.015-.448-.37.006-.361.337-.355.455-.36.5.003 1 .002 1.5.002h16.27c.025 0 .05-.002.076-.005.072-.008.152-.014.22.024.084.047.151.119.216.188.025.027.05.054.077.08l.056.052-.05.06a1.07 1.07 0 0 0-.07.096c-.064.092-.128.187-.224.207-.16.035-.324.03-.483.024a5.435 5.435 0 0 0-.176-.004H11.65a8.41 8.41 0 0 0-.219.004c-.074.002-.149.004-.223.004zM19.6 35.674h8.389c.098 0 .21-.028.29.013.09.047.204.153.211.24.008.09-.084.237-.166.275-.119.054-.268.04-.405.04-5.327 0-10.654-.002-15.981-.004-.284 0-.569.007-.854.004-.187-.002-.374-.042-.37-.295.004-.258.191-.274.381-.274 2.835.002 5.67.001 8.506.001"/>
        <path fill="#ee7822" d="M11.906 36.158h.032l16.047.007c.111 0 .224.003.31-.036.057-.026.125-.144.122-.194-.004-.042-.08-.13-.17-.176-.04-.02-.103-.015-.166-.01-.03.002-.062.004-.092.004H11.094c-.237 0-.303.042-.305.195-.001.065.012.113.042.144.056.062.172.07.254.07.16.002.32 0 .479-.001l.342-.003m16.146.166h-.069l-.063-.001-15.982-.006c-.126-.001-.249.001-.372.002-.16.002-.321.005-.482.002-.118-.001-.266-.016-.36-.118a.358.358 0 0 1-.084-.257c.005-.352.297-.352.455-.352h16.894c.027 0 .054-.002.08-.004.08-.005.167-.012.243.027.096.049.242.17.253.304.012.133-.107.305-.212.353a.725.725 0 0 1-.301.05M23.61 14.91h5.299c.078 0 .175-.03.231.01.102.07.18.179.269.272-.09.093-.17.203-.273.273-.056.038-.153.01-.231.01H18.308c-.224 0-.514.042-.503-.304.01-.329.3-.26.507-.26 1.766-.002 3.532-.001 5.298-.001"/>
        <path fill="#ee7822" d="M28.905 15.395c.025 0 .052.003.08.006.039.003.093.008.112-.003.065-.044.121-.108.18-.176a.655.655 0 0 1 .028-.03l-.027-.032c-.06-.067-.114-.13-.179-.174-.017-.012-.07-.007-.11-.002a.911.911 0 0 1-.08.005h-6.624l-3.973.001-.098-.003c-.11-.003-.232-.01-.288.046-.03.028-.045.074-.046.14-.003.077.011.13.042.163.06.066.198.065.318.06h10.665zm.147.17a.67.67 0 0 1-.08-.007c-.023-.001-.046-.004-.067-.004H18.242c-.152.004-.322.007-.427-.107-.06-.065-.088-.159-.084-.279.003-.11.034-.194.093-.251.103-.102.258-.093.396-.088l.092.003c1.324-.002 2.649-.002 3.973-.002h6.624c.021 0 .044-.002.066-.004.068-.006.144-.015.205.027.08.054.144.128.207.2l.074.082.054.057-.054.056-.074.082a1.17 1.17 0 0 1-.21.202.217.217 0 0 1-.125.032zM16.163 32.43h-4.969c-.078 0-.174.028-.231-.01-.097-.061-.244-.176-.235-.25.013-.108.134-.217.231-.293.053-.04.152-.012.231-.012h9.996c.089 0 .195-.022.26.022.088.058.21.18.2.258-.014.102-.128.21-.224.272-.064.043-.172.013-.26.013h-4.999"/>
        <path fill="#ee7822" d="M21.162 32.35c.028 0 .057.003.087.006.051.006.11.01.133-.006.102-.066.18-.157.19-.217-.003-.027-.074-.118-.165-.18-.03-.018-.091-.014-.146-.011a.989.989 0 0 1-.074.003H11.19c-.025 0-.053-.003-.08-.005-.035-.003-.093-.01-.107.001-.157.122-.196.197-.201.24.005.018.073.091.2.172.019.013.07.007.112.003a.717.717 0 0 1 .08-.005h9.968zm.162.17c-.03 0-.06-.003-.088-.006-.025-.002-.05-.005-.074-.005h-9.968c-.021 0-.043.003-.066.005-.068.007-.142.014-.204-.026-.191-.122-.282-.232-.27-.328.013-.11.096-.219.261-.347.06-.046.14-.038.21-.031.021.001.044.004.065.004h9.997c.02 0 .043 0 .065-.003.077-.003.165-.01.233.036.003.002.256.172.234.336-.022.164-.203.294-.258.33a.241.241 0 0 1-.137.035zM23.127 12.658h4.88c.08 0 .176-.029.231.01.096.066.228.174.229.266 0 .093-.127.205-.22.275-.055.04-.153.014-.231.014h-9.762c-.078 0-.178.026-.23-.015-.092-.073-.216-.189-.214-.283.002-.09.138-.194.234-.258.058-.038.153-.009.232-.009h4.851z"/>
        <path fill="#ee7822" d="M18.254 13.143h9.761c.024 0 .05.002.076.005.038.004.096.007.112-.004.15-.11.189-.184.189-.21 0-.018-.035-.09-.194-.2-.017-.01-.07-.005-.11-.002-.027.002-.055.005-.08.005h-9.732c-.026 0-.054-.003-.082-.005-.04-.005-.091-.01-.11.002-.196.13-.2.192-.2.193 0 .034.057.117.185.217.015.012.074.008.11.004a.768.768 0 0 1 .075-.005m9.902.167a.773.773 0 0 1-.077-.004c-.022-.002-.043-.004-.064-.004h-9.76a.734.734 0 0 0-.064.004c-.071.007-.151.013-.21-.035-.166-.128-.248-.246-.246-.348.002-.1.088-.203.27-.323.062-.041.138-.032.204-.026.022.002.045.004.067.004h9.732c.02 0 .043-.002.066-.004.067-.006.145-.015.205.028.176.122.262.23.262.332 0 .102-.082.213-.252.34a.219.219 0 0 1-.133.036M21.527 10.406c1.107 0 2.214-.004 3.321.006.114 0 .261.046.334.129.138.157.018.392-.207.422-.154.019-.313.006-.47.006l-6.23.002c-.06 0-.137.024-.173-.007-.11-.092-.205-.206-.306-.31.107-.083.213-.234.323-.237.645-.023 1.292-.011 1.939-.011h1.47z"/>
        <path fill="#ee7822" d="M17.907 10.66c.01.01.019.019.027.03.072.076.139.15.214.212l.061-.006c.023-.002.045-.005.066-.005l6.23-.002.138.003c.113.002.219.005.324-.008a.227.227 0 0 0 .19-.142.143.143 0 0 0-.03-.148c-.051-.058-.172-.103-.279-.104-.861-.006-1.722-.005-2.583-.005h-2.207l-.967-.002c-.322 0-.649.002-.97.013-.048.002-.114.067-.173.124l-.041.04m.252.4a.152.152 0 0 1-.103-.033 2.282 2.282 0 0 1-.228-.227l-.084-.09-.063-.066.071-.055c.032-.024.063-.055.095-.086.082-.08.166-.162.269-.165.486-.017.98-.014 1.457-.012H22.265c.862 0 1.723 0 2.584.006.121 0 .295.05.388.155a.31.31 0 0 1 .06.31.38.38 0 0 1-.313.244 2.33 2.33 0 0 1-.345.009l-.134-.002-6.23.002a.348.348 0 0 0-.05.004.572.572 0 0 1-.066.005M20.046 19.448h1.848c.187 0 .381.017.386.27.007.273-.196.293-.393.293-1.233 0-2.466-.002-3.699.001-.21 0-.396-.05-.387-.306.008-.247.21-.259.395-.258h1.85"/>
        <path fill="#ee7822" d="M18.19 19.527c-.24 0-.31.041-.315.183-.002.067.012.116.042.15.045.049.132.073.268.073h.003c1.078-.004 2.158-.003 3.236-.002h.463c.106 0 .224-.005.279-.065.029-.031.042-.079.04-.146-.003-.148-.076-.193-.312-.193H18.19zm-.006.564c-.115 0-.276-.013-.374-.122a.361.361 0 0 1-.084-.266c.011-.337.313-.336.47-.335h3.698c.148 0 .453 0 .461.348a.362.362 0 0 1-.082.261c-.096.104-.25.113-.386.113h-.463a786.225 786.225 0 0 0-3.235.001h-.005zM26.05 20.044c-.628 0-1.255-.003-1.882.001-.196.001-.378-.038-.376-.283.001-.241.183-.285.378-.284 1.235.002 2.47.003 3.706 0 .212 0 .392.06.39.31-.003.261-.21.256-.392.256H26.05"/>
        <path fill="#ee7822" d="M24.166 19.557c-.248 0-.298.079-.3.206 0 .062.014.107.042.137.057.06.18.074.26.066.447-.003.894-.002 1.344-.002h2.364c.226 0 .313-.016.315-.177 0-.069-.015-.12-.047-.154-.048-.05-.137-.076-.265-.076h-.003c-1.235.003-2.47.003-3.706 0h-.004zm-.008.568c-.118 0-.263-.015-.355-.113a.352.352 0 0 1-.086-.25c.002-.365.341-.363.453-.363 1.235.002 2.47.002 3.706 0h.003c.172 0 .293.04.37.121a.374.374 0 0 1 .091.269c-.003.329-.278.334-.448.334h-2.38c-.448 0-.896-.001-1.344.002h-.01zM24.171 17.758h-1.557c-.187 0-.375-.024-.371-.286.003-.26.194-.276.379-.276a2501.958 2501.958 0 0 1 3.173.003c.18.012.302.095.295.306-.007.206-.138.253-.303.253h-1.616"/>
        <path fill="#ee7822" d="M24.165 17.275h-1.543c-.213 0-.303.028-.305.198 0 .066.013.113.04.144.05.053.153.061.257.061h3.176c.183 0 .222-.064.225-.176.003-.109-.021-.21-.225-.224a1.214 1.214 0 0 0-.083-.003h-1.542m-.884.563l-.667-.001c-.136 0-.274-.014-.363-.11a.36.36 0 0 1-.083-.256c.005-.354.308-.354.454-.354a1250.594 1250.594 0 0 1 3.177.002c.328.023.37.253.365.388-.007.22-.133.33-.374.33H23.28M19.349 17.758c-.402 0-.804-.003-1.206.001-.194.002-.34-.076-.344-.292-.003-.209.152-.27.327-.27.823-.001 1.646-.002 2.469 0 .173 0 .324.057.328.271.004.234-.154.29-.34.29H19.35"/>
        <path fill="#ee7822" d="M19.359 17.275l-1.233.001c-.1 0-.174.022-.213.065-.027.028-.04.07-.039.125 0 .06.003.214.263.214h.006c.284-.004.568-.002.852-.002h1.588c.11 0 .184-.02.224-.064.03-.032.043-.08.041-.144-.001-.096-.033-.193-.253-.193l-1.236-.002zm-1.222.563c-.259 0-.409-.134-.412-.37a.33.33 0 0 1 .082-.239c.068-.073.176-.111.319-.111.823-.002 1.646-.001 2.47 0 .344 0 .4.218.402.348a.357.357 0 0 1-.085.259c-.069.075-.177.112-.33.112h-1.589c-.283 0-.567-.001-.85.001h-.007zM14.232 23.536c.255 0 .513-.027.763.012.11.017.204.166.305.255-.096.097-.188.274-.287.279a15.78 15.78 0 0 1-1.588.001c-.092-.004-.179-.166-.268-.256.093-.097.178-.26.283-.277.26-.041.528-.014.792-.014z"/>
        <path fill="#ee7822" d="M13.259 23.826l.04.05c.04.05.099.127.13.128.548.025 1.08.024 1.58-.002.035-.002.1-.085.143-.141l.042-.053-.04-.045c-.058-.063-.119-.13-.17-.137a2.803 2.803 0 0 0-.527-.016c-.05.002-.1.004-.15.004v.002h-.075c-.076 0-.153-.003-.229-.005a2.964 2.964 0 0 0-.552.017c-.044.007-.1.08-.15.145l-.042.053m.96.356c-.26 0-.526-.007-.797-.02-.096-.004-.169-.096-.238-.185a1.076 1.076 0 0 0-.079-.093l-.056-.057.056-.057c.027-.029.054-.063.08-.097.07-.092.144-.186.244-.202.191-.03.388-.025.578-.018l.18.004h.045c.074 0 .147-.003.22-.005.183-.006.37-.01.554.017.102.016.18.102.254.184.029.031.058.063.088.09l.063.056-.06.061a1.19 1.19 0 0 0-.083.102c-.074.095-.15.194-.252.199-.258.014-.524.021-.797.021M17.429 23.536c.264 0 .531-.026.79.013.106.016.193.173.29.266-.088.093-.173.263-.264.267-.537.026-1.075.026-1.612-.001-.091-.004-.176-.178-.263-.273.099-.092.189-.243.299-.26.248-.04.506-.012.76-.012"/>
        <path fill="#ee7822" d="M16.473 23.812l.038.054c.034.047.098.135.126.136a16.72 16.72 0 0 0 1.604.001c.028 0 .09-.084.126-.133l.039-.052-.043-.051c-.051-.062-.11-.133-.154-.14-.178-.027-.365-.021-.545-.016-.08.002-.153.001-.235.004a8.78 8.78 0 0 1-.224-.004 2.792 2.792 0 0 0-.525.016c-.05.007-.108.073-.165.138l-.042.047m.976.368c-.275 0-.549-.006-.819-.02-.097-.004-.168-.103-.237-.198-.026-.035-.05-.07-.077-.1l-.055-.06.06-.055c.029-.026.057-.058.085-.09.074-.085.15-.172.252-.188.183-.028.371-.022.552-.017.073.002.146.004.22.004.08 0 .153-.001.23-.004.187-.005.38-.01.57.018.1.015.174.105.245.193.028.032.055.066.083.093l.058.056-.055.059a1.144 1.144 0 0 0-.076.096c-.07.094-.14.19-.237.195-.266.012-.533.018-.8.018M20.658 24.12c-.253 0-.51.025-.76-.011-.103-.015-.19-.16-.285-.245.092-.1.18-.282.277-.287.517-.03 1.035-.029 1.551 0 .098.004.187.182.28.28-.1.088-.193.235-.302.252-.25.038-.506.012-.76.012"/>
        <path fill="#ee7822" d="M20.658 24.042c.073 0 .146.002.219.004.175.006.358.01.53-.016.052-.007.11-.072.169-.134a2.9 2.9 0 0 1 .04-.045 1.326 1.326 0 0 1-.04-.054c-.042-.055-.105-.14-.139-.142-.519-.029-1.04-.027-1.543.001-.032.002-.097.091-.135.145l-.043.057c.013.014.026.03.04.043.053.06.107.123.153.13.171.024.353.02.529.014.073-.002.147-.003.22-.003m.44.168c-.075 0-.15-.003-.226-.005a8.132 8.132 0 0 0-.43-.001c-.182.006-.37.01-.554-.017-.097-.014-.17-.097-.241-.177-.028-.03-.054-.061-.083-.086l-.06-.054.056-.061c.027-.03.053-.067.08-.104.072-.099.145-.202.246-.207a14.2 14.2 0 0 1 1.559-.001c.1.005.175.106.248.202.027.037.054.072.081.102l.059.062-.064.056c-.03.025-.058.057-.087.088-.075.08-.152.165-.253.18-.109.018-.22.023-.33.023M23.061 33.805c.225 0 .455-.029.674.012.111.021.267.152.29.26.041.198-.111.289-.293.29h-1.38c-.182 0-.319-.085-.318-.283.002-.199.141-.28.323-.28.235.002.47 0 .704.001"/>
        <path fill="#ee7822" d="M22.353 33.884c-.16 0-.243.067-.244.2 0 .06.015.106.045.139.04.043.11.066.199.066l.626-.001h.753c.092-.001.168-.029.202-.074.023-.03.028-.07.017-.12-.014-.071-.143-.183-.23-.199-.145-.027-.296-.021-.458-.015a5.384 5.384 0 0 1-.202.005h-.301l-.403-.001h-.004zm0 .563a.403.403 0 0 1-.305-.113.353.353 0 0 1-.088-.25c.002-.225.149-.359.393-.359h.005c.133.002.267.001.402.001h.301c.066 0 .131-.002.197-.005a2.22 2.22 0 0 1 .49.018c.132.025.319.174.35.32a.3.3 0 0 1-.047.254c-.064.085-.178.132-.319.133h-.753l-.626.001zM14.03 34.367c-.236 0-.475.028-.703-.013-.113-.02-.274-.157-.29-.263-.03-.186.114-.288.301-.287.46.002.92 0 1.38.001.18 0 .314.079.31.288-.005.21-.146.275-.324.275l-.674-.001"/>
        <path fill="#ee7822" d="M13.337 33.883c-.09 0-.163.027-.2.075-.026.03-.035.07-.027.12.01.062.136.182.229.198.155.027.313.021.482.017.07-.003.14-.005.208-.005h.678c.213 0 .244-.1.246-.197.001-.064-.012-.111-.043-.144-.046-.051-.13-.062-.193-.062h-.59c-.263 0-.527 0-.79-.002zm.281.573c-.101 0-.203-.005-.304-.024-.14-.025-.328-.18-.351-.327a.313.313 0 0 1 .06-.25c.066-.085.178-.13.314-.13l.51.001h.871c.132 0 .233.038.3.11.058.064.086.151.084.26-.003.13-.057.351-.395.351h-.678c-.067 0-.135.002-.203.004-.069.002-.138.005-.208.005zM20.011 34.368l-.675-.001c-.18 0-.318-.082-.315-.285.004-.2.142-.279.323-.278.45.002.9 0 1.35.001.174 0 .323.052.327.269.003.23-.144.295-.335.294-.225-.002-.45 0-.675 0"/>
        <path fill="#ee7822" d="M20.462 34.288h.23c.101 0 .172-.02.21-.062.031-.032.045-.082.044-.15-.002-.115-.045-.192-.252-.192h-1.352c-.242 0-.245.15-.246.2 0 .06.013.107.043.139.05.053.135.065.197.065H20.462m.23.159h-1.356c-.13 0-.236-.04-.303-.113a.348.348 0 0 1-.086-.253c.004-.223.152-.356.395-.356h1.353c.326 0 .397.19.4.348a.37.37 0 0 1-.086.265c-.069.073-.173.109-.317.109M17.06 33.805h.675c.183 0 .334.096.3.288-.018.106-.184.254-.29.261a11.44 11.44 0 0 1-1.407 0c-.105-.007-.27-.159-.286-.265-.03-.191.12-.285.304-.284h.704"/>
        <path fill="#ee7822" d="M16.354 33.884c-.091 0-.168.027-.204.074-.025.03-.032.069-.025.117.012.07.147.196.216.2.463.029.933.029 1.4 0 .071-.004.208-.126.22-.196.009-.05.002-.088-.022-.12-.036-.046-.113-.074-.205-.074h-.85l-.529-.001h-.001zm.691.57c-.238 0-.476-.006-.712-.02-.14-.01-.332-.189-.354-.332a.306.306 0 0 1 .057-.247c.067-.084.18-.13.318-.13h.002c.176.002.353 0 .528.001h.85c.138 0 .254.049.32.133a.306.306 0 0 1 .054.248c-.025.14-.22.318-.359.327-.234.014-.47.02-.704.02zM11.398 23.539c.136 0 .284-.033.407.011.098.034.23.16.233.25.003.093-.125.262-.209.272a4.1 4.1 0 0 1-.903-.002c-.08-.01-.203-.184-.198-.276.004-.09.136-.215.233-.244.135-.044.29-.012.437-.011"/>
        <path fill="#ee7822" d="M11.131 23.606a.496.496 0 0 0-.149.02c-.082.025-.178.13-.18.172-.002.055.093.186.132.193.297.033.595.033.888.002.04-.005.143-.135.142-.19-.001-.04-.096-.147-.183-.178-.072-.026-.159-.019-.251-.013-.044.003-.09.008-.132.006-.045 0-.09-.003-.136-.006a1.878 1.878 0 0 0-.13-.006m.256.569c-.156 0-.313-.008-.47-.027-.127-.014-.271-.232-.265-.358.007-.14.178-.283.287-.317a.882.882 0 0 1 .332-.019c.042.003.084.006.126.006.044 0 .081-.003.122-.006a.715.715 0 0 1 .308.021c.113.04.28.185.285.323.004.135-.156.34-.276.352a3.923 3.923 0 0 1-.449.025M25.68 34.319c-.146 0-.3.029-.436-.011-.09-.026-.216-.157-.211-.233.007-.101.118-.27.196-.278a4.72 4.72 0 0 1 .932.004c.074.007.188.169.186.256-.002.089-.115.222-.202.248-.145.04-.309.01-.465.01v.004z"/>
        <path fill="#ee7822" d="M25.67 33.855a4.61 4.61 0 0 0-.435.02c-.035.01-.123.131-.128.206.004.033.092.131.156.151.083.024.18.019.28.013l.062-.004v-.004h.075c.048 0 .096.001.144.005.108.005.21.012.302-.014.06-.017.145-.125.146-.173.002-.05-.083-.167-.12-.176a5.019 5.019 0 0 0-.483-.024m-.253.553a.678.678 0 0 1-.192-.024c-.109-.031-.274-.188-.266-.314.009-.124.136-.34.264-.351.3-.032.618-.029.945.003.12.012.258.217.255.338-.003.132-.147.29-.258.321a1.039 1.039 0 0 1-.347.019c-.03-.002-.058-.004-.086-.004l-.051.002c-.043 0-.085.002-.128.005-.045.002-.09.005-.136.005M11.378 34.324c-.137 0-.286.035-.407-.011-.104-.04-.226-.163-.244-.268-.012-.073.132-.245.218-.255a3.85 3.85 0 0 1 .875.001c.087.01.218.17.218.262 0 .09-.128.224-.225.257-.133.044-.289.01-.435.01v.004z"/>
        <path fill="#ee7822" d="M11.38 33.845c-.142 0-.285.008-.427.024-.042.005-.147.121-.152.168.012.064.11.169.195.202.07.026.157.02.25.012l.057-.004v-.006h.075c.045 0 .092.003.138.007.1.007.195.012.275-.014.08-.027.173-.14.173-.181 0-.053-.103-.178-.152-.183a3.912 3.912 0 0 0-.431-.025m-.257.57a.49.49 0 0 1-.178-.027c-.122-.047-.268-.19-.293-.329-.008-.05.012-.11.06-.177.05-.073.14-.16.224-.17.296-.034.597-.034.891 0 .123.014.285.208.285.34 0 .14-.166.296-.277.333a.847.847 0 0 1-.33.02c-.026 0-.054-.003-.08-.004l-.048.002c-.04 0-.08.003-.121.006a1.544 1.544 0 0 1-.133.007M23.494 24.118c-.138 0-.284.032-.41-.01-.097-.033-.23-.156-.233-.243-.004-.094.12-.268.2-.277.299-.033.606-.03.906 0 .08.008.216.175.203.243a.415.415 0 0 1-.229.27c-.132.047-.29.012-.437.012v.005z"/>
        <path fill="#ee7822" d="M23.494 23.643c-.149 0-.294.008-.436.023-.04.008-.135.138-.132.196 0 .038.096.14.182.17.074.025.161.019.255.013l.056-.004v-.007h.075c.045 0 .092.003.138.006a.72.72 0 0 0 .275-.014.342.342 0 0 0 .18-.21c-.005-.036-.1-.143-.137-.15a4.634 4.634 0 0 0-.456-.023m-.253.566a.553.553 0 0 1-.179-.025c-.113-.039-.28-.182-.285-.316-.005-.128.14-.345.266-.359.293-.032.603-.032.921 0 .079.008.164.092.212.16.048.068.067.128.057.177a.494.494 0 0 1-.278.331.825.825 0 0 1-.332.022 3.135 3.135 0 0 0-.077-.005l-.052.003c-.04 0-.081.003-.122.006a1.787 1.787 0 0 1-.131.006M8.42 13.716h4.942c.157 0 .332-.02.37.207.037.222-.078.34-.274.354-.205.014-.411.002-.617.002-3.108.003-6.217.005-9.325.005-.096 0-.21.005-.284-.045-.078-.052-.172-.177-.16-.253.014-.097.116-.199.205-.254.067-.041.172-.015.26-.015H8.42"/>
        <path fill="#ee7822" d="M3.384 13.788a.144.144 0 0 0-.07.013c-.086.053-.16.14-.169.197-.003.03.058.128.127.174.05.034.14.035.223.033h.021c3.109 0 6.217-.003 9.325-.005.065 0 .129 0 .194.002.138.003.28.006.418-.004.058-.004.135-.021.178-.079.031-.042.04-.104.027-.183-.02-.124-.081-.141-.233-.141h-.026l-9.862.001a.893.893 0 0 1-.081-.004.933.933 0 0 0-.072-.004zm.087.576c-.095 0-.198-.004-.279-.058-.094-.063-.212-.214-.194-.333.02-.13.142-.248.241-.31.068-.042.153-.035.228-.03a.904.904 0 0 0 .07.005h9.86c.14-.009.363-.005.408.271.026.156-.016.254-.057.308a.372.372 0 0 1-.285.14c-.144.01-.29.006-.43.004l-.192-.003c-3.108.003-6.216.005-9.325.006h-.045zM8.416 15.899h4.821c.089 0 .19-.025.262.013.091.05.222.153.22.23-.002.101-.103.217-.187.295-.05.045-.15.036-.227.036L3.78 16.46c-.165 0-.34.024-.494-.024-.093-.03-.226-.195-.21-.267.022-.104.16-.25.255-.257.41-.029.822-.014 1.234-.014h3.851"/>
        <path fill="#ee7822" d="M3.78 16.382c3.175.005 6.35.01 9.525.012h.03c.046 0 .126.002.148-.018.099-.09.16-.181.162-.237-.005-.025-.082-.104-.18-.156-.032-.017-.09-.013-.146-.01a.894.894 0 0 1-.082.005H4.565l-.313-.002c-.3-.004-.612-.005-.916.017-.06.004-.171.12-.188.195a.355.355 0 0 0 .16.173c.103.034.221.028.344.024l.128-.003m9.594.171h-.07c-3.174-.003-6.35-.008-9.524-.013-.04 0-.082.002-.123.004-.13.003-.266.01-.392-.03-.115-.038-.29-.234-.262-.362.03-.132.187-.308.323-.318.31-.02.624-.02.927-.016l.312.001h8.672l.072-.003c.072-.005.154-.012.223.026.027.014.266.146.262.3-.003.135-.118.267-.214.355-.054.05-.134.056-.206.056M8.447 18.078h4.796c.088 0 .19-.024.261.013.092.049.224.152.22.225-.004.104-.1.225-.189.296-.057.048-.168.028-.256.028-3.256.002-6.511.002-9.767 0-.088 0-.192.019-.26-.023-.081-.05-.186-.157-.182-.235a.406.406 0 0 1 .177-.275c.083-.05.209-.028.316-.028l4.884-.001"/>
        <path fill="#ee7822" d="M3.406 18.153a.245.245 0 0 0-.123.023c-.067.04-.135.144-.138.211 0 .028.065.113.143.16.035.022.096.02.157.016l.066-.002h9.768l.064.002c.053.003.123.005.147-.013.089-.073.158-.174.16-.237a.472.472 0 0 0-.179-.15c-.033-.018-.09-.014-.146-.01a.919.919 0 0 1-.082.005H3.564c-.027 0-.054 0-.081-.002l-.077-.003m10 .57l-.07-.001-.057-.002H3.51l-.06.002c-.077.003-.166.007-.237-.037-.087-.053-.226-.183-.219-.307a.49.49 0 0 1 .214-.34c.084-.05.188-.045.28-.04l.075.002 4.884-.001h4.795l.072-.003c.073-.006.153-.012.223.024.027.015.268.147.261.3-.006.137-.12.276-.218.355-.048.04-.112.049-.176.049M36.002 19.028c-.059.09-.095.163-.147.22-.28.304-.566.604-.85.905-.112.12-.236.215-.378.066-.142-.15-.088-.305.036-.438.275-.295.545-.6.836-.876.078-.075.227-.094.34-.086.055.004.103.128.163.209"/>
        <path fill="#ee7822" d="M35.797 18.895c-.087 0-.196.019-.248.068-.227.217-.446.454-.657.684l-.176.19c-.15.163-.099.26-.037.325.073.076.132.086.273-.065l.224-.238c.21-.221.42-.443.626-.668a.72.72 0 0 0 .084-.122l.025-.04a4.618 4.618 0 0 1-.026-.045c-.02-.032-.048-.08-.062-.089h-.026m-1.022 1.48c-.063 0-.131-.027-.2-.1-.09-.094-.204-.291.035-.55l.176-.19c.212-.23.432-.47.663-.69.121-.115.333-.107.395-.105.075.005.12.08.167.16.016.027.032.055.05.079l.034.046-.032.048c-.02.029-.036.057-.051.082-.033.054-.064.104-.104.148-.207.224-.417.447-.626.668l-.224.238c-.05.053-.156.166-.283.166M33.656 21.55c-.062.095-.101.177-.16.24-.267.292-.538.577-.809.863-.112.12-.241.206-.381.061-.13-.134-.098-.286.02-.413.28-.304.56-.612.856-.899.07-.068.213-.083.315-.068.057.008.099.128.16.216"/>
        <path fill="#ee7822" d="M33.427 21.406c-.078 0-.16.02-.195.055-.252.243-.495.507-.73.762l-.123.134c-.038.04-.084.104-.083.171 0 .044.021.087.061.13.071.073.14.085.277-.061l.102-.107c.237-.25.474-.5.707-.754a.948.948 0 0 0 .095-.14 1.41 1.41 0 0 1 .028-.046 1.555 1.555 0 0 1-.028-.05c-.018-.032-.045-.081-.059-.09a.354.354 0 0 0-.052-.004m-.97 1.465c-.064 0-.133-.027-.203-.1a.347.347 0 0 1-.107-.241c0-.097.042-.195.125-.285l.123-.133c.237-.257.482-.523.737-.77.09-.084.253-.105.376-.087.073.01.115.085.158.164.016.028.032.058.05.084l.032.046-.03.046c-.02.03-.038.06-.054.087-.036.059-.07.115-.114.164-.234.255-.471.506-.709.757l-.101.107c-.045.047-.152.16-.283.16M19.825 5.518h1.94c.187-.001.375.01.379.27.004.254-.175.296-.366.296-1.303.002-2.606.003-3.909.002-.191 0-.373-.056-.37-.299.003-.225.17-.272.357-.27.656.003 1.312 0 1.969 0"/>
        <path fill="#ee7822" d="M17.849 5.596c-.226 0-.274.077-.275.193 0 .064.014.111.045.145.045.048.129.073.25.073l3.909-.002c.128 0 .207-.022.248-.067.03-.032.044-.08.043-.148-.003-.163-.08-.194-.296-.194h-.008l-1.386.001h-1.116c-.47 0-.939.001-1.408-.001h-.006zm.71.57h-.69c-.165 0-.281-.04-.356-.12a.357.357 0 0 1-.088-.26c.002-.231.146-.349.424-.349h.008c.469.003.938.003 1.405.002h1.117l1.385-.001h.02c.16 0 .429.013.434.35a.363.363 0 0 1-.085.261c-.093.101-.239.114-.355.114l-3.22.002z"/>
    </g>
</svg>
